<?xml version="1.0" encoding="UTF-8" standalone="no"?>
<!DOCTYPE svg PUBLIC "-//W3C//DTD SVG 1.1//EN" "http://www.w3.org/Graphics/SVG/1.1/DTD/svg11.dtd">
<svg xmlns="http://www.w3.org/2000/svg" version="1.1" viewBox="0 0 787 186">
<clipPath id="clipping-path-0">
<path d="
  M 0.00 0.00
  L 787.00 0.00
  L 787.00 186.00
  L 0.00 186.00
  L 0.00 0.00
  Z"/>
</clipPath>
<g stroke-width="5.00" fill="none" stroke-linecap="butt" clip-path="url(#clipping-path-0)">
<path stroke="#fcfcfc" d="
  M 787.00 170.06
  L 786.44 169.38
  A 1.28 0.71 -8.4 0 0 785.56 169.05
  Q 774.93 168.70 764.32 167.91
  Q 763.43 167.84 760.33 166.97
  Q 757.84 166.27 755.22 167.09
  Q 754.76 167.23 754.26 167.14
  Q 751.80 166.69 749.89 168.17
  A 1.00 0.86 -52.6 0 1 749.02 168.35
  Q 745.69 167.23 749.89 166.03
  Q 751.29 165.63 749.95 165.07
  Q 747.75 164.14 745.47 163.46
  Q 744.57 163.19 744.00 163.37
  Q 743.04 163.67 743.02 164.69
  A 0.92 0.84 16.8 0 0 743.48 165.46
  Q 744.39 165.98 745.44 166.05
  A 1.12 0.74 -7.3 0 1 746.25 166.45
  Q 746.56 166.95 746.33 167.37
  A 1.03 0.69 9.1 0 1 745.50 167.75
  Q 742.50 167.78 739.50 167.88
  Q 737.58 167.94 733.58 168.71
  Q 728.72 169.65 723.80 168.92
  Q 719.88 168.33 718.79 168.23
  Q 716.27 168.00 713.75 167.69
  Q 713.08 167.61 710.74 167.53
  Q 709.20 167.48 707.73 167.09
  Q 706.78 166.83 704.66 165.25
  Q 702.34 163.52 699.30 163.98
  Q 698.81 164.05 699.15 164.44
  Q 702.48 168.33 697.74 168.56
  Q 695.54 168.66 695.39 168.68
  Q 687.08 169.43 678.80 168.58
  Q 678.62 168.56 673.20 168.33
  Q 667.24 168.07 662.63 164.08
  A 1.60 1.13 58.0 0 0 661.75 163.71
  Q 660.57 163.68 659.63 164.42
  A 0.51 0.48 51.8 0 0 659.57 165.13
  Q 662.06 168.19 658.54 168.29
  Q 656.45 168.35 655.97 168.41
  Q 642.63 169.99 629.43 167.31
  A 2.46 2.46 -89.5 0 1 627.50 165.34
  Q 627.20 163.68 625.02 164.33
  Q 623.70 164.72 622.65 164.05
  A 1.43 0.82 44.7 0 0 621.74 163.81
  Q 620.82 163.99 621.39 164.65
  A 1.06 0.77 -17.9 0 0 622.24 164.93
  Q 624.29 164.72 624.07 166.46
  A 2.01 2.00 -0.6 0 1 622.37 168.19
  Q 617.49 168.91 613.59 169.14
  Q 611.24 169.28 606.95 168.72
  Q 603.62 168.28 600.25 168.25
  Q 598.09 168.23 592.66 166.47
  A 1.35 1.16 81.7 0 1 591.97 165.87
  Q 590.99 164.05 589.19 164.79
  A 0.52 0.44 66.7 0 0 588.99 165.45
  Q 589.62 166.78 588.78 167.82
  A 1.43 1.06 8.3 0 1 587.95 168.27
  Q 577.82 169.99 571.25 169.00
  Q 565.08 168.07 558.91 167.12
  Q 558.69 167.08 558.23 167.15
  Q 557.58 167.25 557.65 166.50
  A 1.16 0.82 -19.2 0 1 558.19 165.75
  Q 559.96 164.63 557.02 164.11
  Q 553.88 163.55 556.21 166.85
  A 0.98 0.98 -21.9 0 1 555.55 168.38
  Q 542.74 170.32 530.99 167.30
  Q 529.77 166.99 528.81 166.18
  Q 525.26 163.23 524.81 165.50
  A 1.22 0.71 41.7 0 0 525.09 166.35
  Q 525.49 166.87 525.17 167.34
  Q 524.93 167.71 524.19 167.90
  Q 515.26 170.20 506.23 168.50
  Q 506.09 168.47 503.75 168.23
  Q 500.62 167.91 499.56 164.67
  A 1.36 1.35 83.3 0 0 498.40 163.74
  L 493.24 163.28
  Q 492.76 163.24 492.33 162.98
  Q 490.15 161.65 491.53 164.26
  Q 493.28 167.54 490.50 167.96
  Q 488.17 168.31 487.58 168.49
  Q 482.99 169.88 478.21 168.98
  Q 473.99 168.18 468.02 167.22
  A 1.37 1.36 10.8 0 1 466.90 165.58
  Q 467.07 164.76 465.80 164.36
  Q 462.28 163.24 463.98 166.08
  A 1.18 0.88 44.5 0 1 464.12 166.98
  Q 463.64 168.34 462.01 168.57
  Q 449.47 170.39 437.39 166.55
  A 0.59 0.58 -59.5 0 1 437.15 165.59
  Q 438.42 164.23 436.55 163.84
  Q 435.62 163.64 435.47 163.60
  Q 431.87 162.71 432.76 165.69
  A 1.78 1.77 -16.4 0 1 431.55 167.90
  Q 424.84 169.86 419.60 168.81
  Q 418.15 168.52 415.33 168.31
  Q 412.85 168.13 410.73 166.73
  A 0.92 0.79 -73.3 0 1 410.37 165.93
  Q 410.56 163.39 407.92 163.84
  Q 407.50 163.91 406.96 163.78
  Q 405.85 163.51 405.29 164.37
  A 1.18 0.81 59.1 0 0 405.23 165.28
  Q 406.14 168.14 403.31 168.46
  Q 401.32 168.69 401.21 168.71
  Q 398.34 169.25 395.42 169.31
  Q 393.27 169.35 389.72 168.40
  Q 386.45 167.52 383.08 167.17
  Q 381.28 166.98 379.09 167.80
  Q 371.84 170.51 364.08 168.63
  Q 362.04 168.14 356.50 167.50
  Q 354.89 167.32 354.51 165.56
  A 1.07 0.88 -87.0 0 0 353.98 164.84
  Q 351.16 163.55 352.76 166.51
  A 1.12 1.12 69.6 0 1 352.02 168.13
  Q 341.37 170.50 330.75 167.00
  Q 328.17 166.15 327.44 165.31
  Q 325.35 162.93 324.89 166.96
  A 1.21 1.21 -4.2 0 1 323.99 168.00
  Q 320.25 169.00 316.41 169.22
  Q 313.76 169.36 309.66 168.54
  Q 306.32 167.87 302.95 167.36
  Q 302.10 167.23 301.75 166.74
  Q 301.32 166.13 301.37 165.30
  A 0.67 0.51 -83.1 0 0 300.98 164.64
  Q 299.63 164.30 300.29 167.03
  A 1.27 1.26 77.8 0 1 299.30 168.57
  Q 295.05 169.39 291.07 169.30
  Q 288.97 169.26 284.37 168.30
  Q 281.52 167.71 277.70 167.08
  A 1.11 1.10 -83.2 0 1 276.78 165.90
  Q 276.93 163.97 274.01 164.01
  A 1.19 1.19 77.7 0 0 272.94 165.68
  Q 273.61 167.18 272.10 167.68
  Q 271.12 168.00 271.06 168.03
  Q 267.54 169.46 263.79 169.38
  Q 262.74 169.35 260.35 168.53
  Q 258.57 167.91 256.75 168.00
  Q 253.40 168.17 251.23 166.02
  Q 250.95 165.74 250.55 164.82
  Q 250.08 163.71 248.91 164.45
  A 0.86 0.74 72.8 0 0 248.57 165.24
  Q 248.93 168.37 245.75 168.73
  Q 235.68 169.88 226.05 166.84
  A 0.52 0.49 -73.6 0 1 225.73 166.21
  Q 226.04 165.10 225.49 164.21
  A 0.95 0.95 73.8 0 0 224.68 163.76
  Q 223.61 163.74 223.33 164.76
  A 1.59 0.67 58.6 0 0 223.47 165.69
  Q 223.84 166.63 223.35 167.43
  Q 222.98 168.04 222.02 168.26
  Q 217.81 169.22 211.75 168.75
  Q 205.98 168.31 200.24 167.56
  A 1.40 1.22 -55.4 0 0 199.34 167.79
  Q 197.53 169.00 195.39 169.07
  Q 192.71 169.16 192.62 169.17
  Q 188.79 169.54 185.00 168.75
  Q 182.97 168.33 176.50 167.79
  A 1.75 1.49 -53.5 0 0 175.56 168.01
  Q 173.62 169.08 171.43 169.10
  Q 168.63 169.12 168.58 169.12
  Q 161.30 169.72 159.81 169.19
  Q 155.77 167.74 151.50 167.52
  A 1.75 1.42 -54.8 0 0 150.58 167.78
  Q 148.41 169.16 145.87 169.14
  Q 142.73 169.13 142.62 169.13
  Q 136.21 169.52 130.00 167.76
  Q 127.44 167.03 125.40 168.45
  Q 124.96 168.76 124.51 168.80
  Q 113.50 169.78 102.74 167.36
  A 1.00 0.89 -58.3 0 0 101.90 167.61
  Q 100.44 168.99 98.00 169.00
  Q 88.12 169.03 81.13 168.31
  Q 80.90 168.28 79.11 167.66
  Q 77.83 167.22 76.81 168.36
  A 1.34 1.08 -67.1 0 1 76.01 168.79
  Q 65.08 169.64 54.31 167.66
  A 1.08 0.99 -58.2 0 0 53.45 167.90
  Q 52.38 168.79 50.94 168.96
  Q 40.41 170.21 30.30 167.17
  Q 30.11 167.11 29.17 166.90
  Q 27.52 166.51 28.75 165.58
  Q 28.99 165.40 29.83 165.05
  Q 31.54 164.34 29.02 163.42
  A 1.93 1.91 -9.4 0 1 28.20 162.84
  Q 25.72 159.85 26.73 162.92
  Q 27.65 165.74 25.46 167.06
  Q 24.28 167.77 24.01 167.96
  Q 23.08 168.61 22.44 168.69
  Q 15.30 169.55 8.00 167.08
  Q 5.37 166.19 3.68 168.39
  Q 2.99 169.30 -0.01 169.92"
/>
</g>
<path fill="#fefefe" d="
  M 0.00 0.00
  L 787.00 0.00
  L 787.00 170.06
  L 786.44 169.38
  A 1.28 0.71 -8.4 0 0 785.56 169.05
  Q 774.93 168.70 764.32 167.91
  Q 763.43 167.84 760.33 166.97
  Q 757.84 166.27 755.22 167.09
  Q 754.76 167.23 754.26 167.14
  Q 751.80 166.69 749.89 168.17
  A 1.00 0.86 -52.6 0 1 749.02 168.35
  Q 745.69 167.23 749.89 166.03
  Q 751.29 165.63 749.95 165.07
  Q 747.75 164.14 745.47 163.46
  Q 744.57 163.19 744.00 163.37
  Q 743.04 163.67 743.02 164.69
  A 0.92 0.84 16.8 0 0 743.48 165.46
  Q 744.39 165.98 745.44 166.05
  A 1.12 0.74 -7.3 0 1 746.25 166.45
  Q 746.56 166.95 746.33 167.37
  A 1.03 0.69 9.1 0 1 745.50 167.75
  Q 742.50 167.78 739.50 167.88
  Q 737.58 167.94 733.58 168.71
  Q 728.72 169.65 723.80 168.92
  Q 719.88 168.33 718.79 168.23
  Q 716.27 168.00 713.75 167.69
  Q 713.08 167.61 710.74 167.53
  Q 709.20 167.48 707.73 167.09
  Q 706.78 166.83 704.66 165.25
  Q 702.34 163.52 699.30 163.98
  Q 698.81 164.05 699.15 164.44
  Q 702.48 168.33 697.74 168.56
  Q 695.54 168.66 695.39 168.68
  Q 687.08 169.43 678.80 168.58
  Q 678.62 168.56 673.20 168.33
  Q 667.24 168.07 662.63 164.08
  A 1.60 1.13 58.0 0 0 661.75 163.71
  Q 660.57 163.68 659.63 164.42
  A 0.51 0.48 51.8 0 0 659.57 165.13
  Q 662.06 168.19 658.54 168.29
  Q 656.45 168.35 655.97 168.41
  Q 642.63 169.99 629.43 167.31
  A 2.46 2.46 -89.5 0 1 627.50 165.34
  Q 627.20 163.68 625.02 164.33
  Q 623.70 164.72 622.65 164.05
  A 1.43 0.82 44.7 0 0 621.74 163.81
  Q 620.82 163.99 621.39 164.65
  A 1.06 0.77 -17.9 0 0 622.24 164.93
  Q 624.29 164.72 624.07 166.46
  A 2.01 2.00 -0.6 0 1 622.37 168.19
  Q 617.49 168.91 613.59 169.14
  Q 611.24 169.28 606.95 168.72
  Q 603.62 168.28 600.25 168.25
  Q 598.09 168.23 592.66 166.47
  A 1.35 1.16 81.7 0 1 591.97 165.87
  Q 590.99 164.05 589.19 164.79
  A 0.52 0.44 66.7 0 0 588.99 165.45
  Q 589.62 166.78 588.78 167.82
  A 1.43 1.06 8.3 0 1 587.95 168.27
  Q 577.82 169.99 571.25 169.00
  Q 565.08 168.07 558.91 167.12
  Q 558.69 167.08 558.23 167.15
  Q 557.58 167.25 557.65 166.50
  A 1.16 0.82 -19.2 0 1 558.19 165.75
  Q 559.96 164.63 557.02 164.11
  Q 553.88 163.55 556.21 166.85
  A 0.98 0.98 -21.9 0 1 555.55 168.38
  Q 542.74 170.32 530.99 167.30
  Q 529.77 166.99 528.81 166.18
  Q 525.26 163.23 524.81 165.50
  A 1.22 0.71 41.7 0 0 525.09 166.35
  Q 525.49 166.87 525.17 167.34
  Q 524.93 167.71 524.19 167.90
  Q 515.26 170.20 506.23 168.50
  Q 506.09 168.47 503.75 168.23
  Q 500.62 167.91 499.56 164.67
  A 1.36 1.35 83.3 0 0 498.40 163.74
  L 493.24 163.28
  Q 492.76 163.24 492.33 162.98
  Q 490.15 161.65 491.53 164.26
  Q 493.28 167.54 490.50 167.96
  Q 488.17 168.31 487.58 168.49
  Q 482.99 169.88 478.21 168.98
  Q 473.99 168.18 468.02 167.22
  A 1.37 1.36 10.8 0 1 466.90 165.58
  Q 467.07 164.76 465.80 164.36
  Q 462.28 163.24 463.98 166.08
  A 1.18 0.88 44.5 0 1 464.12 166.98
  Q 463.64 168.34 462.01 168.57
  Q 449.47 170.39 437.39 166.55
  A 0.59 0.58 -59.5 0 1 437.15 165.59
  Q 438.42 164.23 436.55 163.84
  Q 435.62 163.64 435.47 163.60
  Q 431.87 162.71 432.76 165.69
  A 1.78 1.77 -16.4 0 1 431.55 167.90
  Q 424.84 169.86 419.60 168.81
  Q 418.15 168.52 415.33 168.31
  Q 412.85 168.13 410.73 166.73
  A 0.92 0.79 -73.3 0 1 410.37 165.93
  Q 410.56 163.39 407.92 163.84
  Q 407.50 163.91 406.96 163.78
  Q 405.85 163.51 405.29 164.37
  A 1.18 0.81 59.1 0 0 405.23 165.28
  Q 406.14 168.14 403.31 168.46
  Q 401.32 168.69 401.21 168.71
  Q 398.34 169.25 395.42 169.31
  Q 393.27 169.35 389.72 168.40
  Q 386.45 167.52 383.08 167.17
  Q 381.28 166.98 379.09 167.80
  Q 371.84 170.51 364.08 168.63
  Q 362.04 168.14 356.50 167.50
  Q 354.89 167.32 354.51 165.56
  A 1.07 0.88 -87.0 0 0 353.98 164.84
  Q 351.16 163.55 352.76 166.51
  A 1.12 1.12 69.6 0 1 352.02 168.13
  Q 341.37 170.50 330.75 167.00
  Q 328.17 166.15 327.44 165.31
  Q 325.35 162.93 324.89 166.96
  A 1.21 1.21 -4.2 0 1 323.99 168.00
  Q 320.25 169.00 316.41 169.22
  Q 313.76 169.36 309.66 168.54
  Q 306.32 167.87 302.95 167.36
  Q 302.10 167.23 301.75 166.74
  Q 301.32 166.13 301.37 165.30
  A 0.67 0.51 -83.1 0 0 300.98 164.64
  Q 299.63 164.30 300.29 167.03
  A 1.27 1.26 77.8 0 1 299.30 168.57
  Q 295.05 169.39 291.07 169.30
  Q 288.97 169.26 284.37 168.30
  Q 281.52 167.71 277.70 167.08
  A 1.11 1.10 -83.2 0 1 276.78 165.90
  Q 276.93 163.97 274.01 164.01
  A 1.19 1.19 77.7 0 0 272.94 165.68
  Q 273.61 167.18 272.10 167.68
  Q 271.12 168.00 271.06 168.03
  Q 267.54 169.46 263.79 169.38
  Q 262.74 169.35 260.35 168.53
  Q 258.57 167.91 256.75 168.00
  Q 253.40 168.17 251.23 166.02
  Q 250.95 165.74 250.55 164.82
  Q 250.08 163.71 248.91 164.45
  A 0.86 0.74 72.8 0 0 248.57 165.24
  Q 248.93 168.37 245.75 168.73
  Q 235.68 169.88 226.05 166.84
  A 0.52 0.49 -73.6 0 1 225.73 166.21
  Q 226.04 165.10 225.49 164.21
  A 0.95 0.95 73.8 0 0 224.68 163.76
  Q 223.61 163.74 223.33 164.76
  A 1.59 0.67 58.6 0 0 223.47 165.69
  Q 223.84 166.63 223.35 167.43
  Q 222.98 168.04 222.02 168.26
  Q 217.81 169.22 211.75 168.75
  Q 205.98 168.31 200.24 167.56
  A 1.40 1.22 -55.4 0 0 199.34 167.79
  Q 197.53 169.00 195.39 169.07
  Q 192.71 169.16 192.62 169.17
  Q 188.79 169.54 185.00 168.75
  Q 182.97 168.33 176.50 167.79
  A 1.75 1.49 -53.5 0 0 175.56 168.01
  Q 173.62 169.08 171.43 169.10
  Q 168.63 169.12 168.58 169.12
  Q 161.30 169.72 159.81 169.19
  Q 155.77 167.74 151.50 167.52
  A 1.75 1.42 -54.8 0 0 150.58 167.78
  Q 148.41 169.16 145.87 169.14
  Q 142.73 169.13 142.62 169.13
  Q 136.21 169.52 130.00 167.76
  Q 127.44 167.03 125.40 168.45
  Q 124.96 168.76 124.51 168.80
  Q 113.50 169.78 102.74 167.36
  A 1.00 0.89 -58.3 0 0 101.90 167.61
  Q 100.44 168.99 98.00 169.00
  Q 88.12 169.03 81.13 168.31
  Q 80.90 168.28 79.11 167.66
  Q 77.83 167.22 76.81 168.36
  A 1.34 1.08 -67.1 0 1 76.01 168.79
  Q 65.08 169.64 54.31 167.66
  A 1.08 0.99 -58.2 0 0 53.45 167.90
  Q 52.38 168.79 50.94 168.96
  Q 40.41 170.21 30.30 167.17
  Q 30.11 167.11 29.17 166.90
  Q 27.52 166.51 28.75 165.58
  Q 28.99 165.40 29.83 165.05
  Q 31.54 164.34 29.02 163.42
  A 1.93 1.91 -9.4 0 1 28.20 162.84
  Q 25.72 159.85 26.73 162.92
  Q 27.65 165.74 25.46 167.06
  Q 24.28 167.77 24.01 167.96
  Q 23.08 168.61 22.44 168.69
  Q 15.30 169.55 8.00 167.08
  Q 5.37 166.19 3.68 168.39
  Q 2.99 169.30 -0.01 169.92
  L 0.00 0.00
  Z"
/>
<path fill="#f9f9f9" d="
  M 787.00 170.06
  L 787.00 186.00
  L 0.00 186.00
  L -0.01 169.92
  Q 2.99 169.30 3.68 168.39
  Q 5.37 166.19 8.00 167.08
  Q 15.30 169.55 22.44 168.69
  Q 23.08 168.61 24.01 167.96
  Q 24.28 167.77 25.46 167.06
  Q 27.65 165.74 26.73 162.92
  Q 25.72 159.85 28.20 162.84
  A 1.93 1.91 -9.4 0 0 29.02 163.42
  Q 31.54 164.34 29.83 165.05
  Q 28.99 165.40 28.75 165.58
  Q 27.52 166.51 29.17 166.90
  Q 30.11 167.11 30.30 167.17
  Q 40.41 170.21 50.94 168.96
  Q 52.38 168.79 53.45 167.90
  A 1.08 0.99 -58.2 0 1 54.31 167.66
  Q 65.08 169.64 76.01 168.79
  A 1.34 1.08 -67.1 0 0 76.81 168.36
  Q 77.83 167.22 79.11 167.66
  Q 80.90 168.28 81.13 168.31
  Q 88.12 169.03 98.00 169.00
  Q 100.44 168.99 101.90 167.61
  A 1.00 0.89 -58.3 0 1 102.74 167.36
  Q 113.50 169.78 124.51 168.80
  Q 124.96 168.76 125.40 168.45
  Q 127.44 167.03 130.00 167.76
  Q 136.21 169.52 142.62 169.13
  Q 142.73 169.13 145.87 169.14
  Q 148.41 169.16 150.58 167.78
  A 1.75 1.42 -54.8 0 1 151.50 167.52
  Q 155.77 167.74 159.81 169.19
  Q 161.30 169.72 168.58 169.12
  Q 168.63 169.12 171.43 169.10
  Q 173.62 169.08 175.56 168.01
  A 1.75 1.49 -53.5 0 1 176.50 167.79
  Q 182.97 168.33 185.00 168.75
  Q 188.79 169.54 192.62 169.17
  Q 192.71 169.16 195.39 169.07
  Q 197.53 169.00 199.34 167.79
  A 1.40 1.22 -55.4 0 1 200.24 167.56
  Q 205.98 168.31 211.75 168.75
  Q 217.81 169.22 222.02 168.26
  Q 222.98 168.04 223.35 167.43
  Q 223.84 166.63 223.47 165.69
  A 1.59 0.67 58.6 0 1 223.33 164.76
  Q 223.61 163.74 224.68 163.76
  A 0.95 0.95 73.9 0 1 225.49 164.21
  Q 226.04 165.10 225.73 166.21
  A 0.52 0.49 -73.6 0 0 226.05 166.84
  Q 235.68 169.88 245.75 168.73
  Q 248.93 168.37 248.57 165.24
  A 0.86 0.74 72.8 0 1 248.91 164.45
  Q 250.08 163.71 250.55 164.82
  Q 250.95 165.74 251.23 166.02
  Q 253.40 168.17 256.75 168.00
  Q 258.57 167.91 260.35 168.53
  Q 262.74 169.35 263.79 169.38
  Q 267.54 169.46 271.06 168.03
  Q 271.12 168.00 272.10 167.68
  Q 273.61 167.18 272.94 165.68
  A 1.19 1.19 77.7 0 1 274.01 164.01
  Q 276.93 163.97 276.78 165.90
  A 1.11 1.10 -83.2 0 0 277.70 167.08
  Q 281.52 167.71 284.37 168.30
  Q 288.97 169.26 291.07 169.30
  Q 295.05 169.39 299.30 168.57
  A 1.27 1.26 77.8 0 0 300.29 167.03
  Q 299.63 164.30 300.98 164.64
  A 0.67 0.51 -83.1 0 1 301.37 165.30
  Q 301.32 166.13 301.75 166.74
  Q 302.10 167.23 302.95 167.36
  Q 306.32 167.87 309.66 168.54
  Q 313.76 169.36 316.41 169.22
  Q 320.25 169.00 323.99 168.00
  A 1.21 1.21 -4.2 0 0 324.89 166.96
  Q 325.35 162.93 327.44 165.31
  Q 328.17 166.15 330.75 167.00
  Q 341.37 170.50 352.02 168.13
  A 1.12 1.12 69.6 0 0 352.76 166.51
  Q 351.16 163.55 353.98 164.84
  A 1.07 0.88 -87.0 0 1 354.51 165.56
  Q 354.89 167.32 356.50 167.50
  Q 362.04 168.14 364.08 168.63
  Q 371.84 170.51 379.09 167.80
  Q 381.28 166.98 383.08 167.17
  Q 386.45 167.52 389.72 168.40
  Q 393.27 169.35 395.42 169.31
  Q 398.34 169.25 401.21 168.71
  Q 401.32 168.69 403.31 168.46
  Q 406.14 168.14 405.23 165.28
  A 1.18 0.81 59.1 0 1 405.29 164.37
  Q 405.85 163.51 406.96 163.78
  Q 407.50 163.91 407.92 163.84
  Q 410.56 163.39 410.37 165.93
  A 0.92 0.79 -73.3 0 0 410.73 166.73
  Q 412.85 168.13 415.33 168.31
  Q 418.15 168.52 419.60 168.81
  Q 424.84 169.86 431.55 167.90
  A 1.78 1.77 -16.4 0 0 432.76 165.69
  Q 431.87 162.71 435.47 163.60
  Q 435.62 163.64 436.55 163.84
  Q 438.42 164.23 437.15 165.59
  A 0.59 0.58 -59.5 0 0 437.39 166.55
  Q 449.47 170.39 462.01 168.57
  Q 463.64 168.34 464.12 166.98
  A 1.18 0.88 44.5 0 0 463.98 166.08
  Q 462.28 163.24 465.80 164.36
  Q 467.07 164.76 466.90 165.58
  A 1.37 1.36 10.8 0 0 468.02 167.22
  Q 473.99 168.18 478.21 168.98
  Q 482.99 169.88 487.58 168.49
  Q 488.17 168.31 490.50 167.96
  Q 493.28 167.54 491.53 164.26
  Q 490.15 161.65 492.33 162.98
  Q 492.76 163.24 493.24 163.28
  L 498.40 163.74
  A 1.36 1.35 83.3 0 1 499.56 164.67
  Q 500.62 167.91 503.75 168.23
  Q 506.09 168.47 506.23 168.50
  Q 515.26 170.20 524.19 167.90
  Q 524.93 167.71 525.17 167.34
  Q 525.49 166.87 525.09 166.35
  A 1.22 0.71 41.7 0 1 524.81 165.50
  Q 525.26 163.23 528.81 166.18
  Q 529.77 166.99 530.99 167.30
  Q 542.74 170.32 555.55 168.38
  A 0.98 0.98 -21.9 0 0 556.21 166.85
  Q 553.88 163.55 557.02 164.11
  Q 559.96 164.63 558.19 165.75
  A 1.16 0.82 -19.2 0 0 557.65 166.50
  Q 557.58 167.25 558.23 167.15
  Q 558.69 167.08 558.91 167.12
  Q 565.08 168.07 571.25 169.00
  Q 577.82 169.99 587.95 168.27
  A 1.43 1.06 8.3 0 0 588.78 167.82
  Q 589.62 166.78 588.99 165.45
  A 0.52 0.44 66.7 0 1 589.19 164.79
  Q 590.99 164.05 591.97 165.87
  A 1.35 1.16 81.7 0 0 592.66 166.47
  Q 598.09 168.23 600.25 168.25
  Q 603.62 168.28 606.95 168.72
  Q 611.24 169.28 613.59 169.14
  Q 617.49 168.91 622.37 168.19
  A 2.01 2.00 -0.6 0 0 624.07 166.46
  Q 624.29 164.72 622.24 164.93
  A 1.06 0.77 -17.9 0 1 621.39 164.65
  Q 620.82 163.99 621.74 163.81
  A 1.43 0.82 44.7 0 1 622.65 164.05
  Q 623.70 164.72 625.02 164.33
  Q 627.20 163.68 627.50 165.34
  A 2.46 2.46 -89.5 0 0 629.43 167.31
  Q 642.63 169.99 655.97 168.41
  Q 656.45 168.35 658.54 168.29
  Q 662.06 168.19 659.57 165.13
  A 0.51 0.48 51.8 0 1 659.63 164.42
  Q 660.57 163.68 661.75 163.71
  A 1.60 1.13 58.0 0 1 662.63 164.08
  Q 667.24 168.07 673.20 168.33
  Q 678.62 168.56 678.80 168.58
  Q 687.08 169.43 695.39 168.68
  Q 695.54 168.66 697.74 168.56
  Q 702.48 168.33 699.15 164.44
  Q 698.81 164.05 699.30 163.98
  Q 702.34 163.52 704.66 165.25
  Q 706.78 166.83 707.73 167.09
  Q 709.20 167.48 710.74 167.53
  Q 713.08 167.61 713.75 167.69
  Q 716.27 168.00 718.79 168.23
  Q 719.88 168.33 723.80 168.92
  Q 728.72 169.65 733.58 168.71
  Q 737.58 167.94 739.50 167.88
  Q 742.50 167.78 745.50 167.75
  A 1.03 0.69 9.1 0 0 746.33 167.37
  Q 746.56 166.95 746.25 166.45
  A 1.12 0.74 -7.3 0 0 745.44 166.05
  Q 744.39 165.98 743.48 165.46
  A 0.92 0.84 16.8 0 1 743.02 164.69
  Q 743.04 163.67 744.00 163.37
  Q 744.57 163.19 745.47 163.46
  Q 747.75 164.14 749.95 165.07
  Q 751.29 165.63 749.89 166.03
  Q 745.69 167.23 749.02 168.35
  A 1.00 0.86 -52.6 0 0 749.89 168.17
  Q 751.80 166.69 754.26 167.14
  Q 754.76 167.23 755.22 167.09
  Q 757.84 166.27 760.33 166.97
  Q 763.43 167.84 764.32 167.91
  Q 774.93 168.70 785.56 169.05
  A 1.28 0.71 -8.4 0 1 786.44 169.38
  L 787.00 170.06
  Z"
/>
<path fill="#036a74" d="
  M 49.44 149.56
  Q 43.83 147.79 42.03 147.12
  A 1.19 1.13 87.5 0 1 41.37 146.48
  Q 30.04 119.73 18.88 92.91
  Q 18.84 92.83 18.00 91.14
  Q 16.74 88.63 17.79 85.99
  Q 18.55 84.04 18.58 83.95
  Q 30.40 46.23 42.15 8.82
  A 1.42 1.42 -83.3 0 1 43.40 7.83
  Q 87.63 4.52 130.75 1.25
  Q 134.34 0.98 136.01 1.62
  Q 156.28 9.42 176.26 17.07
  A 1.53 1.50 -0.7 0 1 177.10 17.87
  Q 189.20 45.15 201.30 72.22
  Q 202.15 74.12 201.74 75.80
  Q 201.40 77.22 200.69 79.44
  Q 188.87 116.58 177.08 153.24
  A 1.28 1.27 6.5 0 1 175.97 154.12
  Q 131.29 157.57 88.21 160.80
  Q 85.50 161.00 82.91 160.18
  Q 66.18 154.86 49.44 149.56
  Z"
/>
<g fill="#04292a">
<path d="
  M 295.69 87.01
  L 295.75 44.06
  A 0.56 0.55 -90.0 0 1 296.30 43.50
  L 311.69 43.50
  A 0.81 0.81 0.0 0 1 312.50 44.31
  L 312.50 122.30
  Q 312.50 122.81 312.11 122.48
  L 259.82 77.43
  Q 258.95 76.68 258.94 77.83
  L 258.57 119.82
  A 0.52 0.51 -89.4 0 1 258.06 120.33
  L 242.76 120.49
  A 0.52 0.51 -90.0 0 1 242.25 119.97
  L 242.25 41.82
  Q 242.25 41.07 242.81 41.57
  L 294.85 87.38
  Q 295.69 88.13 295.69 87.01
  Z"
/>
<path d="
  M 679.39 109.17
  L 673.99 120.01
  A 0.90 0.87 12.7 0 1 673.19 120.50
  L 656.23 120.50
  A 0.55 0.54 13.9 0 1 655.74 119.70
  L 697.58 41.57
  Q 697.82 41.12 698.06 41.57
  L 739.99 119.81
  A 0.47 0.47 75.8 0 1 739.58 120.50
  L 722.63 120.50
  A 1.03 1.03 76.1 0 1 721.72 119.95
  L 715.95 108.94
  A 0.82 0.81 76.0 0 0 715.23 108.50
  L 680.46 108.50
  A 1.20 1.19 -76.8 0 0 679.39 109.17
  Z"
/>
<rect x="628.25" y="43.48" width="16.74" height="77.02" rx="0.37"/>
<path d="
  M 415.21 67.38
  Q 421.42 62.58 428.00 61.75
  Q 439.74 60.27 448.40 68.89
  A 0.52 0.52 47.0 0 0 449.12 68.92
  Q 460.81 58.71 476.50 62.75
  Q 480.44 63.76 483.43 66.01
  Q 486.18 68.07 488.17 71.75
  Q 491.76 78.40 491.75 86.25
  Q 491.75 102.50 491.75 119.73
  A 0.72 0.69 90.0 0 1 491.06 120.45
  L 476.44 120.34
  A 0.52 0.51 -89.4 0 1 475.94 119.82
  Q 476.17 104.33 475.86 88.85
  Q 475.72 82.31 474.43 79.86
  Q 472.03 75.30 465.75 74.77
  Q 459.04 74.22 455.81 79.06
  Q 453.35 82.75 453.43 88.16
  Q 453.47 91.31 453.47 91.34
  Q 453.20 105.58 453.44 119.99
  A 0.50 0.50 89.4 0 1 452.94 120.50
  L 438.38 120.50
  A 0.89 0.89 -89.7 0 1 437.49 119.60
  Q 437.67 101.62 437.25 84.50
  Q 437.12 79.10 433.07 76.56
  Q 429.76 74.49 425.13 74.93
  Q 418.43 75.56 416.14 81.57
  Q 415.10 84.29 414.92 91.70
  Q 414.58 105.37 414.76 119.75
  A 0.74 0.74 89.6 0 1 414.02 120.50
  L 399.66 120.50
  A 0.66 0.66 0.2 0 1 399.00 119.84
  L 399.00 63.16
  A 0.66 0.66 -0.2 0 1 399.66 62.50
  L 414.07 62.50
  A 0.71 0.69 -90.0 0 1 414.76 63.21
  L 414.79 67.19
  Q 414.79 67.70 415.21 67.38
  Z"
/>
<path d="
  M 596.06 69.60
  Q 596.07 70.22 596.49 69.76
  Q 603.33 62.34 614.91 61.67
  A 1.03 1.02 88.2 0 1 616.00 62.70
  L 616.00 75.93
  A 0.82 0.82 -0.0 0 1 615.18 76.75
  Q 608.67 76.73 603.06 80.06
  Q 599.55 82.15 597.73 86.23
  Q 596.53 88.93 596.29 93.97
  Q 595.71 106.38 596.03 119.70
  A 0.78 0.78 89.3 0 1 595.25 120.50
  L 580.77 120.50
  A 0.52 0.52 -90.0 0 1 580.25 119.98
  L 580.25 63.16
  A 0.66 0.66 -89.5 0 1 580.91 62.50
  L 595.33 62.50
  A 0.70 0.68 89.6 0 1 596.01 63.19
  L 596.06 69.60
  Z"
/>
<path d="
  M 521.68 98.29
  Q 523.47 105.01 531.00 107.00
  Q 543.40 110.28 551.72 101.92
  A 0.66 0.64 -52.5 0 1 552.51 101.80
  L 563.78 108.23
  A 0.46 0.45 -55.7 0 1 563.90 108.91
  Q 556.45 118.39 545.00 121.00
  Q 534.17 123.47 522.99 118.76
  Q 508.20 112.53 506.13 96.48
  Q 503.88 79.05 515.22 69.63
  Q 522.77 63.36 532.97 61.95
  Q 543.37 60.50 552.94 65.81
  Q 564.05 71.98 566.75 84.25
  Q 568.08 90.28 567.25 96.95
  A 0.58 0.55 3.4 0 1 566.68 97.43
  L 522.05 97.80
  A 0.39 0.39 -8.1 0 0 521.68 98.29
  Z"
/>
<path d="
  M 367.06 115.89
  Q 361.02 121.10 354.25 121.50
  Q 336.38 122.57 331.20 109.23
  Q 329.27 104.23 329.07 90.53
  Q 328.87 77.33 329.01 63.67
  A 0.93 0.92 -89.7 0 1 329.93 62.75
  L 344.44 62.75
  A 0.56 0.56 0.0 0 1 345.00 63.31
  Q 345.00 80.63 345.06 97.75
  Q 345.08 103.16 348.61 106.02
  Q 351.59 108.44 356.41 108.22
  Q 364.19 107.87 366.53 101.01
  Q 367.50 98.17 367.50 89.87
  Q 367.50 76.67 367.50 63.42
  A 0.67 0.67 -0.4 0 1 368.17 62.75
  L 382.74 62.75
  A 0.52 0.51 90.0 0 1 383.25 63.27
  L 383.31 119.98
  A 0.51 0.51 89.4 0 1 382.80 120.50
  L 368.20 120.50
  A 0.73 0.71 89.6 0 1 367.49 119.78
  L 367.46 116.06
  Q 367.46 115.55 367.06 115.89
  Z"
/>
<ellipse cx="0.00" cy="0.00" transform="translate(752.23,112.90) rotate(0.9)" rx="8.56" ry="8.21"/>
</g>
<clipPath id="clipping-path-1">
<path d="
  M 131.00 3.21
  Q 131.58 3.24 131.79 3.75
  L 113.85 20.78
  Q 112.61 21.96 114.30 21.83
  L 126.58 20.91
  A 1.17 1.13 -83.0 0 0 127.58 20.10
  L 132.54 4.00
  Q 133.16 2.51 131.50 2.54
  Q 130.83 2.32 128.50 2.50
  Q 87.66 5.66 46.80 8.81
  Q 45.09 8.95 46.69 9.56
  Q 63.75 16.12 80.81 22.69
  Q 83.57 23.75 85.75 23.91
  Q 85.88 23.91 90.74 23.58
  Q 99.99 22.94 110.08 22.17
  A 2.51 2.49 -68.7 0 0 111.59 21.50
  L 131.00 3.21
  Z"/>
</clipPath>
<g stroke-width="5.00" fill="none" stroke-linecap="butt" clip-path="url(#clipping-path-1)">
<path stroke="#81b5ba" d="
  M 131.50 2.54
  L 131.00 3.21"
/>
<path stroke="#81b5ba" d="
  M 132.54 4.00
  Q 132.29 3.60 131.79 3.75"
/>
</g>
<g fill="#fefefe">
<path d="
  M 179.81 95.80
  Q 189.66 86.65 199.15 77.94
  Q 200.61 76.60 200.00 78.48
  L 176.57 151.04
  Q 176.22 152.11 175.78 151.07
  L 160.45 114.96
  A 0.73 0.73 -33.9 0 1 160.61 114.15
  Q 170.08 104.83 179.81 95.80
  Z"
/>
<path d="
  M 113.53 84.71
  Q 112.64 83.76 111.86 82.72
  Q 111.55 82.31 112.03 82.49
  L 150.70 97.07
  A 0.43 0.43 -56.3 0 1 150.84 97.78
  L 137.87 110.15
  A 0.50 0.50 -43.0 0 1 137.16 110.13
  Q 125.46 97.31 113.53 84.71
  Z"
/>
<path d="
  M 122.60 123.45
  L 103.90 103.53
  A 0.90 0.84 -59.7 0 1 103.71 102.69
  L 109.39 83.36
  Q 109.68 82.40 110.08 83.31
  Q 118.26 101.69 126.18 119.10
  Q 126.67 120.16 126.49 120.85
  Q 126.24 121.80 125.26 122.35
  Q 124.86 122.57 124.54 122.99
  Q 124.09 123.56 123.44 123.74
  A 0.94 0.78 58.8 0 1 122.60 123.45
  Z"
/>
<path d="
  M 85.20 104.20
  Q 71.76 117.27 58.80 129.60
  A 1.36 1.26 46.8 0 1 56.93 129.47
  L 50.63 122.59
  A 0.97 0.75 35.4 0 1 50.38 121.77
  L 61.16 86.04
  A 0.73 0.73 5.8 0 1 61.80 85.52
  L 83.25 83.79
  A 1.10 1.03 -23.2 0 1 84.10 84.10
  L 93.92 94.63
  A 0.55 0.52 -45.0 0 1 93.90 95.37
  Q 89.65 99.88 85.20 104.20
  Z"
/>
<path d="
  M 135.67 110.05
  Q 136.06 110.35 136.30 110.79
  A 0.71 0.64 -37.5 0 1 136.15 111.60
  L 128.15 119.48
  A 0.53 0.52 55.9 0 1 127.30 119.31
  Q 119.96 102.59 112.56 86.19
  Q 112.30 85.60 112.48 85.40
  A 0.71 0.37 46.2 0 1 113.26 85.66
  Q 123.98 97.36 134.59 109.16
  Q 134.69 109.27 135.67 110.05
  Z"
/>
<path d="
  M 49.29 120.38
  A 0.41 0.40 -57.2 0 1 48.61 120.53
  L 19.26 89.73
  Q 18.65 89.10 19.52 89.03
  L 59.19 85.85
  A 0.35 0.35 5.2 0 1 59.56 86.29
  Q 55.09 103.10 49.29 120.38
  Z"
/>
<path d="
  M 48.83 123.01
  L 42.41 143.47
  Q 41.92 145.04 41.28 143.53
  L 19.52 92.06
  Q 19.00 90.82 19.93 91.80
  L 48.63 122.15
  A 0.88 0.87 -58.3 0 1 48.83 123.01
  Z"
/>
<path d="
  M 144.85 104.85
  Q 148.03 101.77 151.85 98.59
  A 0.40 0.39 -31.1 0 1 152.47 98.73
  L 158.59 113.78
  A 0.76 0.71 -33.3 0 1 158.39 114.60
  L 149.63 122.66
  A 0.53 0.51 -43.1 0 1 148.89 122.65
  L 138.78 111.62
  A 0.60 0.57 -44.0 0 1 138.82 110.81
  Q 142.06 107.56 144.85 104.85
  Z"
/>
<path d="
  M 146.58 122.09
  Q 147.23 122.72 147.89 123.66
  A 0.59 0.58 50.6 0 1 147.82 124.43
  L 135.47 136.14
  A 0.37 0.36 -33.9 0 1 134.88 136.03
  L 128.41 121.69
  A 1.13 1.11 -33.9 0 1 128.67 120.42
  L 137.15 112.35
  A 0.47 0.47 46.6 0 1 137.83 112.37
  Q 141.56 116.47 145.16 120.67
  Q 145.28 120.81 146.58 122.09
  Z"
/>
<path d="
  M 124.69 125.46
  A 0.72 0.66 45.7 0 1 124.66 124.51
  L 126.81 122.24
  A 0.46 0.37 56.5 0 1 127.46 122.45
  L 132.51 133.21
  Q 133.32 134.96 132.04 133.54
  L 124.69 125.46
  Z"
/>
</g>
<g fill="#ffffff">
<path d="
  M 131.50 2.54
  L 131.00 3.21
  L 111.59 21.50
  A 2.51 2.49 -68.7 0 1 110.08 22.17
  Q 99.99 22.94 90.74 23.58
  Q 85.88 23.91 85.75 23.91
  Q 83.57 23.75 80.81 22.69
  Q 63.75 16.12 46.69 9.56
  Q 45.09 8.95 46.80 8.81
  Q 87.66 5.66 128.50 2.50
  Q 130.83 2.32 131.50 2.54
  Z"
/>
<path d="
  M 148.19 18.40
  Q 148.95 19.22 147.83 19.30
  L 129.31 20.65
  A 0.38 0.37 -85.9 0 1 128.92 20.19
  Q 130.68 12.26 133.84 3.58
  A 0.32 0.32 -56.4 0 1 134.37 3.47
  L 148.19 18.40
  Z"
/>
<path d="
  M 172.45 16.74
  Q 174.07 17.35 172.34 17.47
  L 151.43 19.02
  A 1.67 1.61 -22.9 0 1 150.10 18.51
  L 136.30 3.68
  Q 135.59 2.91 136.58 3.28
  L 172.45 16.74
  Z"
/>
<path d="
  M 131.79 3.75
  Q 132.29 3.60 132.54 4.00
  L 127.58 20.10
  A 1.17 1.13 -83.0 0 1 126.58 20.91
  L 114.30 21.83
  Q 112.61 21.96 113.85 20.78
  L 131.79 3.75
  Z"
/>
<path d="
  M 58.06 24.43
  Q 51.56 17.38 45.69 10.99
  Q 44.63 9.85 46.09 10.41
  L 82.68 24.46
  A 0.56 0.56 -56.1 0 1 82.86 25.39
  L 70.83 37.04
  A 0.68 0.66 -43.8 0 1 69.88 37.03
  Q 63.70 30.53 58.06 24.43
  Z"
/>
<path d="
  M 40.32 18.40
  Q 41.43 14.89 42.72 11.36
  Q 43.17 10.12 43.68 11.34
  L 58.96 47.40
  A 1.15 1.15 56.5 0 1 58.70 48.68
  L 20.32 85.45
  Q 18.60 87.11 19.32 84.83
  Q 29.92 51.33 40.32 18.40
  Z"
/>
<path d="
  M 48.62 15.64
  Q 58.84 26.81 69.16 37.89
  A 0.50 0.50 -0.0 0 1 69.14 38.59
  L 60.68 46.67
  A 0.59 0.58 -33.5 0 1 59.73 46.48
  L 45.73 13.45
  Q 44.96 11.64 46.29 13.09
  Q 47.19 14.07 48.62 15.64
  Z"
/>
<path d="
  M 171.23 22.24
  Q 166.74 26.54 161.89 30.43
  A 0.54 0.53 -41.3 0 1 161.16 30.39
  L 152.05 20.68
  Q 151.47 20.06 152.32 20.00
  L 174.17 18.45
  Q 174.69 18.41 174.36 18.81
  Q 172.70 20.83 171.23 22.24
  Z"
/>
<path d="
  M 189.03 60.46
  Q 179.69 50.52 170.59 40.37
  A 0.89 0.87 -58.5 0 1 170.40 39.53
  L 175.99 20.69
  Q 176.50 18.98 177.21 20.60
  L 199.26 70.27
  Q 200.10 72.17 198.67 70.66
  Q 193.87 65.62 189.03 60.46
  Z"
/>
<path d="
  M 124.06 65.93
  L 117.38 58.82
  A 0.93 0.83 -60.1 0 1 117.20 57.96
  L 128.04 22.42
  A 0.75 0.74 -83.5 0 1 128.69 21.89
  L 149.75 20.28
  A 1.10 0.96 63.5 0 1 150.58 20.62
  L 160.37 31.12
  A 0.88 0.86 46.4 0 1 160.35 32.34
  L 124.93 65.93
  A 0.64 0.60 -43.3 0 1 124.06 65.93
  Z"
/>
<path d="
  M 172.98 27.87
  Q 171.33 33.04 169.74 38.27
  A 0.66 0.64 31.7 0 1 168.65 38.51
  L 162.74 32.36
  A 0.70 0.70 -43.9 0 1 162.76 31.36
  L 173.92 20.71
  Q 175.20 19.48 174.80 21.20
  Q 173.96 24.82 172.98 27.87
  Z"
/>
<path d="
  M 111.10 23.92
  A 3.70 3.36 19.4 0 1 113.28 23.00
  L 126.63 22.01
  A 0.37 0.36 -83.3 0 1 127.00 22.49
  L 116.67 56.39
  A 0.82 0.82 -57.9 0 1 115.29 56.71
  L 97.37 37.76
  A 0.73 0.70 46.7 0 1 97.38 36.75
  L 111.10 23.92
  Z"
/>
<path d="
  M 95.97 35.83
  L 86.49 25.74
  Q 85.93 25.14 86.76 25.08
  L 108.60 23.43
  Q 109.91 23.33 108.93 24.25
  L 96.82 35.81
  A 0.63 0.56 -43.3 0 1 95.97 35.83
  Z"
/>
<path d="
  M 82.15 27.75
  Q 82.74 27.19 83.01 26.71
  Q 84.09 24.77 85.10 27.17
  Q 87.66 33.29 90.80 40.10
  A 1.33 1.30 56.3 0 1 90.52 41.61
  L 82.11 49.66
  A 0.50 0.47 46.2 0 1 81.42 49.62
  L 71.35 38.85
  A 0.53 0.49 46.2 0 1 71.34 38.13
  L 82.15 27.75
  Z"
/>
<path d="
  M 93.34 39.01
  Q 92.27 40.97 91.31 38.69
  Q 89.10 33.39 86.53 28.25
  Q 86.16 27.52 86.78 27.73
  Q 87.04 27.81 87.31 28.19
  Q 90.21 32.12 94.89 36.42
  A 0.68 0.61 36.4 0 1 95.05 37.20
  Q 94.68 37.90 94.01 38.33
  Q 93.56 38.61 93.34 39.01
  Z"
/>
<path d="
  M 136.64 56.30
  Q 148.53 44.74 161.16 33.01
  A 0.54 0.52 -43.0 0 1 161.90 33.02
  L 168.66 40.12
  A 0.92 0.88 -58.6 0 1 168.85 40.99
  L 158.05 76.63
  A 0.80 0.78 -83.1 0 1 157.34 77.20
  L 136.24 78.48
  A 1.08 1.02 -21.9 0 1 135.40 78.15
  L 125.63 67.45
  A 0.58 0.55 -44.7 0 1 125.66 66.69
  Q 128.29 63.96 131.09 61.42
  Q 135.15 57.75 136.64 56.30
  Z"
/>
<path d="
  M 115.27 58.46
  A 1.35 1.34 -57.9 0 1 115.56 59.75
  L 109.86 78.37
  Q 109.51 79.50 109.04 78.42
  Q 101.14 60.31 93.13 43.02
  Q 92.56 41.79 92.81 41.03
  Q 93.09 40.16 93.99 39.65
  Q 94.44 39.40 94.71 39.02
  Q 95.95 37.31 97.16 38.83
  Q 98.00 39.90 98.07 39.97
  Q 106.43 48.76 115.27 58.46
  Z"
/>
<path d="
  M 73.91 43.11
  Q 77.18 46.82 80.29 49.91
  A 1.06 1.04 -44.8 0 1 80.27 51.40
  L 67.89 63.48
  A 0.70 0.69 -33.6 0 1 66.76 63.26
  L 60.75 48.78
  A 0.75 0.71 57.7 0 1 60.91 47.95
  L 69.87 39.57
  A 0.54 0.51 45.8 0 1 70.60 39.60
  Q 72.31 41.30 73.91 43.11
  Z"
/>
<path d="
  M 176.24 48.03
  Q 186.96 59.59 197.64 71.20
  Q 198.04 71.64 199.10 72.56
  Q 201.53 74.67 197.77 74.56
  Q 196.45 74.52 195.74 74.57
  Q 178.10 75.85 159.68 77.05
  A 0.46 0.46 -83.4 0 1 159.21 76.45
  L 169.54 42.36
  A 0.64 0.63 31.2 0 1 170.60 42.10
  Q 173.41 44.98 176.24 48.03
  Z"
/>
<path d="
  M 106.89 77.06
  L 82.83 51.11
  A 0.50 0.49 -43.0 0 1 82.86 50.41
  L 91.12 42.55
  A 0.50 0.50 56.1 0 1 91.92 42.71
  L 107.28 76.79
  Q 107.88 78.13 106.89 77.06
  Z"
/>
<path d="
  M 37.88 70.00
  Q 48.39 59.60 59.32 49.65
  A 0.35 0.34 -33.0 0 1 59.88 49.76
  L 66.05 64.28
  A 1.48 1.26 45.3 0 1 66.12 65.23
  L 60.52 83.95
  A 1.02 0.98 5.4 0 1 59.64 84.65
  Q 42.68 86.17 26.75 87.39
  Q 26.71 87.39 23.76 87.74
  Q 21.79 87.97 19.87 87.76
  Q 19.41 87.71 19.74 87.39
  Q 24.27 82.84 28.78 78.66
  Q 34.30 73.55 37.88 70.00
  Z"
/>
<path d="
  M 106.27 78.16
  Q 107.71 79.71 105.73 78.96
  L 68.53 64.87
  A 0.33 0.32 33.5 0 1 68.41 64.33
  L 81.37 52.08
  A 0.52 0.50 47.0 0 1 82.10 52.12
  L 106.27 78.16
  Z"
/>
<path d="
  M 117.06 73.06
  Q 114.74 75.09 112.03 78.41
  A 0.65 0.36 -50.3 0 1 111.33 78.68
  Q 111.14 78.51 111.27 78.00
  Q 113.51 69.11 116.58 60.47
  A 0.32 0.32 -56.4 0 1 117.11 60.36
  L 123.11 66.69
  A 0.54 0.52 -45.0 0 1 123.10 67.42
  Q 120.91 69.71 117.06 73.06
  Z"
/>
<path d="
  M 79.07 78.46
  Q 80.81 80.20 82.17 82.27
  A 0.31 0.30 -19.1 0 1 81.93 82.74
  L 61.86 84.49
  A 0.37 0.35 -83.3 0 1 61.50 84.01
  L 66.68 67.11
  A 0.80 0.78 -58.5 0 1 68.00 66.78
  Q 71.54 70.50 75.28 74.68
  Q 75.47 74.90 79.07 78.46
  Z"
/>
<path d="
  M 71.24 68.77
  Q 70.31 67.94 69.49 66.99
  Q 68.73 66.11 69.81 66.52
  Q 83.99 71.91 98.21 77.32
  Q 98.25 77.34 101.84 78.54
  Q 103.94 79.24 105.88 80.32
  Q 106.35 80.58 105.81 80.62
  L 84.75 82.47
  A 1.10 1.03 64.4 0 1 83.90 82.14
  Q 78.36 76.40 73.02 70.49
  Q 72.43 69.83 71.24 68.77
  Z"
/>
<path d="
  M 115.65 76.14
  Q 119.60 71.93 124.11 68.31
  A 0.54 0.53 49.1 0 1 124.83 68.37
  L 133.63 77.76
  Q 134.52 78.70 133.25 78.79
  L 111.60 80.29
  Q 111.19 80.32 111.47 80.02
  Q 112.40 79.03 113.56 78.07
  Q 114.81 77.04 115.65 76.14
  Z"
/>
<path d="
  M 697.58 74.90
  Q 697.78 74.49 697.98 74.90
  L 707.45 93.90
  A 0.42 0.41 -13.1 0 1 707.07 94.50
  L 688.66 94.50
  A 0.41 0.40 12.8 0 1 688.29 93.92
  L 697.58 74.90
  Z"
/>
<path d="
  M 169.62 104.12
  Q 164.95 108.47 160.35 112.91
  A 0.35 0.34 -34.3 0 1 159.79 112.81
  L 153.18 97.21
  A 1.41 1.27 -50.4 0 1 153.14 96.28
  L 158.66 78.79
  A 0.76 0.74 6.2 0 1 159.32 78.27
  L 198.23 75.61
  Q 200.03 75.49 198.72 76.73
  Q 184.73 90.05 169.62 104.12
  Z"
/>
<path d="
  M 524.44 80.94
  Q 526.90 77.82 530.17 76.63
  Q 539.25 73.34 546.24 78.82
  Q 548.00 80.20 549.01 81.88
  Q 550.06 83.62 550.65 85.75
  A 0.39 0.39 -7.8 0 1 550.27 86.25
  L 522.30 86.19
  A 0.40 0.39 -82.5 0 1 521.93 85.69
  Q 522.57 83.31 524.44 80.94
  Z"
/>
<path d="
  M 137.60 80.44
  Q 136.85 79.62 137.96 79.54
  L 156.51 78.32
  A 0.79 0.78 -83.7 0 1 157.31 79.33
  L 152.48 95.32
  Q 152.17 96.34 151.46 95.56
  L 137.60 80.44
  Z"
/>
<path d="
  M 138.22 83.03
  Q 143.82 88.68 149.26 94.49
  A 0.84 0.47 38.6 0 1 149.51 95.11
  Q 149.45 95.42 149.00 95.25
  Q 131.15 88.37 113.17 81.80
  Q 111.99 81.38 113.24 81.30
  L 134.93 79.96
  A 1.64 1.56 71.1 0 1 136.37 80.71
  Q 137.21 82.01 138.22 83.03
  Z"
/>
<path d="
  M 100.70 89.22
  Q 98.71 90.96 96.06 93.55
  A 0.98 0.95 -44.0 0 1 94.69 93.55
  L 85.69 84.03
  Q 85.32 83.63 85.87 83.59
  L 106.93 81.84
  Q 107.45 81.80 107.15 82.21
  Q 104.32 86.07 100.70 89.22
  Z"
/>
<path d="
  M 102.34 101.55
  Q 98.60 98.34 96.54 95.42
  A 0.63 0.59 50.3 0 1 96.59 94.64
  L 107.29 84.06
  Q 108.59 82.78 108.07 84.55
  L 103.11 101.31
  A 0.48 0.48 -61.8 0 1 102.34 101.55
  Z"
/>
</g>
<path fill="#036a74" d="
  M 131.50 2.54
  Q 133.16 2.51 132.54 4.00
  Q 132.29 3.60 131.79 3.75
  Q 131.58 3.24 131.00 3.21
  L 131.50 2.54
  Z"
/>
<g fill="#fdfdfd">
<path d="
  M 100.93 101.73
  Q 102.49 103.03 101.69 105.69
  Q 96.51 122.92 91.38 140.37
  A 1.39 1.38 -84.9 0 1 90.20 141.36
  L 71.25 143.26
  A 1.73 1.73 65.2 0 1 69.84 142.74
  L 59.17 131.78
  A 0.78 0.78 45.8 0 1 59.18 130.68
  L 94.89 96.10
  A 0.48 0.47 -43.0 0 1 95.58 96.12
  Q 97.50 98.26 99.39 100.42
  Q 99.46 100.50 100.93 101.73
  Z"
/>
<path d="
  M 122.00 124.68
  A 0.54 0.52 -43.8 0 1 121.97 125.42
  L 107.60 139.15
  A 1.54 1.15 -63.3 0 1 106.76 139.57
  L 92.89 140.93
  A 0.40 0.39 -84.0 0 1 92.48 140.41
  L 102.98 105.33
  Q 103.22 104.53 103.78 105.14
  L 122.00 124.68
  Z"
/>
<path d="
  M 150.60 124.54
  A 0.84 0.82 47.7 0 1 150.64 123.37
  L 159.13 115.57
  A 0.36 0.35 57.7 0 1 159.69 115.71
  Q 166.66 132.14 173.67 148.55
  Q 173.76 148.77 173.77 148.98
  Q 173.83 149.81 173.28 149.22
  Q 162.58 137.91 150.60 124.54
  Z"
/>
<path d="
  M 50.07 123.70
  L 56.54 130.50
  A 1.07 1.00 -44.2 0 1 56.47 131.95
  L 43.96 144.28
  Q 43.19 145.04 43.49 144.02
  L 49.55 123.84
  A 0.32 0.30 -58.8 0 1 50.07 123.70
  Z"
/>
<path d="
  M 172.43 150.08
  Q 173.93 151.71 171.86 150.92
  L 136.53 137.37
  A 0.32 0.32 33.0 0 1 136.41 136.84
  L 148.76 125.20
  A 0.64 0.62 47.2 0 1 149.66 125.25
  L 172.43 150.08
  Z"
/>
<path d="
  M 130.15 133.11
  Q 131.42 134.47 133.30 136.11
  Q 134.15 136.85 133.03 136.97
  L 109.85 139.38
  Q 108.75 139.49 109.55 138.72
  L 122.46 126.18
  A 0.81 0.81 -45.2 0 1 123.60 126.20
  Q 127.26 130.00 130.15 133.11
  Z"
/>
<path d="
  M 68.09 142.89
  Q 68.68 143.52 67.81 143.60
  L 44.78 145.87
  Q 43.78 145.97 44.49 145.26
  L 57.26 132.61
  A 0.85 0.82 -44.1 0 1 58.46 132.61
  L 68.09 142.89
  Z"
/>
</g>
<g fill="#fcfcfc">
<path d="
  M 101.33 146.32
  Q 104.16 143.63 107.06 141.02
  A 1.64 1.64 21.1 0 1 107.94 140.63
  Q 120.30 139.28 132.69 138.20
  Q 134.99 138.00 137.16 138.83
  Q 154.73 145.60 172.90 152.50
  Q 173.44 152.70 172.88 152.87
  Q 170.70 153.50 168.26 153.68
  Q 128.25 156.61 88.24 159.75
  Q 87.43 159.81 88.00 159.25
  Q 94.59 152.71 101.33 146.32
  Z"
/>
<path d="
  M 92.02 142.45
  A 0.58 0.56 5.7 0 1 92.53 142.05
  L 104.70 140.90
  Q 105.60 140.81 104.95 141.44
  L 88.05 157.82
  Q 86.74 159.09 87.29 157.36
  L 92.02 142.45
  Z"
/>
<path d="
  M 85.97 158.65
  Q 85.69 159.59 85.02 158.88
  L 72.05 144.93
  Q 71.33 144.15 72.39 144.06
  L 90.11 142.44
  A 0.45 0.45 -84.6 0 1 90.58 143.01
  L 85.97 158.65
  Z"
/>
<path d="
  M 80.15 155.11
  Q 81.42 156.47 83.10 157.94
  Q 84.88 159.48 82.63 158.79
  L 46.38 147.54
  A 0.45 0.31 18.2 0 1 46.05 147.10
  Q 46.09 146.98 46.20 146.89
  Q 46.29 146.82 46.45 146.80
  Q 57.83 145.53 69.25 144.54
  A 1.13 1.11 -25.3 0 1 70.11 144.84
  Q 75.27 149.83 80.15 155.11
  Z"
/>
</g>
</svg>
