999
Output
0
SECTION
2
HEADER
9
$ACADVER
1
AC1021
9
$HANDSEED
5
544
0
ENDSEC
0
SECTION
2
CLASSES
0
ENDSEC
0
SECTION
2
TABLES
0
TABLE
2
VPORT
5
2
100
AcDbSymbolTable
70
1
0
VPORT
5
1
100
AcDbSymbolTableRecord
100
AcDbViewportTableRecord
2
*ACTIVE
10
0
20
0
11
1
21
1
12
500.0
22
500.0
40
1000.0
70
0
0
ENDTAB
0
TABLE
2
LTYPE
5
3
100
AcDbSymbolTable
70
3
0
LTYPE
5
b
100
AcDbSymbolTableRecord
100
AcDbLinetypeTableRecord
2
Solid
70
0
72
65
73
0
3

0
LTYPE
5
c
100
AcDbSymbolTableRecord
100
AcDbLinetypeTableRecord
2
ByBlock
70
0
72
65
73
0
3

0
LTYPE
5
d
100
AcDbSymbolTableRecord
100
AcDbLinetypeTableRecord
2
ByLayer
70
0
72
65
73
0
3

0
ENDTAB
0
TABLE
2
LAYER
5
4
100
AcDbSymbolTable
70
10
0
LAYER
5
e
100
AcDbSymbolTableRecord
100
AcDbLayerTableRecord
2
0
6
Solid
370
35
62
0
70
0
390
0
0
LAYER
5
19
100
AcDbSymbolTableRecord
100
AcDbLayerTableRecord
2
Layer 1
6
Solid
370
0
62
7
70
0
390
0
0
LAYER
5
108
100
AcDbSymbolTableRecord
100
AcDbLayerTableRecord
2
Layer 2
6
Solid
370
0
62
7
70
0
390
0
0
LAYER
5
1f4
100
AcDbSymbolTableRecord
100
AcDbLayerTableRecord
2
Layer 3
6
Solid
370
0
62
144
70
0
390
0
0
LAYER
5
20b
100
AcDbSymbolTableRecord
100
AcDbLayerTableRecord
2
Layer 4
6
Solid
370
0
62
138
70
0
390
0
0
LAYER
5
2bf
100
AcDbSymbolTableRecord
100
AcDbLayerTableRecord
2
Layer 5
6
Solid
370
0
62
7
70
0
390
0
0
LAYER
5
33e
100
AcDbSymbolTableRecord
100
AcDbLayerTableRecord
2
Layer 6
6
Solid
370
0
62
7
70
0
390
0
0
LAYER
5
4bd
100
AcDbSymbolTableRecord
100
AcDbLayerTableRecord
2
Layer 7
6
Solid
370
0
62
144
70
0
390
0
0
LAYER
5
4c4
100
AcDbSymbolTableRecord
100
AcDbLayerTableRecord
2
Layer 8
6
Solid
370
0
62
7
70
0
390
0
0
LAYER
5
517
100
AcDbSymbolTableRecord
100
AcDbLayerTableRecord
2
Layer 9
6
Solid
370
0
62
7
70
0
390
0
0
ENDTAB
0
TABLE
2
STYLE
5
5
100
AcDbSymbolTable
70
0
0
ENDTAB
0
TABLE
2
VIEW
5
6
100
AcDbSymbolTable
70
0
0
ENDTAB
0
TABLE
2
UCS
5
7
100
AcDbSymbolTable
70
0
0
ENDTAB
0
TABLE
2
APPID
5
8
100
AcDbSymbolTable
70
1
0
APPID
5
10
100
AcDbSymbolTableRecord
100
AcDbRegAppTableRecord
2
ACAD
70
0
0
ENDTAB
0
TABLE
2
DIMSTYLE
5
9
100
AcDbSymbolTable
70
0
100
AcDbDimStyleTable
71
1
0
ENDTAB
0
TABLE
2
BLOCK_RECORD
5
a
100
AcDbSymbolTable
70
2
0
BLOCK_RECORD
5
13
100
AcDbSymbolTableRecord
100
AcDbBlockTableRecord
2
*Model_Space
70
0
280
1
281
0
0
BLOCK_RECORD
5
16
100
AcDbSymbolTableRecord
100
AcDbBlockTableRecord
2
*Paper_Space
70
0
280
1
281
0
0
ENDTAB
0
ENDSEC
0
SECTION
2
BLOCKS
0
BLOCK
5
11
100
AcDbEntity
8
0
100
AcDbBlockBegin
2
*Model_Space
70
0
10
0
20
0
30
0
3
*Model_Space
1

0
ENDBLK
5
12
100
AcDbEntity
8
0
100
AcDbBlockEnd
0
BLOCK
5
14
100
AcDbEntity
8
0
100
AcDbBlockBegin
2
*Paper_Space
70
0
10
0
20
0
30
0
3
*Paper_Space
1

0
ENDBLK
5
15
100
AcDbEntity
8
0
100
AcDbBlockEnd
0
ENDSEC
0
SECTION
2
ENTITIES
0
HATCH
5
107
100
AcDbEntity
8
Layer 1
6
ByLayer
370
-1
62
256
100
AcDbHatch
10
0
20
0
30
0
210
0
220
0
230
1
2
FILL_263
70
1
71
0
91
1
92
0
93
236
72
1
10
0.0
20
0.0
11
787.0
21
0.0
72
1
10
787.0
20
0.0
11
787.0
21
-170.06
72
1
10
787.0
20
-170.06
11
786.44
21
-169.38
72
1
10
786.44
20
-169.38
11
786.44
21
-169.38
72
4
94
3
73
0
74
0
95
8
96
4
40
0.0
40
0.0
40
0.0
40
0.0
40
1.0
40
1.0
40
1.0
40
1.0
10
786.44
20
-169.38
10
786.2829090555
20
-169.1852072288
10
785.9558691802
20
-169.0625672756
10
785.56
20
-169.05
72
4
94
2
73
0
74
0
95
6
96
3
40
0.0
40
0.0
40
0.0
40
1.0
40
1.0
40
1.0
10
785.56
20
-169.05
10
774.93
20
-168.7
10
764.32
20
-167.91
72
4
94
2
73
0
74
0
95
6
96
3
40
0.0
40
0.0
40
0.0
40
1.0
40
1.0
40
1.0
10
764.32
20
-167.91
10
763.43
20
-167.84
10
760.33
20
-166.97
72
4
94
2
73
0
74
0
95
6
96
3
40
0.0
40
0.0
40
0.0
40
1.0
40
1.0
40
1.0
10
760.33
20
-166.97
10
757.84
20
-166.27
10
755.22
20
-167.09
72
4
94
2
73
0
74
0
95
6
96
3
40
0.0
40
0.0
40
0.0
40
1.0
40
1.0
40
1.0
10
755.22
20
-167.09
10
754.76
20
-167.23
10
754.26
20
-167.14
72
4
94
2
73
0
74
0
95
6
96
3
40
0.0
40
0.0
40
0.0
40
1.0
40
1.0
40
1.0
10
754.26
20
-167.14
10
751.8
20
-166.69
10
749.89
20
-168.17
72
1
10
749.89
20
-168.17
11
749.89
21
-168.17
72
4
94
3
73
0
74
0
95
8
96
4
40
0.0
40
0.0
40
0.0
40
0.0
40
1.0
40
1.0
40
1.0
40
1.0
10
749.89
20
-168.17
10
749.6279652508
20
-168.3758844458
10
749.300751517
20
-168.443583839
10
749.02
20
-168.35
72
4
94
2
73
0
74
0
95
6
96
3
40
0.0
40
0.0
40
0.0
40
1.0
40
1.0
40
1.0
10
749.02
20
-168.35
10
745.69
20
-167.23
10
749.89
20
-166.03
72
4
94
2
73
0
74
0
95
6
96
3
40
0.0
40
0.0
40
0.0
40
1.0
40
1.0
40
1.0
10
749.89
20
-166.03
10
751.29
20
-165.63
10
749.95
20
-165.07
72
4
94
2
73
0
74
0
95
6
96
3
40
0.0
40
0.0
40
0.0
40
1.0
40
1.0
40
1.0
10
749.95
20
-165.07
10
747.75
20
-164.14
10
745.47
20
-163.46
72
4
94
2
73
0
74
0
95
6
96
3
40
0.0
40
0.0
40
0.0
40
1.0
40
1.0
40
1.0
10
745.47
20
-163.46
10
744.57
20
-163.19
10
744.0
20
-163.37
72
4
94
2
73
0
74
0
95
6
96
3
40
0.0
40
0.0
40
0.0
40
1.0
40
1.0
40
1.0
10
744.0
20
-163.37
10
743.04
20
-163.67
10
743.02
20
-164.69
72
1
10
743.02
20
-164.69
11
743.02
21
-164.69
72
4
94
3
73
0
74
0
95
8
96
4
40
0.0
40
0.0
40
0.0
40
0.0
40
1.0
40
1.0
40
1.0
40
1.0
10
743.02
20
-164.69
10
743.0138352014
20
-164.9982399292
10
743.1902544666
20
-165.2935504383
10
743.48
20
-165.46
72
4
94
2
73
0
74
0
95
6
96
3
40
0.0
40
0.0
40
0.0
40
1.0
40
1.0
40
1.0
10
743.48
20
-165.46
10
744.39
20
-165.98
10
745.44
20
-166.05
72
1
10
745.44
20
-166.05
11
745.44
21
-166.05
72
4
94
3
73
0
74
0
95
8
96
4
40
0.0
40
0.0
40
0.0
40
0.0
40
1.0
40
1.0
40
1.0
40
1.0
10
745.44
20
-166.05
10
745.8080828476
20
-166.0749547693
10
746.1127487687
20
-166.225407076
10
746.25
20
-166.45
72
4
94
2
73
0
74
0
95
6
96
3
40
0.0
40
0.0
40
0.0
40
1.0
40
1.0
40
1.0
10
746.25
20
-166.45
10
746.56
20
-166.95
10
746.33
20
-167.37
72
1
10
746.33
20
-167.37
11
746.33
21
-167.37
72
4
94
3
73
0
74
0
95
8
96
4
40
0.0
40
0.0
40
0.0
40
0.0
40
1.0
40
1.0
40
1.0
40
1.0
10
746.33
20
-167.37
10
746.2011227709
20
-167.6032064145
10
745.8804946763
20
-167.75
10
745.5
20
-167.75
72
4
94
2
73
0
74
0
95
6
96
3
40
0.0
40
0.0
40
0.0
40
1.0
40
1.0
40
1.0
10
745.5
20
-167.75
10
742.5
20
-167.78
10
739.5
20
-167.88
72
4
94
2
73
0
74
0
95
6
96
3
40
0.0
40
0.0
40
0.0
40
1.0
40
1.0
40
1.0
10
739.5
20
-167.88
10
737.58
20
-167.94
10
733.58
20
-168.71
72
4
94
2
73
0
74
0
95
6
96
3
40
0.0
40
0.0
40
0.0
40
1.0
40
1.0
40
1.0
10
733.58
20
-168.71
10
728.72
20
-169.65
10
723.8
20
-168.92
72
4
94
2
73
0
74
0
95
6
96
3
40
0.0
40
0.0
40
0.0
40
1.0
40
1.0
40
1.0
10
723.8
20
-168.92
10
719.88
20
-168.33
10
718.79
20
-168.23
72
4
94
2
73
0
74
0
95
6
96
3
40
0.0
40
0.0
40
0.0
40
1.0
40
1.0
40
1.0
10
718.79
20
-168.23
10
716.27
20
-168.0
10
713.75
20
-167.69
72
4
94
2
73
0
74
0
95
6
96
3
40
0.0
40
0.0
40
0.0
40
1.0
40
1.0
40
1.0
10
713.75
20
-167.69
10
713.08
20
-167.61
10
710.74
20
-167.53
72
4
94
2
73
0
74
0
95
6
96
3
40
0.0
40
0.0
40
0.0
40
1.0
40
1.0
40
1.0
10
710.74
20
-167.53
10
709.2
20
-167.48
10
707.73
20
-167.09
72
4
94
2
73
0
74
0
95
6
96
3
40
0.0
40
0.0
40
0.0
40
1.0
40
1.0
40
1.0
10
707.73
20
-167.09
10
706.78
20
-166.83
10
704.66
20
-165.25
72
4
94
2
73
0
74
0
95
6
96
3
40
0.0
40
0.0
40
0.0
40
1.0
40
1.0
40
1.0
10
704.66
20
-165.25
10
702.34
20
-163.52
10
699.3
20
-163.98
72
4
94
2
73
0
74
0
95
6
96
3
40
0.0
40
0.0
40
0.0
40
1.0
40
1.0
40
1.0
10
699.3
20
-163.98
10
698.81
20
-164.05
10
699.15
20
-164.44
72
4
94
2
73
0
74
0
95
6
96
3
40
0.0
40
0.0
40
0.0
40
1.0
40
1.0
40
1.0
10
699.15
20
-164.44
10
702.48
20
-168.33
10
697.74
20
-168.56
72
4
94
2
73
0
74
0
95
6
96
3
40
0.0
40
0.0
40
0.0
40
1.0
40
1.0
40
1.0
10
697.74
20
-168.56
10
695.54
20
-168.66
10
695.39
20
-168.68
72
4
94
2
73
0
74
0
95
6
96
3
40
0.0
40
0.0
40
0.0
40
1.0
40
1.0
40
1.0
10
695.39
20
-168.68
10
687.08
20
-169.43
10
678.8
20
-168.58
72
4
94
2
73
0
74
0
95
6
96
3
40
0.0
40
0.0
40
0.0
40
1.0
40
1.0
40
1.0
10
678.8
20
-168.58
10
678.62
20
-168.56
10
673.2
20
-168.33
72
4
94
2
73
0
74
0
95
6
96
3
40
0.0
40
0.0
40
0.0
40
1.0
40
1.0
40
1.0
10
673.2
20
-168.33
10
667.24
20
-168.07
10
662.63
20
-164.08
72
1
10
662.63
20
-164.08
11
662.63
21
-164.08
72
4
94
3
73
0
74
0
95
8
96
4
40
0.0
40
0.0
40
0.0
40
0.0
40
1.0
40
1.0
40
1.0
40
1.0
10
662.63
20
-164.08
10
662.3523969551
20
-163.8475881485
10
662.0405148144
20
-163.7164558848
10
661.75
20
-163.71
72
4
94
2
73
0
74
0
95
6
96
3
40
0.0
40
0.0
40
0.0
40
1.0
40
1.0
40
1.0
10
661.75
20
-163.71
10
660.57
20
-163.68
10
659.63
20
-164.42
72
1
10
659.63
20
-164.42
11
659.63
21
-164.42
72
4
94
3
73
0
74
0
95
8
96
4
40
0.0
40
0.0
40
0.0
40
0.0
40
1.0
40
1.0
40
1.0
40
1.0
10
659.63
20
-164.42
10
659.527360073
20
-164.49895379
10
659.4631424463
20
-164.6187630362
10
659.4518520311
20
-164.7523662825
72
4
94
3
73
0
74
0
95
8
96
4
40
0.0
40
0.0
40
0.0
40
0.0
40
1.0
40
1.0
40
1.0
40
1.0
10
659.4518520311
20
-164.7523662825
10
659.440561616
20
-164.8859695289
10
659.483150831
20
-165.022096487
10
659.57
20
-165.13
72
4
94
2
73
0
74
0
95
6
96
3
40
0.0
40
0.0
40
0.0
40
1.0
40
1.0
40
1.0
10
659.57
20
-165.13
10
662.06
20
-168.19
10
658.54
20
-168.29
72
4
94
2
73
0
74
0
95
6
96
3
40
0.0
40
0.0
40
0.0
40
1.0
40
1.0
40
1.0
10
658.54
20
-168.29
10
656.45
20
-168.35
10
655.97
20
-168.41
72
4
94
2
73
0
74
0
95
6
96
3
40
0.0
40
0.0
40
0.0
40
1.0
40
1.0
40
1.0
10
655.97
20
-168.41
10
642.63
20
-169.99
10
629.43
20
-167.31
72
1
10
629.43
20
-167.31
11
629.43
21
-167.31
72
4
94
3
73
0
74
0
95
8
96
4
40
0.0
40
0.0
40
0.0
40
0.0
40
1.0
40
1.0
40
1.0
40
1.0
10
629.43
20
-167.31
10
628.4455046291
20
-167.1106849863
10
627.681195467
20
-166.3305352198
10
627.5
20
-165.34
72
4
94
2
73
0
74
0
95
6
96
3
40
0.0
40
0.0
40
0.0
40
1.0
40
1.0
40
1.0
10
627.5
20
-165.34
10
627.2
20
-163.68
10
625.02
20
-164.33
72
4
94
2
73
0
74
0
95
6
96
3
40
0.0
40
0.0
40
0.0
40
1.0
40
1.0
40
1.0
10
625.02
20
-164.33
10
623.7
20
-164.72
10
622.65
20
-164.05
72
4
94
3
73
0
74
0
95
8
96
4
40
0.0
40
0.0
40
0.0
40
0.0
40
1.0
40
1.0
40
1.0
40
1.0
10
622.65
20
-164.05
10
622.3250833958
20
-163.8461307582
10
621.9948365523
20
-163.7590326895
10
621.74
20
-163.81
72
4
94
2
73
0
74
0
95
6
96
3
40
0.0
40
0.0
40
0.0
40
1.0
40
1.0
40
1.0
10
621.74
20
-163.81
10
620.82
20
-163.99
10
621.39
20
-164.65
72
4
94
3
73
0
74
0
95
8
96
4
40
0.0
40
0.0
40
0.0
40
0.0
40
1.0
40
1.0
40
1.0
40
1.0
10
621.39
20
-164.65
10
621.5642699235
20
-164.8616134785
10
621.8852362271
20
-164.967343555
10
622.24
20
-164.93
72
4
94
2
73
0
74
0
95
6
96
3
40
0.0
40
0.0
40
0.0
40
1.0
40
1.0
40
1.0
10
622.24
20
-164.93
10
624.29
20
-164.72
10
624.07
20
-166.46
72
1
10
624.07
20
-166.46
11
624.07
21
-166.46
72
4
94
3
73
0
74
0
95
8
96
4
40
0.0
40
0.0
40
0.0
40
0.0
40
1.0
40
1.0
40
1.0
40
1.0
10
624.07
20
-166.46
10
623.9577368633
20
-167.3521965078
10
623.2621965078
20
-168.0600111048
10
622.37
20
-168.19
72
4
94
2
73
0
74
0
95
6
96
3
40
0.0
40
0.0
40
0.0
40
1.0
40
1.0
40
1.0
10
622.37
20
-168.19
10
617.49
20
-168.91
10
613.59
20
-169.14
72
4
94
2
73
0
74
0
95
6
96
3
40
0.0
40
0.0
40
0.0
40
1.0
40
1.0
40
1.0
10
613.59
20
-169.14
10
611.24
20
-169.28
10
606.95
20
-168.72
72
4
94
2
73
0
74
0
95
6
96
3
40
0.0
40
0.0
40
0.0
40
1.0
40
1.0
40
1.0
10
606.95
20
-168.72
10
603.62
20
-168.28
10
600.25
20
-168.25
72
4
94
2
73
0
74
0
95
6
96
3
40
0.0
40
0.0
40
0.0
40
1.0
40
1.0
40
1.0
10
600.25
20
-168.25
10
598.09
20
-168.23
10
592.66
20
-166.47
72
1
10
592.66
20
-166.47
11
592.66
21
-166.47
72
4
94
3
73
0
74
0
95
8
96
4
40
0.0
40
0.0
40
0.0
40
0.0
40
1.0
40
1.0
40
1.0
40
1.0
10
592.66
20
-166.47
10
592.3769638682
20
-166.3735104096
10
592.130815984
20
-166.1594687711
10
591.97
20
-165.87
72
4
94
2
73
0
74
0
95
6
96
3
40
0.0
40
0.0
40
0.0
40
1.0
40
1.0
40
1.0
10
591.97
20
-165.87
10
590.99
20
-164.05
10
589.19
20
-164.79
72
1
10
589.19
20
-164.79
11
589.19
21
-164.79
72
4
94
3
73
0
74
0
95
8
96
4
40
0.0
40
0.0
40
0.0
40
0.0
40
1.0
40
1.0
40
1.0
40
1.0
10
589.19
20
-164.79
10
589.0800537165
20
-164.8345020672
10
588.9966297264
20
-164.9299692266
10
588.9589071904
20
-165.0544535952
72
4
94
3
73
0
74
0
95
8
96
4
40
0.0
40
0.0
40
0.0
40
0.0
40
1.0
40
1.0
40
1.0
40
1.0
10
588.9589071904
20
-165.0544535952
10
588.9211846545
20
-165.1789379638
10
588.9324090896
20
-165.3217293359
10
588.99
20
-165.45
72
4
94
2
73
0
74
0
95
6
96
3
40
0.0
40
0.0
40
0.0
40
1.0
40
1.0
40
1.0
10
588.99
20
-165.45
10
589.62
20
-166.78
10
588.78
20
-167.82
72
1
10
588.78
20
-167.82
11
588.78
21
-167.82
72
4
94
3
73
0
74
0
95
8
96
4
40
0.0
40
0.0
40
0.0
40
0.0
40
1.0
40
1.0
40
1.0
40
1.0
10
588.78
20
-167.82
10
588.6003993392
20
-168.0509151354
10
588.3027870124
20
-168.2122712162
10
587.95
20
-168.27
72
4
94
2
73
0
74
0
95
6
96
3
40
0.0
40
0.0
40
0.0
40
1.0
40
1.0
40
1.0
10
587.95
20
-168.27
10
577.82
20
-169.99
10
571.25
20
-169.0
72
4
94
2
73
0
74
0
95
6
96
3
40
0.0
40
0.0
40
0.0
40
1.0
40
1.0
40
1.0
10
571.25
20
-169.0
10
565.08
20
-168.07
10
558.91
20
-167.12
72
4
94
2
73
0
74
0
95
6
96
3
40
0.0
40
0.0
40
0.0
40
1.0
40
1.0
40
1.0
10
558.91
20
-167.12
10
558.69
20
-167.08
10
558.23
20
-167.15
72
4
94
2
73
0
74
0
95
6
96
3
40
0.0
40
0.0
40
0.0
40
1.0
40
1.0
40
1.0
10
558.23
20
-167.15
10
557.58
20
-167.25
10
557.65
20
-166.5
72
1
10
557.65
20
-166.5
11
557.65
21
-166.5
72
4
94
3
73
0
74
0
95
8
96
4
40
0.0
40
0.0
40
0.0
40
0.0
40
1.0
40
1.0
40
1.0
40
1.0
10
557.65
20
-166.5
10
557.675088031
20
-166.2240316591
10
557.8763996126
20
-165.9444322402
10
558.19
20
-165.75
72
4
94
2
73
0
74
0
95
6
96
3
40
0.0
40
0.0
40
0.0
40
1.0
40
1.0
40
1.0
10
558.19
20
-165.75
10
559.96
20
-164.63
10
557.02
20
-164.11
72
4
94
2
73
0
74
0
95
6
96
3
40
0.0
40
0.0
40
0.0
40
1.0
40
1.0
40
1.0
10
557.02
20
-164.11
10
553.88
20
-163.55
10
556.21
20
-166.85
72
1
10
556.21
20
-166.85
11
556.21
21
-166.85
72
4
94
3
73
0
74
0
95
8
96
4
40
0.0
40
0.0
40
0.0
40
0.0
40
1.0
40
1.0
40
1.0
40
1.0
10
556.21
20
-166.85
10
556.4050356855
20
-167.1264791585
10
556.4419226263
20
-167.4843794435
10
556.3074991055
20
-167.7959976052
72
4
94
3
73
0
74
0
95
8
96
4
40
0.0
40
0.0
40
0.0
40
0.0
40
1.0
40
1.0
40
1.0
40
1.0
10
556.3074991055
20
-167.7959976052
10
556.1730755848
20
-168.1076157669
10
555.8864901387
20
-168.328562017
10
555.55
20
-168.38
72
4
94
2
73
0
74
0
95
6
96
3
40
0.0
40
0.0
40
0.0
40
1.0
40
1.0
40
1.0
10
555.55
20
-168.38
10
542.74
20
-170.32
10
530.99
20
-167.3
72
4
94
2
73
0
74
0
95
6
96
3
40
0.0
40
0.0
40
0.0
40
1.0
40
1.0
40
1.0
10
530.99
20
-167.3
10
529.77
20
-166.99
10
528.81
20
-166.18
72
4
94
2
73
0
74
0
95
6
96
3
40
0.0
40
0.0
40
0.0
40
1.0
40
1.0
40
1.0
10
528.81
20
-166.18
10
525.26
20
-163.23
10
524.81
20
-165.5
72
4
94
3
73
0
74
0
95
8
96
4
40
0.0
40
0.0
40
0.0
40
0.0
40
1.0
40
1.0
40
1.0
40
1.0
10
524.81
20
-165.5
10
524.7596584002
20
-165.739122599
10
524.8634628009
20
-166.0542431012
10
525.09
20
-166.35
72
4
94
2
73
0
74
0
95
6
96
3
40
0.0
40
0.0
40
0.0
40
1.0
40
1.0
40
1.0
10
525.09
20
-166.35
10
525.49
20
-166.87
10
525.17
20
-167.34
72
4
94
2
73
0
74
0
95
6
96
3
40
0.0
40
0.0
40
0.0
40
1.0
40
1.0
40
1.0
10
525.17
20
-167.34
10
524.93
20
-167.71
10
524.19
20
-167.9
72
4
94
2
73
0
74
0
95
6
96
3
40
0.0
40
0.0
40
0.0
40
1.0
40
1.0
40
1.0
10
524.19
20
-167.9
10
515.26
20
-170.2
10
506.23
20
-168.5
72
4
94
2
73
0
74
0
95
6
96
3
40
0.0
40
0.0
40
0.0
40
1.0
40
1.0
40
1.0
10
506.23
20
-168.5
10
506.09
20
-168.47
10
503.75
20
-168.23
72
4
94
2
73
0
74
0
95
6
96
3
40
0.0
40
0.0
40
0.0
40
1.0
40
1.0
40
1.0
10
503.75
20
-168.23
10
500.62
20
-167.91
10
499.56
20
-164.67
72
1
10
499.56
20
-164.67
11
499.56
21
-164.67
72
4
94
3
73
0
74
0
95
8
96
4
40
0.0
40
0.0
40
0.0
40
0.0
40
1.0
40
1.0
40
1.0
40
1.0
10
499.56
20
-164.67
10
499.390015379
20
-164.1539752578
10
498.9342373802
20
-163.7885670346
10
498.4
20
-163.74
72
1
10
498.4
20
-163.74
11
493.24
21
-163.28
72
4
94
2
73
0
74
0
95
6
96
3
40
0.0
40
0.0
40
0.0
40
1.0
40
1.0
40
1.0
10
493.24
20
-163.28
10
492.76
20
-163.24
10
492.33
20
-162.98
72
4
94
2
73
0
74
0
95
6
96
3
40
0.0
40
0.0
40
0.0
40
1.0
40
1.0
40
1.0
10
492.33
20
-162.98
10
490.15
20
-161.65
10
491.53
20
-164.26
72
4
94
2
73
0
74
0
95
6
96
3
40
0.0
40
0.0
40
0.0
40
1.0
40
1.0
40
1.0
10
491.53
20
-164.26
10
493.28
20
-167.54
10
490.5
20
-167.96
72
4
94
2
73
0
74
0
95
6
96
3
40
0.0
40
0.0
40
0.0
40
1.0
40
1.0
40
1.0
10
490.5
20
-167.96
10
488.17
20
-168.31
10
487.58
20
-168.49
72
4
94
2
73
0
74
0
95
6
96
3
40
0.0
40
0.0
40
0.0
40
1.0
40
1.0
40
1.0
10
487.58
20
-168.49
10
482.99
20
-169.88
10
478.21
20
-168.98
72
4
94
2
73
0
74
0
95
6
96
3
40
0.0
40
0.0
40
0.0
40
1.0
40
1.0
40
1.0
10
478.21
20
-168.98
10
473.99
20
-168.18
10
468.02
20
-167.22
72
1
10
468.02
20
-167.22
11
468.02
21
-167.22
72
4
94
3
73
0
74
0
95
8
96
4
40
0.0
40
0.0
40
0.0
40
0.0
40
1.0
40
1.0
40
1.0
40
1.0
10
468.02
20
-167.22
10
467.6483978678
20
-167.1602318249
10
467.3177212326
20
-166.9505118454
10
467.1058027938
20
-166.640202703
72
4
94
3
73
0
74
0
95
8
96
4
40
0.0
40
0.0
40
0.0
40
0.0
40
1.0
40
1.0
40
1.0
40
1.0
10
467.1058027938
20
-166.640202703
10
466.8938843551
20
-166.3298935606
10
466.8194428944
20
-165.9464048995
10
466.9
20
-165.58
72
4
94
2
73
0
74
0
95
6
96
3
40
0.0
40
0.0
40
0.0
40
1.0
40
1.0
40
1.0
10
466.9
20
-165.58
10
467.07
20
-164.76
10
465.8
20
-164.36
72
4
94
2
73
0
74
0
95
6
96
3
40
0.0
40
0.0
40
0.0
40
1.0
40
1.0
40
1.0
10
465.8
20
-164.36
10
462.28
20
-163.24
10
463.98
20
-166.08
72
1
10
463.98
20
-166.08
11
463.98
21
-166.08
72
4
94
3
73
0
74
0
95
8
96
4
40
0.0
40
0.0
40
0.0
40
0.0
40
1.0
40
1.0
40
1.0
40
1.0
10
463.98
20
-166.08
10
464.1630355802
20
-166.382955443
10
464.214673576
20
-166.7149139873
10
464.12
20
-166.98
72
4
94
2
73
0
74
0
95
6
96
3
40
0.0
40
0.0
40
0.0
40
1.0
40
1.0
40
1.0
10
464.12
20
-166.98
10
463.64
20
-168.34
10
462.01
20
-168.57
72
4
94
2
73
0
74
0
95
6
96
3
40
0.0
40
0.0
40
0.0
40
1.0
40
1.0
40
1.0
10
462.01
20
-168.57
10
449.47
20
-170.39
10
437.39
20
-166.55
72
1
10
437.39
20
-166.55
11
437.39
21
-166.55
72
4
94
3
73
0
74
0
95
8
96
4
40
0.0
40
0.0
40
0.0
40
0.0
40
1.0
40
1.0
40
1.0
40
1.0
10
437.39
20
-166.55
10
437.2005450094
20
-166.48902598
10
437.0564176795
20
-166.334384372
10
437.0078014874
20
-166.1399196034
72
4
94
3
73
0
74
0
95
8
96
4
40
0.0
40
0.0
40
0.0
40
0.0
40
1.0
40
1.0
40
1.0
40
1.0
10
437.0078014874
20
-166.1399196034
10
436.9591852952
20
-165.9454548348
10
437.0128084551
20
-165.7380797628
10
437.15
20
-165.59
72
4
94
2
73
0
74
0
95
6
96
3
40
0.0
40
0.0
40
0.0
40
1.0
40
1.0
40
1.0
10
437.15
20
-165.59
10
438.42
20
-164.23
10
436.55
20
-163.84
72
4
94
2
73
0
74
0
95
6
96
3
40
0.0
40
0.0
40
0.0
40
1.0
40
1.0
40
1.0
10
436.55
20
-163.84
10
435.62
20
-163.64
10
435.47
20
-163.6
72
4
94
2
73
0
74
0
95
6
96
3
40
0.0
40
0.0
40
0.0
40
1.0
40
1.0
40
1.0
10
435.47
20
-163.6
10
431.87
20
-162.71
10
432.76
20
-165.69
72
1
10
432.76
20
-165.69
11
432.76
21
-165.69
72
4
94
3
73
0
74
0
95
8
96
4
40
0.0
40
0.0
40
0.0
40
0.0
40
1.0
40
1.0
40
1.0
40
1.0
10
432.76
20
-165.69
10
432.8949337856
20
-166.1424250458
10
432.8430669004
20
-166.6301898551
10
432.6159055897
20
-167.0450877863
72
4
94
3
73
0
74
0
95
8
96
4
40
0.0
40
0.0
40
0.0
40
0.0
40
1.0
40
1.0
40
1.0
40
1.0
10
432.6159055897
20
-167.0450877863
10
432.3887442789
20
-167.4599857175
10
432.0050708063
20
-167.7677119749
10
431.55
20
-167.9
72
4
94
2
73
0
74
0
95
6
96
3
40
0.0
40
0.0
40
0.0
40
1.0
40
1.0
40
1.0
10
431.55
20
-167.9
10
424.84
20
-169.86
10
419.6
20
-168.81
72
4
94
2
73
0
74
0
95
6
96
3
40
0.0
40
0.0
40
0.0
40
1.0
40
1.0
40
1.0
10
419.6
20
-168.81
10
418.15
20
-168.52
10
415.33
20
-168.31
72
4
94
2
73
0
74
0
95
6
96
3
40
0.0
40
0.0
40
0.0
40
1.0
40
1.0
40
1.0
10
415.33
20
-168.31
10
412.85
20
-168.13
10
410.73
20
-166.73
72
1
10
410.73
20
-166.73
11
410.73
21
-166.73
72
4
94
3
73
0
74
0
95
8
96
4
40
0.0
40
0.0
40
0.0
40
0.0
40
1.0
40
1.0
40
1.0
40
1.0
10
410.73
20
-166.73
10
410.4834710798
20
-166.5697562019
10
410.345347108
20
-166.2628140423
10
410.37
20
-165.93
72
4
94
2
73
0
74
0
95
6
96
3
40
0.0
40
0.0
40
0.0
40
1.0
40
1.0
40
1.0
10
410.37
20
-165.93
10
410.56
20
-163.39
10
407.92
20
-163.84
72
4
94
2
73
0
74
0
95
6
96
3
40
0.0
40
0.0
40
0.0
40
1.0
40
1.0
40
1.0
10
407.92
20
-163.84
10
407.5
20
-163.91
10
406.96
20
-163.78
72
4
94
2
73
0
74
0
95
6
96
3
40
0.0
40
0.0
40
0.0
40
1.0
40
1.0
40
1.0
10
406.96
20
-163.78
10
405.85
20
-163.51
10
405.29
20
-164.37
72
1
10
405.29
20
-164.37
11
405.29
21
-164.37
72
4
94
3
73
0
74
0
95
8
96
4
40
0.0
40
0.0
40
0.0
40
0.0
40
1.0
40
1.0
40
1.0
40
1.0
10
405.29
20
-164.37
10
405.139091577
20
-164.5963626345
10
405.1168186827
20
-164.9341681973
10
405.23
20
-165.28
72
4
94
2
73
0
74
0
95
6
96
3
40
0.0
40
0.0
40
0.0
40
1.0
40
1.0
40
1.0
10
405.23
20
-165.28
10
406.14
20
-168.14
10
403.31
20
-168.46
72
4
94
2
73
0
74
0
95
6
96
3
40
0.0
40
0.0
40
0.0
40
1.0
40
1.0
40
1.0
10
403.31
20
-168.46
10
401.32
20
-168.69
10
401.21
20
-168.71
72
4
94
2
73
0
74
0
95
6
96
3
40
0.0
40
0.0
40
0.0
40
1.0
40
1.0
40
1.0
10
401.21
20
-168.71
10
398.34
20
-169.25
10
395.42
20
-169.31
72
4
94
2
73
0
74
0
95
6
96
3
40
0.0
40
0.0
40
0.0
40
1.0
40
1.0
40
1.0
10
395.42
20
-169.31
10
393.27
20
-169.35
10
389.72
20
-168.4
72
4
94
2
73
0
74
0
95
6
96
3
40
0.0
40
0.0
40
0.0
40
1.0
40
1.0
40
1.0
10
389.72
20
-168.4
10
386.45
20
-167.52
10
383.08
20
-167.17
72
4
94
2
73
0
74
0
95
6
96
3
40
0.0
40
0.0
40
0.0
40
1.0
40
1.0
40
1.0
10
383.08
20
-167.17
10
381.28
20
-166.98
10
379.09
20
-167.8
72
4
94
2
73
0
74
0
95
6
96
3
40
0.0
40
0.0
40
0.0
40
1.0
40
1.0
40
1.0
10
379.09
20
-167.8
10
371.84
20
-170.51
10
364.08
20
-168.63
72
4
94
2
73
0
74
0
95
6
96
3
40
0.0
40
0.0
40
0.0
40
1.0
40
1.0
40
1.0
10
364.08
20
-168.63
10
362.04
20
-168.14
10
356.5
20
-167.5
72
4
94
2
73
0
74
0
95
6
96
3
40
0.0
40
0.0
40
0.0
40
1.0
40
1.0
40
1.0
10
356.5
20
-167.5
10
354.89
20
-167.32
10
354.51
20
-165.56
72
1
10
354.51
20
-165.56
11
354.51
21
-165.56
72
4
94
3
73
0
74
0
95
8
96
4
40
0.0
40
0.0
40
0.0
40
0.0
40
1.0
40
1.0
40
1.0
40
1.0
10
354.51
20
-165.56
10
354.4409692986
20
-165.2273975298
10
354.2435717689
20
-164.9592348478
10
353.98
20
-164.84
72
4
94
2
73
0
74
0
95
6
96
3
40
0.0
40
0.0
40
0.0
40
1.0
40
1.0
40
1.0
10
353.98
20
-164.84
10
351.16
20
-163.55
10
352.76
20
-166.51
72
1
10
352.76
20
-166.51
11
352.76
21
-166.51
72
4
94
3
73
0
74
0
95
8
96
4
40
0.0
40
0.0
40
0.0
40
0.0
40
1.0
40
1.0
40
1.0
40
1.0
10
352.76
20
-166.51
10
352.9259251558
20
-166.818146718
10
352.9380171723
20
-167.1862063379
10
352.7926694393
20
-167.5044000236
72
4
94
3
73
0
74
0
95
8
96
4
40
0.0
40
0.0
40
0.0
40
0.0
40
1.0
40
1.0
40
1.0
40
1.0
10
352.7926694393
20
-167.5044000236
10
352.6473217063
20
-167.8225937093
10
352.3613317491
20
-168.0541485002
10
352.02
20
-168.13
72
4
94
2
73
0
74
0
95
6
96
3
40
0.0
40
0.0
40
0.0
40
1.0
40
1.0
40
1.0
10
352.02
20
-168.13
10
341.37
20
-170.5
10
330.75
20
-167.0
72
4
94
2
73
0
74
0
95
6
96
3
40
0.0
40
0.0
40
0.0
40
1.0
40
1.0
40
1.0
10
330.75
20
-167.0
10
328.17
20
-166.15
10
327.44
20
-165.31
72
4
94
2
73
0
74
0
95
6
96
3
40
0.0
40
0.0
40
0.0
40
1.0
40
1.0
40
1.0
10
327.44
20
-165.31
10
325.35
20
-162.93
10
324.89
20
-166.96
72
1
10
324.89
20
-166.96
11
324.89
21
-166.96
72
4
94
3
73
0
74
0
95
8
96
4
40
0.0
40
0.0
40
0.0
40
0.0
40
1.0
40
1.0
40
1.0
40
1.0
10
324.89
20
-166.96
10
324.8358344212
20
-167.4595270044
10
324.4774902091
20
-167.8736136495
10
323.99
20
-168.0
72
4
94
2
73
0
74
0
95
6
96
3
40
0.0
40
0.0
40
0.0
40
1.0
40
1.0
40
1.0
10
323.99
20
-168.0
10
320.25
20
-169.0
10
316.41
20
-169.22
72
4
94
2
73
0
74
0
95
6
96
3
40
0.0
40
0.0
40
0.0
40
1.0
40
1.0
40
1.0
10
316.41
20
-169.22
10
313.76
20
-169.36
10
309.66
20
-168.54
72
4
94
2
73
0
74
0
95
6
96
3
40
0.0
40
0.0
40
0.0
40
1.0
40
1.0
40
1.0
10
309.66
20
-168.54
10
306.32
20
-167.87
10
302.95
20
-167.36
72
4
94
2
73
0
74
0
95
6
96
3
40
0.0
40
0.0
40
0.0
40
1.0
40
1.0
40
1.0
10
302.95
20
-167.36
10
302.1
20
-167.23
10
301.75
20
-166.74
72
4
94
2
73
0
74
0
95
6
96
3
40
0.0
40
0.0
40
0.0
40
1.0
40
1.0
40
1.0
10
301.75
20
-166.74
10
301.32
20
-166.13
10
301.37
20
-165.3
72
1
10
301.37
20
-165.3
11
301.37
21
-165.3
72
4
94
3
73
0
74
0
95
8
96
4
40
0.0
40
0.0
40
0.0
40
0.0
40
1.0
40
1.0
40
1.0
40
1.0
10
301.37
20
-165.3
10
301.387349006
20
-164.9761518882
10
301.2228860838
20
-164.69783002
10
300.98
20
-164.64
72
4
94
2
73
0
74
0
95
6
96
3
40
0.0
40
0.0
40
0.0
40
1.0
40
1.0
40
1.0
10
300.98
20
-164.64
10
299.63
20
-164.3
10
300.29
20
-167.03
72
1
10
300.29
20
-167.03
11
300.29
21
-167.03
72
4
94
3
73
0
74
0
95
8
96
4
40
0.0
40
0.0
40
0.0
40
0.0
40
1.0
40
1.0
40
1.0
40
1.0
10
300.29
20
-167.03
10
300.3708862712
20
-167.3665912577
10
300.3108604993
20
-167.7215620068
10
300.1238692518
20
-168.0124372807
72
4
94
3
73
0
74
0
95
8
96
4
40
0.0
40
0.0
40
0.0
40
0.0
40
1.0
40
1.0
40
1.0
40
1.0
10
300.1238692518
20
-168.0124372807
10
299.9368780043
20
-168.3033125546
10
299.6392004922
20
-168.5047691361
10
299.3
20
-168.57
72
4
94
2
73
0
74
0
95
6
96
3
40
0.0
40
0.0
40
0.0
40
1.0
40
1.0
40
1.0
10
299.3
20
-168.57
10
295.05
20
-169.39
10
291.07
20
-169.3
72
4
94
2
73
0
74
0
95
6
96
3
40
0.0
40
0.0
40
0.0
40
1.0
40
1.0
40
1.0
10
291.07
20
-169.3
10
288.97
20
-169.26
10
284.37
20
-168.3
72
4
94
2
73
0
74
0
95
6
96
3
40
0.0
40
0.0
40
0.0
40
1.0
40
1.0
40
1.0
10
284.37
20
-168.3
10
281.52
20
-167.71
10
277.7
20
-167.08
72
1
10
277.7
20
-167.08
11
277.7
21
-167.08
72
4
94
3
73
0
74
0
95
8
96
4
40
0.0
40
0.0
40
0.0
40
0.0
40
1.0
40
1.0
40
1.0
40
1.0
10
277.7
20
-167.08
10
277.1351820991
20
-166.9896291359
10
276.7348145679
20
-166.4761142589
10
276.78
20
-165.9
72
4
94
2
73
0
74
0
95
6
96
3
40
0.0
40
0.0
40
0.0
40
1.0
40
1.0
40
1.0
10
276.78
20
-165.9
10
276.93
20
-163.97
10
274.01
20
-164.01
72
1
10
274.01
20
-164.01
11
274.01
21
-164.01
72
4
94
3
73
0
74
0
95
8
96
4
40
0.0
40
0.0
40
0.0
40
0.0
40
1.0
40
1.0
40
1.0
40
1.0
10
274.01
20
-164.01
10
273.6111465363
20
-164.0144317052
10
273.2414243409
20
-164.2194728793
10
273.0259875719
20
-164.5557153131
72
4
94
3
73
0
74
0
95
8
96
4
40
0.0
40
0.0
40
0.0
40
0.0
40
1.0
40
1.0
40
1.0
40
1.0
10
273.0259875719
20
-164.5557153131
10
272.8105508029
20
-164.891957747
10
272.7782427619
20
-165.3143843249
10
272.94
20
-165.68
72
4
94
2
73
0
74
0
95
6
96
3
40
0.0
40
0.0
40
0.0
40
1.0
40
1.0
40
1.0
10
272.94
20
-165.68
10
273.61
20
-167.18
10
272.1
20
-167.68
72
4
94
2
73
0
74
0
95
6
96
3
40
0.0
40
0.0
40
0.0
40
1.0
40
1.0
40
1.0
10
272.1
20
-167.68
10
271.12
20
-168.0
10
271.06
20
-168.03
72
4
94
2
73
0
74
0
95
6
96
3
40
0.0
40
0.0
40
0.0
40
1.0
40
1.0
40
1.0
10
271.06
20
-168.03
10
267.54
20
-169.46
10
263.79
20
-169.38
72
4
94
2
73
0
74
0
95
6
96
3
40
0.0
40
0.0
40
0.0
40
1.0
40
1.0
40
1.0
10
263.79
20
-169.38
10
262.74
20
-169.35
10
260.35
20
-168.53
72
4
94
2
73
0
74
0
95
6
96
3
40
0.0
40
0.0
40
0.0
40
1.0
40
1.0
40
1.0
10
260.35
20
-168.53
10
258.57
20
-167.91
10
256.75
20
-168.0
72
4
94
2
73
0
74
0
95
6
96
3
40
0.0
40
0.0
40
0.0
40
1.0
40
1.0
40
1.0
10
256.75
20
-168.0
10
253.4
20
-168.17
10
251.23
20
-166.02
72
4
94
2
73
0
74
0
95
6
96
3
40
0.0
40
0.0
40
0.0
40
1.0
40
1.0
40
1.0
10
251.23
20
-166.02
10
250.95
20
-165.74
10
250.55
20
-164.82
72
4
94
2
73
0
74
0
95
6
96
3
40
0.0
40
0.0
40
0.0
40
1.0
40
1.0
40
1.0
10
250.55
20
-164.82
10
250.08
20
-163.71
10
248.91
20
-164.45
72
1
10
248.91
20
-164.45
11
248.91
21
-164.45
72
4
94
3
73
0
74
0
95
8
96
4
40
0.0
40
0.0
40
0.0
40
0.0
40
1.0
40
1.0
40
1.0
40
1.0
10
248.91
20
-164.45
10
248.6657005507
20
-164.6026871558
10
248.5333550826
20
-164.9101957434
10
248.57
20
-165.24
72
4
94
2
73
0
74
0
95
6
96
3
40
0.0
40
0.0
40
0.0
40
1.0
40
1.0
40
1.0
10
248.57
20
-165.24
10
248.93
20
-168.37
10
245.75
20
-168.73
72
4
94
2
73
0
74
0
95
6
96
3
40
0.0
40
0.0
40
0.0
40
1.0
40
1.0
40
1.0
10
245.75
20
-168.73
10
235.68
20
-169.88
10
226.05
20
-166.84
72
1
10
226.05
20
-166.84
11
226.05
21
-166.84
72
4
94
3
73
0
74
0
95
8
96
4
40
0.0
40
0.0
40
0.0
40
0.0
40
1.0
40
1.0
40
1.0
40
1.0
10
226.05
20
-166.84
10
225.794685616
20
-166.7622956223
10
225.6522956223
20
-166.4819653221
10
225.73
20
-166.21
72
4
94
2
73
0
74
0
95
6
96
3
40
0.0
40
0.0
40
0.0
40
1.0
40
1.0
40
1.0
10
225.73
20
-166.21
10
226.04
20
-165.1
10
225.49
20
-164.21
72
1
10
225.49
20
-164.21
11
225.49
21
-164.21
72
4
94
3
73
0
74
0
95
8
96
4
40
0.0
40
0.0
40
0.0
40
0.0
40
1.0
40
1.0
40
1.0
40
1.0
10
225.49
20
-164.21
10
225.3158673091
20
-163.9301438895
10
225.0096083079
20
-163.76
10
224.68
20
-163.76
72
4
94
2
73
0
74
0
95
6
96
3
40
0.0
40
0.0
40
0.0
40
1.0
40
1.0
40
1.0
10
224.68
20
-163.76
10
223.61
20
-163.74
10
223.33
20
-164.76
72
1
10
223.33
20
-164.76
11
223.33
21
-164.76
72
4
94
3
73
0
74
0
95
8
96
4
40
0.0
40
0.0
40
0.0
40
0.0
40
1.0
40
1.0
40
1.0
40
1.0
10
223.33
20
-164.76
10
223.2724250954
20
-164.9839024067
10
223.3228641327
20
-165.318961726
10
223.47
20
-165.69
72
4
94
2
73
0
74
0
95
6
96
3
40
0.0
40
0.0
40
0.0
40
1.0
40
1.0
40
1.0
10
223.47
20
-165.69
10
223.84
20
-166.63
10
223.35
20
-167.43
72
4
94
2
73
0
74
0
95
6
96
3
40
0.0
40
0.0
40
0.0
40
1.0
40
1.0
40
1.0
10
223.35
20
-167.43
10
222.98
20
-168.04
10
222.02
20
-168.26
72
4
94
2
73
0
74
0
95
6
96
3
40
0.0
40
0.0
40
0.0
40
1.0
40
1.0
40
1.0
10
222.02
20
-168.26
10
217.81
20
-169.22
10
211.75
20
-168.75
72
4
94
2
73
0
74
0
95
6
96
3
40
0.0
40
0.0
40
0.0
40
1.0
40
1.0
40
1.0
10
211.75
20
-168.75
10
205.98
20
-168.31
10
200.24
20
-167.56
72
4
94
3
73
0
74
0
95
8
96
4
40
0.0
40
0.0
40
0.0
40
0.0
40
1.0
40
1.0
40
1.0
40
1.0
10
200.24
20
-167.56
10
199.9371884554
20
-167.5213432071
10
199.6170403493
20
-167.6031588342
10
199.34
20
-167.79
72
4
94
2
73
0
74
0
95
6
96
3
40
0.0
40
0.0
40
0.0
40
1.0
40
1.0
40
1.0
10
199.34
20
-167.79
10
197.53
20
-169.0
10
195.39
20
-169.07
72
4
94
2
73
0
74
0
95
6
96
3
40
0.0
40
0.0
40
0.0
40
1.0
40
1.0
40
1.0
10
195.39
20
-169.07
10
192.71
20
-169.16
10
192.62
20
-169.17
72
4
94
2
73
0
74
0
95
6
96
3
40
0.0
40
0.0
40
0.0
40
1.0
40
1.0
40
1.0
10
192.62
20
-169.17
10
188.79
20
-169.54
10
185.0
20
-168.75
72
4
94
2
73
0
74
0
95
6
96
3
40
0.0
40
0.0
40
0.0
40
1.0
40
1.0
40
1.0
10
185.0
20
-168.75
10
182.97
20
-168.33
10
176.5
20
-167.79
72
1
10
176.5
20
-167.79
11
176.5
21
-167.79
72
4
94
3
73
0
74
0
95
8
96
4
40
0.0
40
0.0
40
0.0
40
0.0
40
1.0
40
1.0
40
1.0
40
1.0
10
176.5
20
-167.79
10
176.1874046995
20
-167.7639503916
10
175.8595704963
20
-167.8406775456
10
175.56
20
-168.01
72
4
94
2
73
0
74
0
95
6
96
3
40
0.0
40
0.0
40
0.0
40
1.0
40
1.0
40
1.0
10
175.56
20
-168.01
10
173.62
20
-169.08
10
171.43
20
-169.1
72
4
94
2
73
0
74
0
95
6
96
3
40
0.0
40
0.0
40
0.0
40
1.0
40
1.0
40
1.0
10
171.43
20
-169.1
10
168.63
20
-169.12
10
168.58
20
-169.12
72
4
94
2
73
0
74
0
95
6
96
3
40
0.0
40
0.0
40
0.0
40
1.0
40
1.0
40
1.0
10
168.58
20
-169.12
10
161.3
20
-169.72
10
159.81
20
-169.19
72
4
94
2
73
0
74
0
95
6
96
3
40
0.0
40
0.0
40
0.0
40
1.0
40
1.0
40
1.0
10
159.81
20
-169.19
10
155.77
20
-167.74
10
151.5
20
-167.52
72
1
10
151.5
20
-167.52
11
151.5
21
-167.52
72
4
94
3
73
0
74
0
95
8
96
4
40
0.0
40
0.0
40
0.0
40
0.0
40
1.0
40
1.0
40
1.0
40
1.0
10
151.5
20
-167.52
10
151.1940533105
20
-167.5069809919
10
150.8729276814
20
-167.5977338871
10
150.58
20
-167.78
72
4
94
2
73
0
74
0
95
6
96
3
40
0.0
40
0.0
40
0.0
40
1.0
40
1.0
40
1.0
10
150.58
20
-167.78
10
148.41
20
-169.16
10
145.87
20
-169.14
72
4
94
2
73
0
74
0
95
6
96
3
40
0.0
40
0.0
40
0.0
40
1.0
40
1.0
40
1.0
10
145.87
20
-169.14
10
142.73
20
-169.13
10
142.62
20
-169.13
72
4
94
2
73
0
74
0
95
6
96
3
40
0.0
40
0.0
40
0.0
40
1.0
40
1.0
40
1.0
10
142.62
20
-169.13
10
136.21
20
-169.52
10
130.0
20
-167.76
72
4
94
2
73
0
74
0
95
6
96
3
40
0.0
40
0.0
40
0.0
40
1.0
40
1.0
40
1.0
10
130.0
20
-167.76
10
127.44
20
-167.03
10
125.4
20
-168.45
72
4
94
2
73
0
74
0
95
6
96
3
40
0.0
40
0.0
40
0.0
40
1.0
40
1.0
40
1.0
10
125.4
20
-168.45
10
124.96
20
-168.76
10
124.51
20
-168.8
72
4
94
2
73
0
74
0
95
6
96
3
40
0.0
40
0.0
40
0.0
40
1.0
40
1.0
40
1.0
10
124.51
20
-168.8
10
113.5
20
-169.78
10
102.74
20
-167.36
72
1
10
102.74
20
-167.36
11
102.74
21
-167.36
72
4
94
3
73
0
74
0
95
8
96
4
40
0.0
40
0.0
40
0.0
40
0.0
40
1.0
40
1.0
40
1.0
40
1.0
10
102.74
20
-167.36
10
102.4517545771
20
-167.2973379516
10
102.1381157841
20
-167.3906828304
10
101.9
20
-167.61
72
4
94
2
73
0
74
0
95
6
96
3
40
0.0
40
0.0
40
0.0
40
1.0
40
1.0
40
1.0
10
101.9
20
-167.61
10
100.44
20
-168.99
10
98.0
20
-169.0
72
4
94
2
73
0
74
0
95
6
96
3
40
0.0
40
0.0
40
0.0
40
1.0
40
1.0
40
1.0
10
98.0
20
-169.0
10
88.12
20
-169.03
10
81.13
20
-168.31
72
4
94
2
73
0
74
0
95
6
96
3
40
0.0
40
0.0
40
0.0
40
1.0
40
1.0
40
1.0
10
81.13
20
-168.31
10
80.9
20
-168.28
10
79.11
20
-167.66
72
4
94
2
73
0
74
0
95
6
96
3
40
0.0
40
0.0
40
0.0
40
1.0
40
1.0
40
1.0
10
79.11
20
-167.66
10
77.83
20
-167.22
10
76.81
20
-168.36
72
4
94
3
73
0
74
0
95
8
96
4
40
0.0
40
0.0
40
0.0
40
0.0
40
1.0
40
1.0
40
1.0
40
1.0
10
76.81
20
-168.36
10
76.5853519335
20
-168.6103221312
10
76.2988332283
20
-168.7643259353
10
76.01
20
-168.79
72
4
94
2
73
0
74
0
95
6
96
3
40
0.0
40
0.0
40
0.0
40
1.0
40
1.0
40
1.0
10
76.01
20
-168.79
10
65.08
20
-169.64
10
54.31
20
-167.66
72
4
94
3
73
0
74
0
95
8
96
4
40
0.0
40
0.0
40
0.0
40
0.0
40
1.0
40
1.0
40
1.0
40
1.0
10
54.31
20
-167.66
10
54.0128240031
20
-167.603093958
10
53.6965928485
20
-167.6913445128
10
53.45
20
-167.9
72
4
94
2
73
0
74
0
95
6
96
3
40
0.0
40
0.0
40
0.0
40
1.0
40
1.0
40
1.0
10
53.45
20
-167.9
10
52.38
20
-168.79
10
50.94
20
-168.96
72
4
94
2
73
0
74
0
95
6
96
3
40
0.0
40
0.0
40
0.0
40
1.0
40
1.0
40
1.0
10
50.94
20
-168.96
10
40.41
20
-170.21
10
30.3
20
-167.17
72
4
94
2
73
0
74
0
95
6
96
3
40
0.0
40
0.0
40
0.0
40
1.0
40
1.0
40
1.0
10
30.3
20
-167.17
10
30.11
20
-167.11
10
29.17
20
-166.9
72
4
94
2
73
0
74
0
95
6
96
3
40
0.0
40
0.0
40
0.0
40
1.0
40
1.0
40
1.0
10
29.17
20
-166.9
10
27.52
20
-166.51
10
28.75
20
-165.58
72
4
94
2
73
0
74
0
95
6
96
3
40
0.0
40
0.0
40
0.0
40
1.0
40
1.0
40
1.0
10
28.75
20
-165.58
10
28.99
20
-165.4
10
29.83
20
-165.05
72
4
94
2
73
0
74
0
95
6
96
3
40
0.0
40
0.0
40
0.0
40
1.0
40
1.0
40
1.0
10
29.83
20
-165.05
10
31.54
20
-164.34
10
29.02
20
-163.42
72
4
94
3
73
0
74
0
95
8
96
4
40
0.0
40
0.0
40
0.0
40
0.0
40
1.0
40
1.0
40
1.0
40
1.0
10
29.02
20
-163.42
10
28.699113813
20
-163.3021234415
10
28.4161070239
20
-163.1019479077
10
28.2
20
-162.84
72
4
94
2
73
0
74
0
95
6
96
3
40
0.0
40
0.0
40
0.0
40
1.0
40
1.0
40
1.0
10
28.2
20
-162.84
10
25.72
20
-159.85
10
26.73
20
-162.92
72
4
94
2
73
0
74
0
95
6
96
3
40
0.0
40
0.0
40
0.0
40
1.0
40
1.0
40
1.0
10
26.73
20
-162.92
10
27.65
20
-165.74
10
25.46
20
-167.06
72
4
94
2
73
0
74
0
95
6
96
3
40
0.0
40
0.0
40
0.0
40
1.0
40
1.0
40
1.0
10
25.46
20
-167.06
10
24.28
20
-167.77
10
24.01
20
-167.96
72
4
94
2
73
0
74
0
95
6
96
3
40
0.0
40
0.0
40
0.0
40
1.0
40
1.0
40
1.0
10
24.01
20
-167.96
10
23.08
20
-168.61
10
22.44
20
-168.69
72
4
94
2
73
0
74
0
95
6
96
3
40
0.0
40
0.0
40
0.0
40
1.0
40
1.0
40
1.0
10
22.44
20
-168.69
10
15.3
20
-169.55
10
8.0
20
-167.08
72
4
94
2
73
0
74
0
95
6
96
3
40
0.0
40
0.0
40
0.0
40
1.0
40
1.0
40
1.0
10
8.0
20
-167.08
10
5.37
20
-166.19
10
3.68
20
-168.39
72
4
94
2
73
0
74
0
95
6
96
3
40
0.0
40
0.0
40
0.0
40
1.0
40
1.0
40
1.0
10
3.68
20
-168.39
10
2.99
20
-169.3
10
-0.01
20
-169.92
72
1
10
-0.01
20
-169.92
11
0.0
21
0.0
97
0
75
0
76
1
98
0
0
HATCH
5
1f3
100
AcDbEntity
8
Layer 2
6
ByLayer
370
-1
62
256
100
AcDbHatch
10
0
20
0
30
0
210
0
220
0
230
1
2
FILL_499
70
1
71
0
91
1
92
0
93
233
72
1
10
787.0
20
-170.06
11
787.0
21
-186.0
72
1
10
787.0
20
-186.0
11
0.0
21
-186.0
72
1
10
0.0
20
-186.0
11
-0.01
21
-169.92
72
4
94
2
73
0
74
0
95
6
96
3
40
0.0
40
0.0
40
0.0
40
1.0
40
1.0
40
1.0
10
-0.01
20
-169.92
10
2.99
20
-169.3
10
3.68
20
-168.39
72
4
94
2
73
0
74
0
95
6
96
3
40
0.0
40
0.0
40
0.0
40
1.0
40
1.0
40
1.0
10
3.68
20
-168.39
10
5.37
20
-166.19
10
8.0
20
-167.08
72
4
94
2
73
0
74
0
95
6
96
3
40
0.0
40
0.0
40
0.0
40
1.0
40
1.0
40
1.0
10
8.0
20
-167.08
10
15.3
20
-169.55
10
22.44
20
-168.69
72
4
94
2
73
0
74
0
95
6
96
3
40
0.0
40
0.0
40
0.0
40
1.0
40
1.0
40
1.0
10
22.44
20
-168.69
10
23.08
20
-168.61
10
24.01
20
-167.96
72
4
94
2
73
0
74
0
95
6
96
3
40
0.0
40
0.0
40
0.0
40
1.0
40
1.0
40
1.0
10
24.01
20
-167.96
10
24.28
20
-167.77
10
25.46
20
-167.06
72
4
94
2
73
0
74
0
95
6
96
3
40
0.0
40
0.0
40
0.0
40
1.0
40
1.0
40
1.0
10
25.46
20
-167.06
10
27.65
20
-165.74
10
26.73
20
-162.92
72
4
94
2
73
0
74
0
95
6
96
3
40
0.0
40
0.0
40
0.0
40
1.0
40
1.0
40
1.0
10
26.73
20
-162.92
10
25.72
20
-159.85
10
28.2
20
-162.84
72
1
10
28.2
20
-162.84
11
28.2
21
-162.84
72
4
94
3
73
0
74
0
95
8
96
4
40
0.0
40
0.0
40
0.0
40
0.0
40
1.0
40
1.0
40
1.0
40
1.0
10
28.2
20
-162.84
10
28.4161070239
20
-163.1019479077
10
28.699113813
20
-163.3021234415
10
29.02
20
-163.42
72
4
94
2
73
0
74
0
95
6
96
3
40
0.0
40
0.0
40
0.0
40
1.0
40
1.0
40
1.0
10
29.02
20
-163.42
10
31.54
20
-164.34
10
29.83
20
-165.05
72
4
94
2
73
0
74
0
95
6
96
3
40
0.0
40
0.0
40
0.0
40
1.0
40
1.0
40
1.0
10
29.83
20
-165.05
10
28.99
20
-165.4
10
28.75
20
-165.58
72
4
94
2
73
0
74
0
95
6
96
3
40
0.0
40
0.0
40
0.0
40
1.0
40
1.0
40
1.0
10
28.75
20
-165.58
10
27.52
20
-166.51
10
29.17
20
-166.9
72
4
94
2
73
0
74
0
95
6
96
3
40
0.0
40
0.0
40
0.0
40
1.0
40
1.0
40
1.0
10
29.17
20
-166.9
10
30.11
20
-167.11
10
30.3
20
-167.17
72
4
94
2
73
0
74
0
95
6
96
3
40
0.0
40
0.0
40
0.0
40
1.0
40
1.0
40
1.0
10
30.3
20
-167.17
10
40.41
20
-170.21
10
50.94
20
-168.96
72
4
94
2
73
0
74
0
95
6
96
3
40
0.0
40
0.0
40
0.0
40
1.0
40
1.0
40
1.0
10
50.94
20
-168.96
10
52.38
20
-168.79
10
53.45
20
-167.9
72
1
10
53.45
20
-167.9
11
53.45
21
-167.9
72
4
94
3
73
0
74
0
95
8
96
4
40
0.0
40
0.0
40
0.0
40
0.0
40
1.0
40
1.0
40
1.0
40
1.0
10
53.45
20
-167.9
10
53.6965928485
20
-167.6913445128
10
54.0128240031
20
-167.603093958
10
54.31
20
-167.66
72
4
94
2
73
0
74
0
95
6
96
3
40
0.0
40
0.0
40
0.0
40
1.0
40
1.0
40
1.0
10
54.31
20
-167.66
10
65.08
20
-169.64
10
76.01
20
-168.79
72
1
10
76.01
20
-168.79
11
76.01
21
-168.79
72
4
94
3
73
0
74
0
95
8
96
4
40
0.0
40
0.0
40
0.0
40
0.0
40
1.0
40
1.0
40
1.0
40
1.0
10
76.01
20
-168.79
10
76.2988332283
20
-168.7643259353
10
76.5853519335
20
-168.6103221312
10
76.81
20
-168.36
72
4
94
2
73
0
74
0
95
6
96
3
40
0.0
40
0.0
40
0.0
40
1.0
40
1.0
40
1.0
10
76.81
20
-168.36
10
77.83
20
-167.22
10
79.11
20
-167.66
72
4
94
2
73
0
74
0
95
6
96
3
40
0.0
40
0.0
40
0.0
40
1.0
40
1.0
40
1.0
10
79.11
20
-167.66
10
80.9
20
-168.28
10
81.13
20
-168.31
72
4
94
2
73
0
74
0
95
6
96
3
40
0.0
40
0.0
40
0.0
40
1.0
40
1.0
40
1.0
10
81.13
20
-168.31
10
88.12
20
-169.03
10
98.0
20
-169.0
72
4
94
2
73
0
74
0
95
6
96
3
40
0.0
40
0.0
40
0.0
40
1.0
40
1.0
40
1.0
10
98.0
20
-169.0
10
100.44
20
-168.99
10
101.9
20
-167.61
72
1
10
101.9
20
-167.61
11
101.9
21
-167.61
72
4
94
3
73
0
74
0
95
8
96
4
40
0.0
40
0.0
40
0.0
40
0.0
40
1.0
40
1.0
40
1.0
40
1.0
10
101.9
20
-167.61
10
102.1381157841
20
-167.3906828304
10
102.4517545771
20
-167.2973379516
10
102.74
20
-167.36
72
4
94
2
73
0
74
0
95
6
96
3
40
0.0
40
0.0
40
0.0
40
1.0
40
1.0
40
1.0
10
102.74
20
-167.36
10
113.5
20
-169.78
10
124.51
20
-168.8
72
4
94
2
73
0
74
0
95
6
96
3
40
0.0
40
0.0
40
0.0
40
1.0
40
1.0
40
1.0
10
124.51
20
-168.8
10
124.96
20
-168.76
10
125.4
20
-168.45
72
4
94
2
73
0
74
0
95
6
96
3
40
0.0
40
0.0
40
0.0
40
1.0
40
1.0
40
1.0
10
125.4
20
-168.45
10
127.44
20
-167.03
10
130.0
20
-167.76
72
4
94
2
73
0
74
0
95
6
96
3
40
0.0
40
0.0
40
0.0
40
1.0
40
1.0
40
1.0
10
130.0
20
-167.76
10
136.21
20
-169.52
10
142.62
20
-169.13
72
4
94
2
73
0
74
0
95
6
96
3
40
0.0
40
0.0
40
0.0
40
1.0
40
1.0
40
1.0
10
142.62
20
-169.13
10
142.73
20
-169.13
10
145.87
20
-169.14
72
4
94
2
73
0
74
0
95
6
96
3
40
0.0
40
0.0
40
0.0
40
1.0
40
1.0
40
1.0
10
145.87
20
-169.14
10
148.41
20
-169.16
10
150.58
20
-167.78
72
1
10
150.58
20
-167.78
11
150.58
21
-167.78
72
4
94
3
73
0
74
0
95
8
96
4
40
0.0
40
0.0
40
0.0
40
0.0
40
1.0
40
1.0
40
1.0
40
1.0
10
150.58
20
-167.78
10
150.8729276814
20
-167.5977338871
10
151.1940533105
20
-167.5069809919
10
151.5
20
-167.52
72
4
94
2
73
0
74
0
95
6
96
3
40
0.0
40
0.0
40
0.0
40
1.0
40
1.0
40
1.0
10
151.5
20
-167.52
10
155.77
20
-167.74
10
159.81
20
-169.19
72
4
94
2
73
0
74
0
95
6
96
3
40
0.0
40
0.0
40
0.0
40
1.0
40
1.0
40
1.0
10
159.81
20
-169.19
10
161.3
20
-169.72
10
168.58
20
-169.12
72
4
94
2
73
0
74
0
95
6
96
3
40
0.0
40
0.0
40
0.0
40
1.0
40
1.0
40
1.0
10
168.58
20
-169.12
10
168.63
20
-169.12
10
171.43
20
-169.1
72
4
94
2
73
0
74
0
95
6
96
3
40
0.0
40
0.0
40
0.0
40
1.0
40
1.0
40
1.0
10
171.43
20
-169.1
10
173.62
20
-169.08
10
175.56
20
-168.01
72
4
94
3
73
0
74
0
95
8
96
4
40
0.0
40
0.0
40
0.0
40
0.0
40
1.0
40
1.0
40
1.0
40
1.0
10
175.56
20
-168.01
10
175.8595704963
20
-167.8406775456
10
176.1874046995
20
-167.7639503916
10
176.5
20
-167.79
72
4
94
2
73
0
74
0
95
6
96
3
40
0.0
40
0.0
40
0.0
40
1.0
40
1.0
40
1.0
10
176.5
20
-167.79
10
182.97
20
-168.33
10
185.0
20
-168.75
72
4
94
2
73
0
74
0
95
6
96
3
40
0.0
40
0.0
40
0.0
40
1.0
40
1.0
40
1.0
10
185.0
20
-168.75
10
188.79
20
-169.54
10
192.62
20
-169.17
72
4
94
2
73
0
74
0
95
6
96
3
40
0.0
40
0.0
40
0.0
40
1.0
40
1.0
40
1.0
10
192.62
20
-169.17
10
192.71
20
-169.16
10
195.39
20
-169.07
72
4
94
2
73
0
74
0
95
6
96
3
40
0.0
40
0.0
40
0.0
40
1.0
40
1.0
40
1.0
10
195.39
20
-169.07
10
197.53
20
-169.0
10
199.34
20
-167.79
72
1
10
199.34
20
-167.79
11
199.34
21
-167.79
72
4
94
3
73
0
74
0
95
8
96
4
40
0.0
40
0.0
40
0.0
40
0.0
40
1.0
40
1.0
40
1.0
40
1.0
10
199.34
20
-167.79
10
199.6170403493
20
-167.6031588342
10
199.9371884554
20
-167.5213432071
10
200.24
20
-167.56
72
4
94
2
73
0
74
0
95
6
96
3
40
0.0
40
0.0
40
0.0
40
1.0
40
1.0
40
1.0
10
200.24
20
-167.56
10
205.98
20
-168.31
10
211.75
20
-168.75
72
4
94
2
73
0
74
0
95
6
96
3
40
0.0
40
0.0
40
0.0
40
1.0
40
1.0
40
1.0
10
211.75
20
-168.75
10
217.81
20
-169.22
10
222.02
20
-168.26
72
4
94
2
73
0
74
0
95
6
96
3
40
0.0
40
0.0
40
0.0
40
1.0
40
1.0
40
1.0
10
222.02
20
-168.26
10
222.98
20
-168.04
10
223.35
20
-167.43
72
4
94
2
73
0
74
0
95
6
96
3
40
0.0
40
0.0
40
0.0
40
1.0
40
1.0
40
1.0
10
223.35
20
-167.43
10
223.84
20
-166.63
10
223.47
20
-165.69
72
1
10
223.47
20
-165.69
11
223.47
21
-165.69
72
4
94
3
73
0
74
0
95
8
96
4
40
0.0
40
0.0
40
0.0
40
0.0
40
1.0
40
1.0
40
1.0
40
1.0
10
223.47
20
-165.69
10
223.3228641327
20
-165.318961726
10
223.2724250954
20
-164.9839024067
10
223.33
20
-164.76
72
4
94
2
73
0
74
0
95
6
96
3
40
0.0
40
0.0
40
0.0
40
1.0
40
1.0
40
1.0
10
223.33
20
-164.76
10
223.61
20
-163.74
10
224.68
20
-163.76
72
4
94
3
73
0
74
0
95
8
96
4
40
0.0
40
0.0
40
0.0
40
0.0
40
1.0
40
1.0
40
1.0
40
1.0
10
224.68
20
-163.76
10
225.0096083079
20
-163.76
10
225.3158673091
20
-163.9301438895
10
225.49
20
-164.21
72
4
94
2
73
0
74
0
95
6
96
3
40
0.0
40
0.0
40
0.0
40
1.0
40
1.0
40
1.0
10
225.49
20
-164.21
10
226.04
20
-165.1
10
225.73
20
-166.21
72
1
10
225.73
20
-166.21
11
225.73
21
-166.21
72
4
94
3
73
0
74
0
95
8
96
4
40
0.0
40
0.0
40
0.0
40
0.0
40
1.0
40
1.0
40
1.0
40
1.0
10
225.73
20
-166.21
10
225.6522956223
20
-166.4819653221
10
225.794685616
20
-166.7622956223
10
226.05
20
-166.84
72
4
94
2
73
0
74
0
95
6
96
3
40
0.0
40
0.0
40
0.0
40
1.0
40
1.0
40
1.0
10
226.05
20
-166.84
10
235.68
20
-169.88
10
245.75
20
-168.73
72
4
94
2
73
0
74
0
95
6
96
3
40
0.0
40
0.0
40
0.0
40
1.0
40
1.0
40
1.0
10
245.75
20
-168.73
10
248.93
20
-168.37
10
248.57
20
-165.24
72
1
10
248.57
20
-165.24
11
248.57
21
-165.24
72
4
94
3
73
0
74
0
95
8
96
4
40
0.0
40
0.0
40
0.0
40
0.0
40
1.0
40
1.0
40
1.0
40
1.0
10
248.57
20
-165.24
10
248.5333550826
20
-164.9101957434
10
248.6657005507
20
-164.6026871558
10
248.91
20
-164.45
72
4
94
2
73
0
74
0
95
6
96
3
40
0.0
40
0.0
40
0.0
40
1.0
40
1.0
40
1.0
10
248.91
20
-164.45
10
250.08
20
-163.71
10
250.55
20
-164.82
72
4
94
2
73
0
74
0
95
6
96
3
40
0.0
40
0.0
40
0.0
40
1.0
40
1.0
40
1.0
10
250.55
20
-164.82
10
250.95
20
-165.74
10
251.23
20
-166.02
72
4
94
2
73
0
74
0
95
6
96
3
40
0.0
40
0.0
40
0.0
40
1.0
40
1.0
40
1.0
10
251.23
20
-166.02
10
253.4
20
-168.17
10
256.75
20
-168.0
72
4
94
2
73
0
74
0
95
6
96
3
40
0.0
40
0.0
40
0.0
40
1.0
40
1.0
40
1.0
10
256.75
20
-168.0
10
258.57
20
-167.91
10
260.35
20
-168.53
72
4
94
2
73
0
74
0
95
6
96
3
40
0.0
40
0.0
40
0.0
40
1.0
40
1.0
40
1.0
10
260.35
20
-168.53
10
262.74
20
-169.35
10
263.79
20
-169.38
72
4
94
2
73
0
74
0
95
6
96
3
40
0.0
40
0.0
40
0.0
40
1.0
40
1.0
40
1.0
10
263.79
20
-169.38
10
267.54
20
-169.46
10
271.06
20
-168.03
72
4
94
2
73
0
74
0
95
6
96
3
40
0.0
40
0.0
40
0.0
40
1.0
40
1.0
40
1.0
10
271.06
20
-168.03
10
271.12
20
-168.0
10
272.1
20
-167.68
72
4
94
2
73
0
74
0
95
6
96
3
40
0.0
40
0.0
40
0.0
40
1.0
40
1.0
40
1.0
10
272.1
20
-167.68
10
273.61
20
-167.18
10
272.94
20
-165.68
72
1
10
272.94
20
-165.68
11
272.94
21
-165.68
72
4
94
3
73
0
74
0
95
8
96
4
40
0.0
40
0.0
40
0.0
40
0.0
40
1.0
40
1.0
40
1.0
40
1.0
10
272.94
20
-165.68
10
272.7782427619
20
-165.3143843249
10
272.8105508029
20
-164.891957747
10
273.0259875719
20
-164.5557153131
72
4
94
3
73
0
74
0
95
8
96
4
40
0.0
40
0.0
40
0.0
40
0.0
40
1.0
40
1.0
40
1.0
40
1.0
10
273.0259875719
20
-164.5557153131
10
273.2414243409
20
-164.2194728793
10
273.6111465363
20
-164.0144317052
10
274.01
20
-164.01
72
4
94
2
73
0
74
0
95
6
96
3
40
0.0
40
0.0
40
0.0
40
1.0
40
1.0
40
1.0
10
274.01
20
-164.01
10
276.93
20
-163.97
10
276.78
20
-165.9
72
1
10
276.78
20
-165.9
11
276.78
21
-165.9
72
4
94
3
73
0
74
0
95
8
96
4
40
0.0
40
0.0
40
0.0
40
0.0
40
1.0
40
1.0
40
1.0
40
1.0
10
276.78
20
-165.9
10
276.7348145679
20
-166.4761142589
10
277.1351820991
20
-166.9896291359
10
277.7
20
-167.08
72
4
94
2
73
0
74
0
95
6
96
3
40
0.0
40
0.0
40
0.0
40
1.0
40
1.0
40
1.0
10
277.7
20
-167.08
10
281.52
20
-167.71
10
284.37
20
-168.3
72
4
94
2
73
0
74
0
95
6
96
3
40
0.0
40
0.0
40
0.0
40
1.0
40
1.0
40
1.0
10
284.37
20
-168.3
10
288.97
20
-169.26
10
291.07
20
-169.3
72
4
94
2
73
0
74
0
95
6
96
3
40
0.0
40
0.0
40
0.0
40
1.0
40
1.0
40
1.0
10
291.07
20
-169.3
10
295.05
20
-169.39
10
299.3
20
-168.57
72
4
94
3
73
0
74
0
95
8
96
4
40
0.0
40
0.0
40
0.0
40
0.0
40
1.0
40
1.0
40
1.0
40
1.0
10
299.3
20
-168.57
10
299.6392004922
20
-168.5047691361
10
299.9368780043
20
-168.3033125546
10
300.1238692518
20
-168.0124372807
72
4
94
3
73
0
74
0
95
8
96
4
40
0.0
40
0.0
40
0.0
40
0.0
40
1.0
40
1.0
40
1.0
40
1.0
10
300.1238692518
20
-168.0124372807
10
300.3108604993
20
-167.7215620068
10
300.3708862712
20
-167.3665912577
10
300.29
20
-167.03
72
4
94
2
73
0
74
0
95
6
96
3
40
0.0
40
0.0
40
0.0
40
1.0
40
1.0
40
1.0
10
300.29
20
-167.03
10
299.63
20
-164.3
10
300.98
20
-164.64
72
4
94
3
73
0
74
0
95
8
96
4
40
0.0
40
0.0
40
0.0
40
0.0
40
1.0
40
1.0
40
1.0
40
1.0
10
300.98
20
-164.64
10
301.2228860838
20
-164.69783002
10
301.387349006
20
-164.9761518882
10
301.37
20
-165.3
72
4
94
2
73
0
74
0
95
6
96
3
40
0.0
40
0.0
40
0.0
40
1.0
40
1.0
40
1.0
10
301.37
20
-165.3
10
301.32
20
-166.13
10
301.75
20
-166.74
72
4
94
2
73
0
74
0
95
6
96
3
40
0.0
40
0.0
40
0.0
40
1.0
40
1.0
40
1.0
10
301.75
20
-166.74
10
302.1
20
-167.23
10
302.95
20
-167.36
72
4
94
2
73
0
74
0
95
6
96
3
40
0.0
40
0.0
40
0.0
40
1.0
40
1.0
40
1.0
10
302.95
20
-167.36
10
306.32
20
-167.87
10
309.66
20
-168.54
72
4
94
2
73
0
74
0
95
6
96
3
40
0.0
40
0.0
40
0.0
40
1.0
40
1.0
40
1.0
10
309.66
20
-168.54
10
313.76
20
-169.36
10
316.41
20
-169.22
72
4
94
2
73
0
74
0
95
6
96
3
40
0.0
40
0.0
40
0.0
40
1.0
40
1.0
40
1.0
10
316.41
20
-169.22
10
320.25
20
-169.0
10
323.99
20
-168.0
72
4
94
3
73
0
74
0
95
8
96
4
40
0.0
40
0.0
40
0.0
40
0.0
40
1.0
40
1.0
40
1.0
40
1.0
10
323.99
20
-168.0
10
324.4774902091
20
-167.8736136495
10
324.8358344212
20
-167.4595270044
10
324.89
20
-166.96
72
4
94
2
73
0
74
0
95
6
96
3
40
0.0
40
0.0
40
0.0
40
1.0
40
1.0
40
1.0
10
324.89
20
-166.96
10
325.35
20
-162.93
10
327.44
20
-165.31
72
4
94
2
73
0
74
0
95
6
96
3
40
0.0
40
0.0
40
0.0
40
1.0
40
1.0
40
1.0
10
327.44
20
-165.31
10
328.17
20
-166.15
10
330.75
20
-167.0
72
4
94
2
73
0
74
0
95
6
96
3
40
0.0
40
0.0
40
0.0
40
1.0
40
1.0
40
1.0
10
330.75
20
-167.0
10
341.37
20
-170.5
10
352.02
20
-168.13
72
1
10
352.02
20
-168.13
11
352.02
21
-168.13
72
4
94
3
73
0
74
0
95
8
96
4
40
0.0
40
0.0
40
0.0
40
0.0
40
1.0
40
1.0
40
1.0
40
1.0
10
352.02
20
-168.13
10
352.3613317491
20
-168.0541485002
10
352.6473217063
20
-167.8225937093
10
352.7926694393
20
-167.5044000236
72
4
94
3
73
0
74
0
95
8
96
4
40
0.0
40
0.0
40
0.0
40
0.0
40
1.0
40
1.0
40
1.0
40
1.0
10
352.7926694393
20
-167.5044000236
10
352.9380171723
20
-167.1862063379
10
352.9259251558
20
-166.818146718
10
352.76
20
-166.51
72
4
94
2
73
0
74
0
95
6
96
3
40
0.0
40
0.0
40
0.0
40
1.0
40
1.0
40
1.0
10
352.76
20
-166.51
10
351.16
20
-163.55
10
353.98
20
-164.84
72
1
10
353.98
20
-164.84
11
353.98
21
-164.84
72
4
94
3
73
0
74
0
95
8
96
4
40
0.0
40
0.0
40
0.0
40
0.0
40
1.0
40
1.0
40
1.0
40
1.0
10
353.98
20
-164.84
10
354.2435717689
20
-164.9592348478
10
354.4409692986
20
-165.2273975298
10
354.51
20
-165.56
72
4
94
2
73
0
74
0
95
6
96
3
40
0.0
40
0.0
40
0.0
40
1.0
40
1.0
40
1.0
10
354.51
20
-165.56
10
354.89
20
-167.32
10
356.5
20
-167.5
72
4
94
2
73
0
74
0
95
6
96
3
40
0.0
40
0.0
40
0.0
40
1.0
40
1.0
40
1.0
10
356.5
20
-167.5
10
362.04
20
-168.14
10
364.08
20
-168.63
72
4
94
2
73
0
74
0
95
6
96
3
40
0.0
40
0.0
40
0.0
40
1.0
40
1.0
40
1.0
10
364.08
20
-168.63
10
371.84
20
-170.51
10
379.09
20
-167.8
72
4
94
2
73
0
74
0
95
6
96
3
40
0.0
40
0.0
40
0.0
40
1.0
40
1.0
40
1.0
10
379.09
20
-167.8
10
381.28
20
-166.98
10
383.08
20
-167.17
72
4
94
2
73
0
74
0
95
6
96
3
40
0.0
40
0.0
40
0.0
40
1.0
40
1.0
40
1.0
10
383.08
20
-167.17
10
386.45
20
-167.52
10
389.72
20
-168.4
72
4
94
2
73
0
74
0
95
6
96
3
40
0.0
40
0.0
40
0.0
40
1.0
40
1.0
40
1.0
10
389.72
20
-168.4
10
393.27
20
-169.35
10
395.42
20
-169.31
72
4
94
2
73
0
74
0
95
6
96
3
40
0.0
40
0.0
40
0.0
40
1.0
40
1.0
40
1.0
10
395.42
20
-169.31
10
398.34
20
-169.25
10
401.21
20
-168.71
72
4
94
2
73
0
74
0
95
6
96
3
40
0.0
40
0.0
40
0.0
40
1.0
40
1.0
40
1.0
10
401.21
20
-168.71
10
401.32
20
-168.69
10
403.31
20
-168.46
72
4
94
2
73
0
74
0
95
6
96
3
40
0.0
40
0.0
40
0.0
40
1.0
40
1.0
40
1.0
10
403.31
20
-168.46
10
406.14
20
-168.14
10
405.23
20
-165.28
72
1
10
405.23
20
-165.28
11
405.23
21
-165.28
72
4
94
3
73
0
74
0
95
8
96
4
40
0.0
40
0.0
40
0.0
40
0.0
40
1.0
40
1.0
40
1.0
40
1.0
10
405.23
20
-165.28
10
405.1168186827
20
-164.9341681973
10
405.139091577
20
-164.5963626345
10
405.29
20
-164.37
72
4
94
2
73
0
74
0
95
6
96
3
40
0.0
40
0.0
40
0.0
40
1.0
40
1.0
40
1.0
10
405.29
20
-164.37
10
405.85
20
-163.51
10
406.96
20
-163.78
72
4
94
2
73
0
74
0
95
6
96
3
40
0.0
40
0.0
40
0.0
40
1.0
40
1.0
40
1.0
10
406.96
20
-163.78
10
407.5
20
-163.91
10
407.92
20
-163.84
72
4
94
2
73
0
74
0
95
6
96
3
40
0.0
40
0.0
40
0.0
40
1.0
40
1.0
40
1.0
10
407.92
20
-163.84
10
410.56
20
-163.39
10
410.37
20
-165.93
72
4
94
3
73
0
74
0
95
8
96
4
40
0.0
40
0.0
40
0.0
40
0.0
40
1.0
40
1.0
40
1.0
40
1.0
10
410.37
20
-165.93
10
410.345347108
20
-166.2628140423
10
410.4834710798
20
-166.5697562019
10
410.73
20
-166.73
72
4
94
2
73
0
74
0
95
6
96
3
40
0.0
40
0.0
40
0.0
40
1.0
40
1.0
40
1.0
10
410.73
20
-166.73
10
412.85
20
-168.13
10
415.33
20
-168.31
72
4
94
2
73
0
74
0
95
6
96
3
40
0.0
40
0.0
40
0.0
40
1.0
40
1.0
40
1.0
10
415.33
20
-168.31
10
418.15
20
-168.52
10
419.6
20
-168.81
72
4
94
2
73
0
74
0
95
6
96
3
40
0.0
40
0.0
40
0.0
40
1.0
40
1.0
40
1.0
10
419.6
20
-168.81
10
424.84
20
-169.86
10
431.55
20
-167.9
72
1
10
431.55
20
-167.9
11
431.55
21
-167.9
72
4
94
3
73
0
74
0
95
8
96
4
40
0.0
40
0.0
40
0.0
40
0.0
40
1.0
40
1.0
40
1.0
40
1.0
10
431.55
20
-167.9
10
432.0050708063
20
-167.7677119749
10
432.3887442789
20
-167.4599857175
10
432.6159055897
20
-167.0450877863
72
4
94
3
73
0
74
0
95
8
96
4
40
0.0
40
0.0
40
0.0
40
0.0
40
1.0
40
1.0
40
1.0
40
1.0
10
432.6159055897
20
-167.0450877863
10
432.8430669004
20
-166.6301898551
10
432.8949337856
20
-166.1424250458
10
432.76
20
-165.69
72
4
94
2
73
0
74
0
95
6
96
3
40
0.0
40
0.0
40
0.0
40
1.0
40
1.0
40
1.0
10
432.76
20
-165.69
10
431.87
20
-162.71
10
435.47
20
-163.6
72
4
94
2
73
0
74
0
95
6
96
3
40
0.0
40
0.0
40
0.0
40
1.0
40
1.0
40
1.0
10
435.47
20
-163.6
10
435.62
20
-163.64
10
436.55
20
-163.84
72
4
94
2
73
0
74
0
95
6
96
3
40
0.0
40
0.0
40
0.0
40
1.0
40
1.0
40
1.0
10
436.55
20
-163.84
10
438.42
20
-164.23
10
437.15
20
-165.59
72
1
10
437.15
20
-165.59
11
437.15
21
-165.59
72
4
94
3
73
0
74
0
95
8
96
4
40
0.0
40
0.0
40
0.0
40
0.0
40
1.0
40
1.0
40
1.0
40
1.0
10
437.15
20
-165.59
10
437.0128084551
20
-165.7380797628
10
436.9591852952
20
-165.9454548348
10
437.0078014874
20
-166.1399196034
72
4
94
3
73
0
74
0
95
8
96
4
40
0.0
40
0.0
40
0.0
40
0.0
40
1.0
40
1.0
40
1.0
40
1.0
10
437.0078014874
20
-166.1399196034
10
437.0564176795
20
-166.334384372
10
437.2005450094
20
-166.48902598
10
437.39
20
-166.55
72
4
94
2
73
0
74
0
95
6
96
3
40
0.0
40
0.0
40
0.0
40
1.0
40
1.0
40
1.0
10
437.39
20
-166.55
10
449.47
20
-170.39
10
462.01
20
-168.57
72
4
94
2
73
0
74
0
95
6
96
3
40
0.0
40
0.0
40
0.0
40
1.0
40
1.0
40
1.0
10
462.01
20
-168.57
10
463.64
20
-168.34
10
464.12
20
-166.98
72
1
10
464.12
20
-166.98
11
464.12
21
-166.98
72
4
94
3
73
0
74
0
95
8
96
4
40
0.0
40
0.0
40
0.0
40
0.0
40
1.0
40
1.0
40
1.0
40
1.0
10
464.12
20
-166.98
10
464.214673576
20
-166.7149139873
10
464.1630355802
20
-166.382955443
10
463.98
20
-166.08
72
4
94
2
73
0
74
0
95
6
96
3
40
0.0
40
0.0
40
0.0
40
1.0
40
1.0
40
1.0
10
463.98
20
-166.08
10
462.28
20
-163.24
10
465.8
20
-164.36
72
4
94
2
73
0
74
0
95
6
96
3
40
0.0
40
0.0
40
0.0
40
1.0
40
1.0
40
1.0
10
465.8
20
-164.36
10
467.07
20
-164.76
10
466.9
20
-165.58
72
1
10
466.9
20
-165.58
11
466.9
21
-165.58
72
4
94
3
73
0
74
0
95
8
96
4
40
0.0
40
0.0
40
0.0
40
0.0
40
1.0
40
1.0
40
1.0
40
1.0
10
466.9
20
-165.58
10
466.8194428944
20
-165.9464048995
10
466.8938843551
20
-166.3298935606
10
467.1058027938
20
-166.640202703
72
4
94
3
73
0
74
0
95
8
96
4
40
0.0
40
0.0
40
0.0
40
0.0
40
1.0
40
1.0
40
1.0
40
1.0
10
467.1058027938
20
-166.640202703
10
467.3177212326
20
-166.9505118454
10
467.6483978678
20
-167.1602318249
10
468.02
20
-167.22
72
4
94
2
73
0
74
0
95
6
96
3
40
0.0
40
0.0
40
0.0
40
1.0
40
1.0
40
1.0
10
468.02
20
-167.22
10
473.99
20
-168.18
10
478.21
20
-168.98
72
4
94
2
73
0
74
0
95
6
96
3
40
0.0
40
0.0
40
0.0
40
1.0
40
1.0
40
1.0
10
478.21
20
-168.98
10
482.99
20
-169.88
10
487.58
20
-168.49
72
4
94
2
73
0
74
0
95
6
96
3
40
0.0
40
0.0
40
0.0
40
1.0
40
1.0
40
1.0
10
487.58
20
-168.49
10
488.17
20
-168.31
10
490.5
20
-167.96
72
4
94
2
73
0
74
0
95
6
96
3
40
0.0
40
0.0
40
0.0
40
1.0
40
1.0
40
1.0
10
490.5
20
-167.96
10
493.28
20
-167.54
10
491.53
20
-164.26
72
4
94
2
73
0
74
0
95
6
96
3
40
0.0
40
0.0
40
0.0
40
1.0
40
1.0
40
1.0
10
491.53
20
-164.26
10
490.15
20
-161.65
10
492.33
20
-162.98
72
4
94
2
73
0
74
0
95
6
96
3
40
0.0
40
0.0
40
0.0
40
1.0
40
1.0
40
1.0
10
492.33
20
-162.98
10
492.76
20
-163.24
10
493.24
20
-163.28
72
1
10
493.24
20
-163.28
11
498.4
21
-163.74
72
4
94
3
73
0
74
0
95
8
96
4
40
0.0
40
0.0
40
0.0
40
0.0
40
1.0
40
1.0
40
1.0
40
1.0
10
498.4
20
-163.74
10
498.9342373802
20
-163.7885670346
10
499.390015379
20
-164.1539752578
10
499.56
20
-164.67
72
4
94
2
73
0
74
0
95
6
96
3
40
0.0
40
0.0
40
0.0
40
1.0
40
1.0
40
1.0
10
499.56
20
-164.67
10
500.62
20
-167.91
10
503.75
20
-168.23
72
4
94
2
73
0
74
0
95
6
96
3
40
0.0
40
0.0
40
0.0
40
1.0
40
1.0
40
1.0
10
503.75
20
-168.23
10
506.09
20
-168.47
10
506.23
20
-168.5
72
4
94
2
73
0
74
0
95
6
96
3
40
0.0
40
0.0
40
0.0
40
1.0
40
1.0
40
1.0
10
506.23
20
-168.5
10
515.26
20
-170.2
10
524.19
20
-167.9
72
4
94
2
73
0
74
0
95
6
96
3
40
0.0
40
0.0
40
0.0
40
1.0
40
1.0
40
1.0
10
524.19
20
-167.9
10
524.93
20
-167.71
10
525.17
20
-167.34
72
4
94
2
73
0
74
0
95
6
96
3
40
0.0
40
0.0
40
0.0
40
1.0
40
1.0
40
1.0
10
525.17
20
-167.34
10
525.49
20
-166.87
10
525.09
20
-166.35
72
1
10
525.09
20
-166.35
11
525.09
21
-166.35
72
4
94
3
73
0
74
0
95
8
96
4
40
0.0
40
0.0
40
0.0
40
0.0
40
1.0
40
1.0
40
1.0
40
1.0
10
525.09
20
-166.35
10
524.8634628009
20
-166.0542431012
10
524.7596584002
20
-165.739122599
10
524.81
20
-165.5
72
4
94
2
73
0
74
0
95
6
96
3
40
0.0
40
0.0
40
0.0
40
1.0
40
1.0
40
1.0
10
524.81
20
-165.5
10
525.26
20
-163.23
10
528.81
20
-166.18
72
4
94
2
73
0
74
0
95
6
96
3
40
0.0
40
0.0
40
0.0
40
1.0
40
1.0
40
1.0
10
528.81
20
-166.18
10
529.77
20
-166.99
10
530.99
20
-167.3
72
4
94
2
73
0
74
0
95
6
96
3
40
0.0
40
0.0
40
0.0
40
1.0
40
1.0
40
1.0
10
530.99
20
-167.3
10
542.74
20
-170.32
10
555.55
20
-168.38
72
1
10
555.55
20
-168.38
11
555.55
21
-168.38
72
4
94
3
73
0
74
0
95
8
96
4
40
0.0
40
0.0
40
0.0
40
0.0
40
1.0
40
1.0
40
1.0
40
1.0
10
555.55
20
-168.38
10
555.8864901387
20
-168.328562017
10
556.1730755848
20
-168.1076157669
10
556.3074991055
20
-167.7959976052
72
4
94
3
73
0
74
0
95
8
96
4
40
0.0
40
0.0
40
0.0
40
0.0
40
1.0
40
1.0
40
1.0
40
1.0
10
556.3074991055
20
-167.7959976052
10
556.4419226263
20
-167.4843794435
10
556.4050356855
20
-167.1264791585
10
556.21
20
-166.85
72
4
94
2
73
0
74
0
95
6
96
3
40
0.0
40
0.0
40
0.0
40
1.0
40
1.0
40
1.0
10
556.21
20
-166.85
10
553.88
20
-163.55
10
557.02
20
-164.11
72
4
94
2
73
0
74
0
95
6
96
3
40
0.0
40
0.0
40
0.0
40
1.0
40
1.0
40
1.0
10
557.02
20
-164.11
10
559.96
20
-164.63
10
558.19
20
-165.75
72
4
94
3
73
0
74
0
95
8
96
4
40
0.0
40
0.0
40
0.0
40
0.0
40
1.0
40
1.0
40
1.0
40
1.0
10
558.19
20
-165.75
10
557.8763996126
20
-165.9444322402
10
557.675088031
20
-166.2240316591
10
557.65
20
-166.5
72
4
94
2
73
0
74
0
95
6
96
3
40
0.0
40
0.0
40
0.0
40
1.0
40
1.0
40
1.0
10
557.65
20
-166.5
10
557.58
20
-167.25
10
558.23
20
-167.15
72
4
94
2
73
0
74
0
95
6
96
3
40
0.0
40
0.0
40
0.0
40
1.0
40
1.0
40
1.0
10
558.23
20
-167.15
10
558.69
20
-167.08
10
558.91
20
-167.12
72
4
94
2
73
0
74
0
95
6
96
3
40
0.0
40
0.0
40
0.0
40
1.0
40
1.0
40
1.0
10
558.91
20
-167.12
10
565.08
20
-168.07
10
571.25
20
-169.0
72
4
94
2
73
0
74
0
95
6
96
3
40
0.0
40
0.0
40
0.0
40
1.0
40
1.0
40
1.0
10
571.25
20
-169.0
10
577.82
20
-169.99
10
587.95
20
-168.27
72
1
10
587.95
20
-168.27
11
587.95
21
-168.27
72
4
94
3
73
0
74
0
95
8
96
4
40
0.0
40
0.0
40
0.0
40
0.0
40
1.0
40
1.0
40
1.0
40
1.0
10
587.95
20
-168.27
10
588.3027870124
20
-168.2122712162
10
588.6003993392
20
-168.0509151354
10
588.78
20
-167.82
72
4
94
2
73
0
74
0
95
6
96
3
40
0.0
40
0.0
40
0.0
40
1.0
40
1.0
40
1.0
10
588.78
20
-167.82
10
589.62
20
-166.78
10
588.99
20
-165.45
72
1
10
588.99
20
-165.45
11
588.99
21
-165.45
72
4
94
3
73
0
74
0
95
8
96
4
40
0.0
40
0.0
40
0.0
40
0.0
40
1.0
40
1.0
40
1.0
40
1.0
10
588.99
20
-165.45
10
588.9324090896
20
-165.3217293359
10
588.9211846545
20
-165.1789379638
10
588.9589071904
20
-165.0544535952
72
4
94
3
73
0
74
0
95
8
96
4
40
0.0
40
0.0
40
0.0
40
0.0
40
1.0
40
1.0
40
1.0
40
1.0
10
588.9589071904
20
-165.0544535952
10
588.9966297264
20
-164.9299692266
10
589.0800537165
20
-164.8345020672
10
589.19
20
-164.79
72
4
94
2
73
0
74
0
95
6
96
3
40
0.0
40
0.0
40
0.0
40
1.0
40
1.0
40
1.0
10
589.19
20
-164.79
10
590.99
20
-164.05
10
591.97
20
-165.87
72
1
10
591.97
20
-165.87
11
591.97
21
-165.87
72
4
94
3
73
0
74
0
95
8
96
4
40
0.0
40
0.0
40
0.0
40
0.0
40
1.0
40
1.0
40
1.0
40
1.0
10
591.97
20
-165.87
10
592.130815984
20
-166.1594687711
10
592.3769638682
20
-166.3735104096
10
592.66
20
-166.47
72
4
94
2
73
0
74
0
95
6
96
3
40
0.0
40
0.0
40
0.0
40
1.0
40
1.0
40
1.0
10
592.66
20
-166.47
10
598.09
20
-168.23
10
600.25
20
-168.25
72
4
94
2
73
0
74
0
95
6
96
3
40
0.0
40
0.0
40
0.0
40
1.0
40
1.0
40
1.0
10
600.25
20
-168.25
10
603.62
20
-168.28
10
606.95
20
-168.72
72
4
94
2
73
0
74
0
95
6
96
3
40
0.0
40
0.0
40
0.0
40
1.0
40
1.0
40
1.0
10
606.95
20
-168.72
10
611.24
20
-169.28
10
613.59
20
-169.14
72
4
94
2
73
0
74
0
95
6
96
3
40
0.0
40
0.0
40
0.0
40
1.0
40
1.0
40
1.0
10
613.59
20
-169.14
10
617.49
20
-168.91
10
622.37
20
-168.19
72
1
10
622.37
20
-168.19
11
622.37
21
-168.19
72
4
94
3
73
0
74
0
95
8
96
4
40
0.0
40
0.0
40
0.0
40
0.0
40
1.0
40
1.0
40
1.0
40
1.0
10
622.37
20
-168.19
10
623.2621965078
20
-168.0600111048
10
623.9577368633
20
-167.3521965078
10
624.07
20
-166.46
72
4
94
2
73
0
74
0
95
6
96
3
40
0.0
40
0.0
40
0.0
40
1.0
40
1.0
40
1.0
10
624.07
20
-166.46
10
624.29
20
-164.72
10
622.24
20
-164.93
72
1
10
622.24
20
-164.93
11
622.24
21
-164.93
72
4
94
3
73
0
74
0
95
8
96
4
40
0.0
40
0.0
40
0.0
40
0.0
40
1.0
40
1.0
40
1.0
40
1.0
10
622.24
20
-164.93
10
621.8852362271
20
-164.967343555
10
621.5642699235
20
-164.8616134785
10
621.39
20
-164.65
72
4
94
2
73
0
74
0
95
6
96
3
40
0.0
40
0.0
40
0.0
40
1.0
40
1.0
40
1.0
10
621.39
20
-164.65
10
620.82
20
-163.99
10
621.74
20
-163.81
72
1
10
621.74
20
-163.81
11
621.74
21
-163.81
72
4
94
3
73
0
74
0
95
8
96
4
40
0.0
40
0.0
40
0.0
40
0.0
40
1.0
40
1.0
40
1.0
40
1.0
10
621.74
20
-163.81
10
621.9948365523
20
-163.7590326895
10
622.3250833958
20
-163.8461307582
10
622.65
20
-164.05
72
4
94
2
73
0
74
0
95
6
96
3
40
0.0
40
0.0
40
0.0
40
1.0
40
1.0
40
1.0
10
622.65
20
-164.05
10
623.7
20
-164.72
10
625.02
20
-164.33
72
4
94
2
73
0
74
0
95
6
96
3
40
0.0
40
0.0
40
0.0
40
1.0
40
1.0
40
1.0
10
625.02
20
-164.33
10
627.2
20
-163.68
10
627.5
20
-165.34
72
1
10
627.5
20
-165.34
11
627.5
21
-165.34
72
4
94
3
73
0
74
0
95
8
96
4
40
0.0
40
0.0
40
0.0
40
0.0
40
1.0
40
1.0
40
1.0
40
1.0
10
627.5
20
-165.34
10
627.681195467
20
-166.3305352198
10
628.4455046291
20
-167.1106849863
10
629.43
20
-167.31
72
4
94
2
73
0
74
0
95
6
96
3
40
0.0
40
0.0
40
0.0
40
1.0
40
1.0
40
1.0
10
629.43
20
-167.31
10
642.63
20
-169.99
10
655.97
20
-168.41
72
4
94
2
73
0
74
0
95
6
96
3
40
0.0
40
0.0
40
0.0
40
1.0
40
1.0
40
1.0
10
655.97
20
-168.41
10
656.45
20
-168.35
10
658.54
20
-168.29
72
4
94
2
73
0
74
0
95
6
96
3
40
0.0
40
0.0
40
0.0
40
1.0
40
1.0
40
1.0
10
658.54
20
-168.29
10
662.06
20
-168.19
10
659.57
20
-165.13
72
4
94
3
73
0
74
0
95
8
96
4
40
0.0
40
0.0
40
0.0
40
0.0
40
1.0
40
1.0
40
1.0
40
1.0
10
659.57
20
-165.13
10
659.483150831
20
-165.022096487
10
659.440561616
20
-164.8859695289
10
659.4518520311
20
-164.7523662825
72
4
94
3
73
0
74
0
95
8
96
4
40
0.0
40
0.0
40
0.0
40
0.0
40
1.0
40
1.0
40
1.0
40
1.0
10
659.4518520311
20
-164.7523662825
10
659.4631424463
20
-164.6187630362
10
659.527360073
20
-164.49895379
10
659.63
20
-164.42
72
4
94
2
73
0
74
0
95
6
96
3
40
0.0
40
0.0
40
0.0
40
1.0
40
1.0
40
1.0
10
659.63
20
-164.42
10
660.57
20
-163.68
10
661.75
20
-163.71
72
1
10
661.75
20
-163.71
11
661.75
21
-163.71
72
4
94
3
73
0
74
0
95
8
96
4
40
0.0
40
0.0
40
0.0
40
0.0
40
1.0
40
1.0
40
1.0
40
1.0
10
661.75
20
-163.71
10
662.0405148144
20
-163.7164558848
10
662.3523969551
20
-163.8475881485
10
662.63
20
-164.08
72
4
94
2
73
0
74
0
95
6
96
3
40
0.0
40
0.0
40
0.0
40
1.0
40
1.0
40
1.0
10
662.63
20
-164.08
10
667.24
20
-168.07
10
673.2
20
-168.33
72
4
94
2
73
0
74
0
95
6
96
3
40
0.0
40
0.0
40
0.0
40
1.0
40
1.0
40
1.0
10
673.2
20
-168.33
10
678.62
20
-168.56
10
678.8
20
-168.58
72
4
94
2
73
0
74
0
95
6
96
3
40
0.0
40
0.0
40
0.0
40
1.0
40
1.0
40
1.0
10
678.8
20
-168.58
10
687.08
20
-169.43
10
695.39
20
-168.68
72
4
94
2
73
0
74
0
95
6
96
3
40
0.0
40
0.0
40
0.0
40
1.0
40
1.0
40
1.0
10
695.39
20
-168.68
10
695.54
20
-168.66
10
697.74
20
-168.56
72
4
94
2
73
0
74
0
95
6
96
3
40
0.0
40
0.0
40
0.0
40
1.0
40
1.0
40
1.0
10
697.74
20
-168.56
10
702.48
20
-168.33
10
699.15
20
-164.44
72
4
94
2
73
0
74
0
95
6
96
3
40
0.0
40
0.0
40
0.0
40
1.0
40
1.0
40
1.0
10
699.15
20
-164.44
10
698.81
20
-164.05
10
699.3
20
-163.98
72
4
94
2
73
0
74
0
95
6
96
3
40
0.0
40
0.0
40
0.0
40
1.0
40
1.0
40
1.0
10
699.3
20
-163.98
10
702.34
20
-163.52
10
704.66
20
-165.25
72
4
94
2
73
0
74
0
95
6
96
3
40
0.0
40
0.0
40
0.0
40
1.0
40
1.0
40
1.0
10
704.66
20
-165.25
10
706.78
20
-166.83
10
707.73
20
-167.09
72
4
94
2
73
0
74
0
95
6
96
3
40
0.0
40
0.0
40
0.0
40
1.0
40
1.0
40
1.0
10
707.73
20
-167.09
10
709.2
20
-167.48
10
710.74
20
-167.53
72
4
94
2
73
0
74
0
95
6
96
3
40
0.0
40
0.0
40
0.0
40
1.0
40
1.0
40
1.0
10
710.74
20
-167.53
10
713.08
20
-167.61
10
713.75
20
-167.69
72
4
94
2
73
0
74
0
95
6
96
3
40
0.0
40
0.0
40
0.0
40
1.0
40
1.0
40
1.0
10
713.75
20
-167.69
10
716.27
20
-168.0
10
718.79
20
-168.23
72
4
94
2
73
0
74
0
95
6
96
3
40
0.0
40
0.0
40
0.0
40
1.0
40
1.0
40
1.0
10
718.79
20
-168.23
10
719.88
20
-168.33
10
723.8
20
-168.92
72
4
94
2
73
0
74
0
95
6
96
3
40
0.0
40
0.0
40
0.0
40
1.0
40
1.0
40
1.0
10
723.8
20
-168.92
10
728.72
20
-169.65
10
733.58
20
-168.71
72
4
94
2
73
0
74
0
95
6
96
3
40
0.0
40
0.0
40
0.0
40
1.0
40
1.0
40
1.0
10
733.58
20
-168.71
10
737.58
20
-167.94
10
739.5
20
-167.88
72
4
94
2
73
0
74
0
95
6
96
3
40
0.0
40
0.0
40
0.0
40
1.0
40
1.0
40
1.0
10
739.5
20
-167.88
10
742.5
20
-167.78
10
745.5
20
-167.75
72
1
10
745.5
20
-167.75
11
745.5
21
-167.75
72
4
94
3
73
0
74
0
95
8
96
4
40
0.0
40
0.0
40
0.0
40
0.0
40
1.0
40
1.0
40
1.0
40
1.0
10
745.5
20
-167.75
10
745.8804946763
20
-167.75
10
746.2011227709
20
-167.6032064145
10
746.33
20
-167.37
72
4
94
2
73
0
74
0
95
6
96
3
40
0.0
40
0.0
40
0.0
40
1.0
40
1.0
40
1.0
10
746.33
20
-167.37
10
746.56
20
-166.95
10
746.25
20
-166.45
72
1
10
746.25
20
-166.45
11
746.25
21
-166.45
72
4
94
3
73
0
74
0
95
8
96
4
40
0.0
40
0.0
40
0.0
40
0.0
40
1.0
40
1.0
40
1.0
40
1.0
10
746.25
20
-166.45
10
746.1127487687
20
-166.225407076
10
745.8080828476
20
-166.0749547693
10
745.44
20
-166.05
72
4
94
2
73
0
74
0
95
6
96
3
40
0.0
40
0.0
40
0.0
40
1.0
40
1.0
40
1.0
10
745.44
20
-166.05
10
744.39
20
-165.98
10
743.48
20
-165.46
72
1
10
743.48
20
-165.46
11
743.48
21
-165.46
72
4
94
3
73
0
74
0
95
8
96
4
40
0.0
40
0.0
40
0.0
40
0.0
40
1.0
40
1.0
40
1.0
40
1.0
10
743.48
20
-165.46
10
743.1902544666
20
-165.2935504383
10
743.0138352014
20
-164.9982399292
10
743.02
20
-164.69
72
4
94
2
73
0
74
0
95
6
96
3
40
0.0
40
0.0
40
0.0
40
1.0
40
1.0
40
1.0
10
743.02
20
-164.69
10
743.04
20
-163.67
10
744.0
20
-163.37
72
4
94
2
73
0
74
0
95
6
96
3
40
0.0
40
0.0
40
0.0
40
1.0
40
1.0
40
1.0
10
744.0
20
-163.37
10
744.57
20
-163.19
10
745.47
20
-163.46
72
4
94
2
73
0
74
0
95
6
96
3
40
0.0
40
0.0
40
0.0
40
1.0
40
1.0
40
1.0
10
745.47
20
-163.46
10
747.75
20
-164.14
10
749.95
20
-165.07
72
4
94
2
73
0
74
0
95
6
96
3
40
0.0
40
0.0
40
0.0
40
1.0
40
1.0
40
1.0
10
749.95
20
-165.07
10
751.29
20
-165.63
10
749.89
20
-166.03
72
4
94
2
73
0
74
0
95
6
96
3
40
0.0
40
0.0
40
0.0
40
1.0
40
1.0
40
1.0
10
749.89
20
-166.03
10
745.69
20
-167.23
10
749.02
20
-168.35
72
1
10
749.02
20
-168.35
11
749.02
21
-168.35
72
4
94
3
73
0
74
0
95
8
96
4
40
0.0
40
0.0
40
0.0
40
0.0
40
1.0
40
1.0
40
1.0
40
1.0
10
749.02
20
-168.35
10
749.300751517
20
-168.443583839
10
749.6279652508
20
-168.3758844458
10
749.89
20
-168.17
72
4
94
2
73
0
74
0
95
6
96
3
40
0.0
40
0.0
40
0.0
40
1.0
40
1.0
40
1.0
10
749.89
20
-168.17
10
751.8
20
-166.69
10
754.26
20
-167.14
72
4
94
2
73
0
74
0
95
6
96
3
40
0.0
40
0.0
40
0.0
40
1.0
40
1.0
40
1.0
10
754.26
20
-167.14
10
754.76
20
-167.23
10
755.22
20
-167.09
72
4
94
2
73
0
74
0
95
6
96
3
40
0.0
40
0.0
40
0.0
40
1.0
40
1.0
40
1.0
10
755.22
20
-167.09
10
757.84
20
-166.27
10
760.33
20
-166.97
72
4
94
2
73
0
74
0
95
6
96
3
40
0.0
40
0.0
40
0.0
40
1.0
40
1.0
40
1.0
10
760.33
20
-166.97
10
763.43
20
-167.84
10
764.32
20
-167.91
72
4
94
2
73
0
74
0
95
6
96
3
40
0.0
40
0.0
40
0.0
40
1.0
40
1.0
40
1.0
10
764.32
20
-167.91
10
774.93
20
-168.7
10
785.56
20
-169.05
72
4
94
3
73
0
74
0
95
8
96
4
40
0.0
40
0.0
40
0.0
40
0.0
40
1.0
40
1.0
40
1.0
40
1.0
10
785.56
20
-169.05
10
785.9558691802
20
-169.0625672756
10
786.2829090555
20
-169.1852072288
10
786.44
20
-169.38
72
1
10
786.44
20
-169.38
11
787.0
21
-170.06
97
0
75
0
76
1
98
0
0
HATCH
5
20a
100
AcDbEntity
8
Layer 3
6
ByLayer
370
-1
62
256
100
AcDbHatch
10
0
20
0
30
0
210
0
220
0
230
1
2
FILL_522
70
1
71
0
91
1
92
0
93
20
72
4
94
2
73
0
74
0
95
6
96
3
40
0.0
40
0.0
40
0.0
40
1.0
40
1.0
40
1.0
10
49.44
20
-149.56
10
43.83
20
-147.79
10
42.03
20
-147.12
72
4
94
3
73
0
74
0
95
8
96
4
40
0.0
40
0.0
40
0.0
40
0.0
40
1.0
40
1.0
40
1.0
40
1.0
10
42.03
20
-147.12
10
41.7364336753
20
-147.0115080974
10
41.4976375325
20
-146.7799482013
10
41.37
20
-146.48
72
4
94
2
73
0
74
0
95
6
96
3
40
0.0
40
0.0
40
0.0
40
1.0
40
1.0
40
1.0
10
41.37
20
-146.48
10
30.04
20
-119.73
10
18.88
20
-92.91
72
4
94
2
73
0
74
0
95
6
96
3
40
0.0
40
0.0
40
0.0
40
1.0
40
1.0
40
1.0
10
18.88
20
-92.91
10
18.84
20
-92.83
10
18.0
20
-91.14
72
4
94
2
73
0
74
0
95
6
96
3
40
0.0
40
0.0
40
0.0
40
1.0
40
1.0
40
1.0
10
18.0
20
-91.14
10
16.74
20
-88.63
10
17.79
20
-85.99
72
4
94
2
73
0
74
0
95
6
96
3
40
0.0
40
0.0
40
0.0
40
1.0
40
1.0
40
1.0
10
17.79
20
-85.99
10
18.55
20
-84.04
10
18.58
20
-83.95
72
4
94
2
73
0
74
0
95
6
96
3
40
0.0
40
0.0
40
0.0
40
1.0
40
1.0
40
1.0
10
18.58
20
-83.95
10
30.4
20
-46.23
10
42.15
20
-8.82
72
4
94
3
73
0
74
0
95
8
96
4
40
0.0
40
0.0
40
0.0
40
0.0
40
1.0
40
1.0
40
1.0
40
1.0
10
42.15
20
-8.82
10
42.3250733446
20
-8.2645949067
10
42.8204468591
20
-7.8722590832
10
43.4
20
-7.83
72
4
94
2
73
0
74
0
95
6
96
3
40
0.0
40
0.0
40
0.0
40
1.0
40
1.0
40
1.0
10
43.4
20
-7.83
10
87.63
20
-4.52
10
130.75
20
-1.25
72
4
94
2
73
0
74
0
95
6
96
3
40
0.0
40
0.0
40
0.0
40
1.0
40
1.0
40
1.0
10
130.75
20
-1.25
10
134.34
20
-0.98
10
136.01
20
-1.62
72
4
94
2
73
0
74
0
95
6
96
3
40
0.0
40
0.0
40
0.0
40
1.0
40
1.0
40
1.0
10
136.01
20
-1.62
10
156.28
20
-9.42
10
176.26
20
-17.07
72
4
94
3
73
0
74
0
95
8
96
4
40
0.0
40
0.0
40
0.0
40
0.0
40
1.0
40
1.0
40
1.0
40
1.0
10
176.26
20
-17.07
10
176.6377500102
20
-17.2172584785
10
176.9399364364
20
-17.5050550749
10
177.1
20
-17.87
72
4
94
2
73
0
74
0
95
6
96
3
40
0.0
40
0.0
40
0.0
40
1.0
40
1.0
40
1.0
10
177.1
20
-17.87
10
189.2
20
-45.15
10
201.3
20
-72.22
72
4
94
2
73
0
74
0
95
6
96
3
40
0.0
40
0.0
40
0.0
40
1.0
40
1.0
40
1.0
10
201.3
20
-72.22
10
202.15
20
-74.12
10
201.74
20
-75.8
72
4
94
2
73
0
74
0
95
6
96
3
40
0.0
40
0.0
40
0.0
40
1.0
40
1.0
40
1.0
10
201.74
20
-75.8
10
201.4
20
-77.22
10
200.69
20
-79.44
72
4
94
2
73
0
74
0
95
6
96
3
40
0.0
40
0.0
40
0.0
40
1.0
40
1.0
40
1.0
10
200.69
20
-79.44
10
188.87
20
-116.58
10
177.08
20
-153.24
72
4
94
3
73
0
74
0
95
8
96
4
40
0.0
40
0.0
40
0.0
40
0.0
40
1.0
40
1.0
40
1.0
40
1.0
10
177.08
20
-153.24
10
176.9226147772
20
-153.7303155019
10
176.4845286131
20
-154.0776270554
10
175.97
20
-154.12
72
4
94
2
73
0
74
0
95
6
96
3
40
0.0
40
0.0
40
0.0
40
1.0
40
1.0
40
1.0
10
175.97
20
-154.12
10
131.29
20
-157.57
10
88.21
20
-160.8
72
4
94
2
73
0
74
0
95
6
96
3
40
0.0
40
0.0
40
0.0
40
1.0
40
1.0
40
1.0
10
88.21
20
-160.8
10
85.5
20
-161.0
10
82.91
20
-160.18
72
4
94
2
73
0
74
0
95
6
96
3
40
0.0
40
0.0
40
0.0
40
1.0
40
1.0
40
1.0
10
82.91
20
-160.18
10
66.18
20
-154.86
10
49.44
20
-149.56
97
0
75
0
76
1
98
0
0
HATCH
5
220
100
AcDbEntity
8
Layer 4
6
ByLayer
370
-1
62
256
100
AcDbHatch
10
0
20
0
30
0
210
0
220
0
230
1
2
FILL_544
70
1
71
0
91
1
92
0
93
19
72
1
10
295.69
20
-87.01
11
295.75
21
-44.06
72
4
94
3
73
0
74
0
95
8
96
4
40
0.0
40
0.0
40
0.0
40
0.0
40
1.0
40
1.0
40
1.0
40
1.0
10
295.75
20
-44.06
10
295.75
20
-43.7507205401
10
295.9962433876
20
-43.5
10
296.3
20
-43.5
72
1
10
296.3
20
-43.5
11
311.69
21
-43.5
72
1
10
311.69
20
-43.5
11
311.69
21
-43.5
72
4
94
3
73
0
74
0
95
8
96
4
40
0.0
40
0.0
40
0.0
40
0.0
40
1.0
40
1.0
40
1.0
40
1.0
10
311.69
20
-43.5
10
312.1373506474
20
-43.5
10
312.5
20
-43.8626493526
10
312.5
20
-44.31
72
1
10
312.5
20
-44.31
11
312.5
21
-122.3
72
4
94
2
73
0
74
0
95
6
96
3
40
0.0
40
0.0
40
0.0
40
1.0
40
1.0
40
1.0
10
312.5
20
-122.3
10
312.5
20
-122.81
10
312.11
20
-122.48
72
1
10
312.11
20
-122.48
11
259.82
21
-77.43
72
4
94
2
73
0
74
0
95
6
96
3
40
0.0
40
0.0
40
0.0
40
1.0
40
1.0
40
1.0
10
259.82
20
-77.43
10
258.95
20
-76.68
10
258.94
20
-77.83
72
1
10
258.94
20
-77.83
11
258.57
21
-119.82
72
1
10
258.57
20
-119.82
11
258.57
21
-119.82
72
4
94
3
73
0
74
0
95
8
96
4
40
0.0
40
0.0
40
0.0
40
0.0
40
1.0
40
1.0
40
1.0
40
1.0
10
258.57
20
-119.82
10
258.564445728
20
-120.1032678723
10
258.3377136003
20
-120.33
10
258.06
20
-120.33
72
1
10
258.06
20
-120.33
11
242.76
21
-120.49
72
1
10
242.76
20
-120.49
11
242.76
21
-120.49
72
4
94
3
73
0
74
0
95
8
96
4
40
0.0
40
0.0
40
0.0
40
0.0
40
1.0
40
1.0
40
1.0
40
1.0
10
242.76
20
-120.49
10
242.4783347776
20
-120.49
10
242.25
20
-120.2571880699
10
242.25
20
-119.97
72
1
10
242.25
20
-119.97
11
242.25
21
-41.82
72
4
94
2
73
0
74
0
95
6
96
3
40
0.0
40
0.0
40
0.0
40
1.0
40
1.0
40
1.0
10
242.25
20
-41.82
10
242.25
20
-41.07
10
242.81
20
-41.57
72
1
10
242.81
20
-41.57
11
294.85
21
-87.38
72
4
94
2
73
0
74
0
95
6
96
3
40
0.0
40
0.0
40
0.0
40
1.0
40
1.0
40
1.0
10
294.85
20
-87.38
10
295.69
20
-88.13
10
295.69
20
-87.01
97
0
75
0
76
1
98
0
0
HATCH
5
237
100
AcDbEntity
8
Layer 4
6
ByLayer
370
-1
62
256
100
AcDbHatch
10
0
20
0
30
0
210
0
220
0
230
1
2
FILL_567
70
1
71
0
91
1
92
0
93
22
72
1
10
679.39
20
-109.17
11
673.99
21
-120.01
72
1
10
673.99
20
-120.01
11
673.99
21
-120.01
72
4
94
3
73
0
74
0
95
8
96
4
40
0.0
40
0.0
40
0.0
40
0.0
40
1.0
40
1.0
40
1.0
40
1.0
10
673.99
20
-120.01
10
673.8431184641
20
-120.3098831358
10
673.5327235838
20
-120.5
10
673.19
20
-120.5
72
1
10
673.19
20
-120.5
11
656.23
21
-120.5
72
1
10
656.23
20
-120.5
11
656.23
21
-120.5
72
4
94
3
73
0
74
0
95
8
96
4
40
0.0
40
0.0
40
0.0
40
0.0
40
1.0
40
1.0
40
1.0
40
1.0
10
656.23
20
-120.5
10
656.0364909594
20
-120.5
10
655.8565246417
20
-120.3996109777
10
655.7560964343
20
-120.2356465575
72
4
94
3
73
0
74
0
95
8
96
4
40
0.0
40
0.0
40
0.0
40
0.0
40
1.0
40
1.0
40
1.0
40
1.0
10
655.7560964343
20
-120.2356465575
10
655.6556682269
20
-120.0716821372
10
655.6495555571
20
-119.868268731
10
655.74
20
-119.7
72
1
10
655.74
20
-119.7
11
697.58
21
-41.57
72
4
94
2
73
0
74
0
95
6
96
3
40
0.0
40
0.0
40
0.0
40
1.0
40
1.0
40
1.0
10
697.58
20
-41.57
10
697.82
20
-41.12
10
698.06
20
-41.57
72
1
10
698.06
20
-41.57
11
739.99
21
-119.81
72
1
10
739.99
20
-119.81
11
739.99
21
-119.81
72
4
94
3
73
0
74
0
95
8
96
4
40
0.0
40
0.0
40
0.0
40
0.0
40
1.0
40
1.0
40
1.0
40
1.0
10
739.99
20
-119.81
10
740.0678704382
20
-119.9552178443
10
740.0641088915
20
-120.1306645663
10
739.9800935975
20
-120.2720561585
72
4
94
3
73
0
74
0
95
8
96
4
40
0.0
40
0.0
40
0.0
40
0.0
40
1.0
40
1.0
40
1.0
40
1.0
10
739.9800935975
20
-120.2720561585
10
739.8960783036
20
-120.4134477508
10
739.7441593022
20
-120.5
10
739.58
20
-120.5
72
1
10
739.58
20
-120.5
11
722.63
21
-120.5
72
4
94
3
73
0
74
0
95
8
96
4
40
0.0
40
0.0
40
0.0
40
0.0
40
1.0
40
1.0
40
1.0
40
1.0
10
722.63
20
-120.5
10
722.248670102
20
-120.5
10
721.8983639846
20
-120.2882765224
10
721.72
20
-119.95
72
1
10
721.72
20
-119.95
11
715.95
21
-108.94
72
1
10
715.95
20
-108.94
11
715.95
21
-108.94
72
4
94
3
73
0
74
0
95
8
96
4
40
0.0
40
0.0
40
0.0
40
0.0
40
1.0
40
1.0
40
1.0
40
1.0
10
715.95
20
-108.94
10
715.8086219668
20
-108.6695376756
10
715.5311966795
20
-108.5
10
715.23
20
-108.5
72
1
10
715.23
20
-108.5
11
680.46
21
-108.5
72
1
10
680.46
20
-108.5
11
680.46
21
-108.5
72
4
94
3
73
0
74
0
95
8
96
4
40
0.0
40
0.0
40
0.0
40
0.0
40
1.0
40
1.0
40
1.0
40
1.0
10
680.46
20
-108.5
10
680.0069356504
20
-108.5
10
679.5920422099
20
-108.7597930889
10
679.39
20
-109.17
72
1
10
679.39
20
-109.17
11
679.39
21
-109.17
97
0
75
0
76
1
98
0
0
HATCH
5
240
100
AcDbEntity
8
Layer 4
6
ByLayer
370
-1
62
256
100
AcDbHatch
10
0
20
0
30
0
210
0
220
0
230
1
2
FILL_576
70
1
71
0
91
1
92
0
93
8
72
4
94
3
73
0
74
0
95
8
96
4
40
0.0
40
0.0
40
0.0
40
0.0
40
1.0
40
1.0
40
1.0
40
1.0
10
644.99
20
-120.13
10
644.99
20
-120.3343453574
10
644.8243453574
20
-120.5
10
644.62
20
-120.5
72
1
10
644.62
20
-120.5
11
628.62
21
-120.5
72
4
94
3
73
0
74
0
95
8
96
4
40
0.0
40
0.0
40
0.0
40
0.0
40
1.0
40
1.0
40
1.0
40
1.0
10
628.62
20
-120.5
10
628.4156546426
20
-120.5
10
628.25
20
-120.3343453574
10
628.25
20
-120.13
72
1
10
628.25
20
-120.13
11
628.25
21
-43.85
72
4
94
3
73
0
74
0
95
8
96
4
40
0.0
40
0.0
40
0.0
40
0.0
40
1.0
40
1.0
40
1.0
40
1.0
10
628.25
20
-43.85
10
628.25
20
-43.6456546426
10
628.4156546426
20
-43.48
10
628.62
20
-43.48
72
1
10
628.62
20
-43.48
11
644.62
21
-43.48
72
4
94
3
73
0
74
0
95
8
96
4
40
0.0
40
0.0
40
0.0
40
0.0
40
1.0
40
1.0
40
1.0
40
1.0
10
644.62
20
-43.48
10
644.8243453574
20
-43.48
10
644.99
20
-43.6456546426
10
644.99
20
-43.85
72
1
10
644.99
20
-43.85
11
644.99
21
-120.13
97
0
75
0
76
1
98
0
0
HATCH
5
26f
100
AcDbEntity
8
Layer 4
6
ByLayer
370
-1
62
256
100
AcDbHatch
10
0
20
0
30
0
210
0
220
0
230
1
2
FILL_623
70
1
71
0
91
1
92
0
93
46
72
4
94
2
73
0
74
0
95
6
96
3
40
0.0
40
0.0
40
0.0
40
1.0
40
1.0
40
1.0
10
415.21
20
-67.38
10
421.42
20
-62.58
10
428.0
20
-61.75
72
4
94
2
73
0
74
0
95
6
96
3
40
0.0
40
0.0
40
0.0
40
1.0
40
1.0
40
1.0
10
428.0
20
-61.75
10
439.74
20
-60.27
10
448.4
20
-68.89
72
1
10
448.4
20
-68.89
11
448.4
21
-68.89
72
4
94
3
73
0
74
0
95
8
96
4
40
0.0
40
0.0
40
0.0
40
0.0
40
1.0
40
1.0
40
1.0
40
1.0
10
448.4
20
-68.89
10
448.595686432
20
-69.091277473
10
448.9131314861
20
-69.1045043502
10
449.12
20
-68.92
72
4
94
2
73
0
74
0
95
6
96
3
40
0.0
40
0.0
40
0.0
40
1.0
40
1.0
40
1.0
10
449.12
20
-68.92
10
460.81
20
-58.71
10
476.5
20
-62.75
72
4
94
2
73
0
74
0
95
6
96
3
40
0.0
40
0.0
40
0.0
40
1.0
40
1.0
40
1.0
10
476.5
20
-62.75
10
480.44
20
-63.76
10
483.43
20
-66.01
72
4
94
2
73
0
74
0
95
6
96
3
40
0.0
40
0.0
40
0.0
40
1.0
40
1.0
40
1.0
10
483.43
20
-66.01
10
486.18
20
-68.07
10
488.17
20
-71.75
72
4
94
2
73
0
74
0
95
6
96
3
40
0.0
40
0.0
40
0.0
40
1.0
40
1.0
40
1.0
10
488.17
20
-71.75
10
491.76
20
-78.4
10
491.75
20
-86.25
72
4
94
2
73
0
74
0
95
6
96
3
40
0.0
40
0.0
40
0.0
40
1.0
40
1.0
40
1.0
10
491.75
20
-86.25
10
491.75
20
-102.5
10
491.75
20
-119.73
72
1
10
491.75
20
-119.73
11
491.75
21
-119.73
72
4
94
3
73
0
74
0
95
8
96
4
40
0.0
40
0.0
40
0.0
40
0.0
40
1.0
40
1.0
40
1.0
40
1.0
10
491.75
20
-119.73
10
491.75
20
-120.1276450199
10
491.4410764774
20
-120.45
10
491.06
20
-120.45
72
1
10
491.06
20
-120.45
11
476.44
21
-120.34
72
1
10
476.44
20
-120.34
11
476.44
21
-120.34
72
4
94
3
73
0
74
0
95
8
96
4
40
0.0
40
0.0
40
0.0
40
0.0
40
1.0
40
1.0
40
1.0
40
1.0
10
476.44
20
-120.34
10
476.1622552583
20
-120.3344451052
10
475.94
20
-120.1032996365
10
475.94
20
-119.82
72
4
94
2
73
0
74
0
95
6
96
3
40
0.0
40
0.0
40
0.0
40
1.0
40
1.0
40
1.0
10
475.94
20
-119.82
10
476.17
20
-104.33
10
475.86
20
-88.85
72
4
94
2
73
0
74
0
95
6
96
3
40
0.0
40
0.0
40
0.0
40
1.0
40
1.0
40
1.0
10
475.86
20
-88.85
10
475.72
20
-82.31
10
474.43
20
-79.86
72
4
94
2
73
0
74
0
95
6
96
3
40
0.0
40
0.0
40
0.0
40
1.0
40
1.0
40
1.0
10
474.43
20
-79.86
10
472.03
20
-75.3
10
465.75
20
-74.77
72
4
94
2
73
0
74
0
95
6
96
3
40
0.0
40
0.0
40
0.0
40
1.0
40
1.0
40
1.0
10
465.75
20
-74.77
10
459.04
20
-74.22
10
455.81
20
-79.06
72
4
94
2
73
0
74
0
95
6
96
3
40
0.0
40
0.0
40
0.0
40
1.0
40
1.0
40
1.0
10
455.81
20
-79.06
10
453.35
20
-82.75
10
453.43
20
-88.16
72
4
94
2
73
0
74
0
95
6
96
3
40
0.0
40
0.0
40
0.0
40
1.0
40
1.0
40
1.0
10
453.43
20
-88.16
10
453.47
20
-91.31
10
453.47
20
-91.34
72
4
94
2
73
0
74
0
95
6
96
3
40
0.0
40
0.0
40
0.0
40
1.0
40
1.0
40
1.0
10
453.47
20
-91.34
10
453.2
20
-105.58
10
453.44
20
-119.99
72
1
10
453.44
20
-119.99
11
453.44
21
-119.99
72
4
94
3
73
0
74
0
95
8
96
4
40
0.0
40
0.0
40
0.0
40
0.0
40
1.0
40
1.0
40
1.0
40
1.0
10
453.44
20
-119.99
10
453.4426339966
20
-120.1243338288
10
453.3911238542
20
-120.2540791164
10
453.2970715425
20
-120.3500124743
72
4
94
3
73
0
74
0
95
8
96
4
40
0.0
40
0.0
40
0.0
40
0.0
40
1.0
40
1.0
40
1.0
40
1.0
10
453.2970715425
20
-120.3500124743
10
453.2030192307
20
-120.4459458323
10
453.0743338288
20
-120.5
10
452.94
20
-120.5
72
1
10
452.94
20
-120.5
11
438.38
21
-120.5
72
1
10
438.38
20
-120.5
11
438.38
21
-120.5
72
4
94
3
73
0
74
0
95
8
96
4
40
0.0
40
0.0
40
0.0
40
0.0
40
1.0
40
1.0
40
1.0
40
1.0
10
438.38
20
-120.5
10
438.1422287202
20
-120.5
10
437.9143422319
20
-120.4048579738
10
437.7471492685
20
-120.2357864378
72
4
94
3
73
0
74
0
95
8
96
4
40
0.0
40
0.0
40
0.0
40
0.0
40
1.0
40
1.0
40
1.0
40
1.0
10
437.7471492685
20
-120.2357864378
10
437.5799563051
20
-120.0667149018
10
437.4873580969
20
-119.8377712798
10
437.49
20
-119.6
72
4
94
2
73
0
74
0
95
6
96
3
40
0.0
40
0.0
40
0.0
40
1.0
40
1.0
40
1.0
10
437.49
20
-119.6
10
437.67
20
-101.62
10
437.25
20
-84.5
72
4
94
2
73
0
74
0
95
6
96
3
40
0.0
40
0.0
40
0.0
40
1.0
40
1.0
40
1.0
10
437.25
20
-84.5
10
437.12
20
-79.1
10
433.07
20
-76.56
72
4
94
2
73
0
74
0
95
6
96
3
40
0.0
40
0.0
40
0.0
40
1.0
40
1.0
40
1.0
10
433.07
20
-76.56
10
429.76
20
-74.49
10
425.13
20
-74.93
72
4
94
2
73
0
74
0
95
6
96
3
40
0.0
40
0.0
40
0.0
40
1.0
40
1.0
40
1.0
10
425.13
20
-74.93
10
418.43
20
-75.56
10
416.14
20
-81.57
72
4
94
2
73
0
74
0
95
6
96
3
40
0.0
40
0.0
40
0.0
40
1.0
40
1.0
40
1.0
10
416.14
20
-81.57
10
415.1
20
-84.29
10
414.92
20
-91.7
72
4
94
2
73
0
74
0
95
6
96
3
40
0.0
40
0.0
40
0.0
40
1.0
40
1.0
40
1.0
10
414.92
20
-91.7
10
414.58
20
-105.37
10
414.76
20
-119.75
72
1
10
414.76
20
-119.75
11
414.76
21
-119.75
72
4
94
3
73
0
74
0
95
8
96
4
40
0.0
40
0.0
40
0.0
40
0.0
40
1.0
40
1.0
40
1.0
40
1.0
10
414.76
20
-119.75
10
414.7626398402
20
-119.9479880127
10
414.6858448694
20
-120.1387784677
10
414.546782743
20
-120.2797198121
72
4
94
3
73
0
74
0
95
8
96
4
40
0.0
40
0.0
40
0.0
40
0.0
40
1.0
40
1.0
40
1.0
40
1.0
10
414.546782743
20
-120.2797198121
10
414.4077206165
20
-120.4206611565
10
414.2179880127
20
-120.5
10
414.02
20
-120.5
72
1
10
414.02
20
-120.5
11
399.66
21
-120.5
72
1
10
399.66
20
-120.5
11
399.66
21
-120.5
72
4
94
3
73
0
74
0
95
8
96
4
40
0.0
40
0.0
40
0.0
40
0.0
40
1.0
40
1.0
40
1.0
40
1.0
10
399.66
20
-120.5
10
399.2954920651
20
-120.5
10
399.0
20
-120.2045079349
10
399.0
20
-119.84
72
1
10
399.0
20
-119.84
11
399.0
21
-63.16
72
4
94
3
73
0
74
0
95
8
96
4
40
0.0
40
0.0
40
0.0
40
0.0
40
1.0
40
1.0
40
1.0
40
1.0
10
399.0
20
-63.16
10
399.0
20
-62.7954920651
10
399.2954920651
20
-62.5
10
399.66
20
-62.5
72
1
10
399.66
20
-62.5
11
414.07
21
-62.5
72
4
94
3
73
0
74
0
95
8
96
4
40
0.0
40
0.0
40
0.0
40
0.0
40
1.0
40
1.0
40
1.0
40
1.0
10
414.07
20
-62.5
10
414.4510764774
20
-62.5
10
414.76
20
-62.8178778276
10
414.76
20
-63.21
72
1
10
414.76
20
-63.21
11
414.79
21
-67.19
72
4
94
2
73
0
74
0
95
6
96
3
40
0.0
40
0.0
40
0.0
40
1.0
40
1.0
40
1.0
10
414.79
20
-67.19
10
414.79
20
-67.7
10
415.21
20
-67.38
97
0
75
0
76
1
98
0
0
HATCH
5
287
100
AcDbEntity
8
Layer 4
6
ByLayer
370
-1
62
256
100
AcDbHatch
10
0
20
0
30
0
210
0
220
0
230
1
2
FILL_647
70
1
71
0
91
1
92
0
93
23
72
4
94
2
73
0
74
0
95
6
96
3
40
0.0
40
0.0
40
0.0
40
1.0
40
1.0
40
1.0
10
596.06
20
-69.6
10
596.07
20
-70.22
10
596.49
20
-69.76
72
4
94
2
73
0
74
0
95
6
96
3
40
0.0
40
0.0
40
0.0
40
1.0
40
1.0
40
1.0
10
596.49
20
-69.76
10
603.33
20
-62.34
10
614.91
20
-61.67
72
1
10
614.91
20
-61.67
11
614.91
21
-61.67
72
4
94
3
73
0
74
0
95
8
96
4
40
0.0
40
0.0
40
0.0
40
0.0
40
1.0
40
1.0
40
1.0
40
1.0
10
614.91
20
-61.67
10
615.1924936676
20
-61.6518582048
10
615.4699009494
20
-61.7522588083
10
615.676379944
20
-61.9473719867
72
4
94
3
73
0
74
0
95
8
96
4
40
0.0
40
0.0
40
0.0
40
0.0
40
1.0
40
1.0
40
1.0
40
1.0
10
615.676379944
20
-61.9473719867
10
615.8828589386
20
-62.1424851651
10
616.0
20
-62.4149146474
10
616.0
20
-62.7
72
1
10
616.0
20
-62.7
11
616.0
21
-75.93
72
4
94
3
73
0
74
0
95
8
96
4
40
0.0
40
0.0
40
0.0
40
0.0
40
1.0
40
1.0
40
1.0
40
1.0
10
616.0
20
-75.93
10
616.0
20
-76.3828734949
10
615.6328734949
20
-76.75
10
615.18
20
-76.75
72
4
94
2
73
0
74
0
95
6
96
3
40
0.0
40
0.0
40
0.0
40
1.0
40
1.0
40
1.0
10
615.18
20
-76.75
10
608.67
20
-76.73
10
603.06
20
-80.06
72
4
94
2
73
0
74
0
95
6
96
3
40
0.0
40
0.0
40
0.0
40
1.0
40
1.0
40
1.0
10
603.06
20
-80.06
10
599.55
20
-82.15
10
597.73
20
-86.23
72
4
94
2
73
0
74
0
95
6
96
3
40
0.0
40
0.0
40
0.0
40
1.0
40
1.0
40
1.0
10
597.73
20
-86.23
10
596.53
20
-88.93
10
596.29
20
-93.97
72
4
94
2
73
0
74
0
95
6
96
3
40
0.0
40
0.0
40
0.0
40
1.0
40
1.0
40
1.0
10
596.29
20
-93.97
10
595.71
20
-106.38
10
596.03
20
-119.7
72
1
10
596.03
20
-119.7
11
596.03
21
-119.7
72
4
94
3
73
0
74
0
95
8
96
4
40
0.0
40
0.0
40
0.0
40
0.0
40
1.0
40
1.0
40
1.0
40
1.0
10
596.03
20
-119.7
10
596.0352579059
20
-119.910316237
10
595.9554147321
20
-120.1138485536
10
595.8085699993
20
-120.2644585359
72
4
94
3
73
0
74
0
95
8
96
4
40
0.0
40
0.0
40
0.0
40
0.0
40
1.0
40
1.0
40
1.0
40
1.0
10
595.8085699993
20
-120.2644585359
10
595.6617252665
20
-120.4150685183
10
595.460316237
20
-120.5
10
595.25
20
-120.5
72
1
10
595.25
20
-120.5
11
580.77
21
-120.5
72
4
94
3
73
0
74
0
95
8
96
4
40
0.0
40
0.0
40
0.0
40
0.0
40
1.0
40
1.0
40
1.0
40
1.0
10
580.77
20
-120.5
10
580.4828119301
20
-120.5
10
580.25
20
-120.2671880699
10
580.25
20
-119.98
72
1
10
580.25
20
-119.98
11
580.25
21
-63.16
72
1
10
580.25
20
-63.16
11
580.25
21
-63.16
72
4
94
3
73
0
74
0
95
8
96
4
40
0.0
40
0.0
40
0.0
40
0.0
40
1.0
40
1.0
40
1.0
40
1.0
10
580.25
20
-63.16
10
580.25
20
-62.7954920651
10
580.5454920651
20
-62.5
10
580.91
20
-62.5
72
1
10
580.91
20
-62.5
11
595.33
21
-62.5
72
1
10
595.33
20
-62.5
11
595.33
21
-62.5
72
4
94
3
73
0
74
0
95
8
96
4
40
0.0
40
0.0
40
0.0
40
0.0
40
1.0
40
1.0
40
1.0
40
1.0
10
595.33
20
-62.5
10
595.7015903451
20
-62.5
10
596.0044538754
20
-62.8073174058
10
596.01
20
-63.19
72
1
10
596.01
20
-63.19
11
596.06
21
-69.6
97
0
75
0
76
1
98
0
0
HATCH
5
29d
100
AcDbEntity
8
Layer 4
6
ByLayer
370
-1
62
256
100
AcDbHatch
10
0
20
0
30
0
210
0
220
0
230
1
2
FILL_669
70
1
71
0
91
1
92
0
93
21
72
4
94
2
73
0
74
0
95
6
96
3
40
0.0
40
0.0
40
0.0
40
1.0
40
1.0
40
1.0
10
521.68
20
-98.29
10
523.47
20
-105.01
10
531.0
20
-107.0
72
4
94
2
73
0
74
0
95
6
96
3
40
0.0
40
0.0
40
0.0
40
1.0
40
1.0
40
1.0
10
531.0
20
-107.0
10
543.4
20
-110.28
10
551.72
20
-101.92
72
1
10
551.72
20
-101.92
11
551.72
21
-101.92
72
4
94
3
73
0
74
0
95
8
96
4
40
0.0
40
0.0
40
0.0
40
0.0
40
1.0
40
1.0
40
1.0
40
1.0
10
551.72
20
-101.92
10
551.9315708471
20
-101.7025521849
10
552.2572903771
20
-101.6530758006
10
552.51
20
-101.8
72
1
10
552.51
20
-101.8
11
563.78
21
-108.23
72
1
10
563.78
20
-108.23
11
563.78
21
-108.23
72
4
94
3
73
0
74
0
95
8
96
4
40
0.0
40
0.0
40
0.0
40
0.0
40
1.0
40
1.0
40
1.0
40
1.0
10
563.78
20
-108.23
10
563.8945046841
20
-108.2947200388
10
563.9738740625
20
-108.4075972809
10
563.9969924557
20
-108.5386015089
72
4
94
3
73
0
74
0
95
8
96
4
40
0.0
40
0.0
40
0.0
40
0.0
40
1.0
40
1.0
40
1.0
40
1.0
10
563.9969924557
20
-108.5386015089
10
564.0201108489
20
-108.6696057368
10
563.9846338969
20
-108.805452245
10
563.9
20
-108.91
72
4
94
2
73
0
74
0
95
6
96
3
40
0.0
40
0.0
40
0.0
40
1.0
40
1.0
40
1.0
10
563.9
20
-108.91
10
556.45
20
-118.39
10
545.0
20
-121.0
72
4
94
2
73
0
74
0
95
6
96
3
40
0.0
40
0.0
40
0.0
40
1.0
40
1.0
40
1.0
10
545.0
20
-121.0
10
534.17
20
-123.47
10
522.99
20
-118.76
72
4
94
2
73
0
74
0
95
6
96
3
40
0.0
40
0.0
40
0.0
40
1.0
40
1.0
40
1.0
10
522.99
20
-118.76
10
508.2
20
-112.53
10
506.13
20
-96.48
72
4
94
2
73
0
74
0
95
6
96
3
40
0.0
40
0.0
40
0.0
40
1.0
40
1.0
40
1.0
10
506.13
20
-96.48
10
503.88
20
-79.05
10
515.22
20
-69.63
72
4
94
2
73
0
74
0
95
6
96
3
40
0.0
40
0.0
40
0.0
40
1.0
40
1.0
40
1.0
10
515.22
20
-69.63
10
522.77
20
-63.36
10
532.97
20
-61.95
72
4
94
2
73
0
74
0
95
6
96
3
40
0.0
40
0.0
40
0.0
40
1.0
40
1.0
40
1.0
10
532.97
20
-61.95
10
543.37
20
-60.5
10
552.94
20
-65.81
72
4
94
2
73
0
74
0
95
6
96
3
40
0.0
40
0.0
40
0.0
40
1.0
40
1.0
40
1.0
10
552.94
20
-65.81
10
564.05
20
-71.98
10
566.75
20
-84.25
72
4
94
2
73
0
74
0
95
6
96
3
40
0.0
40
0.0
40
0.0
40
1.0
40
1.0
40
1.0
10
566.75
20
-84.25
10
568.08
20
-90.28
10
567.25
20
-96.95
72
1
10
567.25
20
-96.95
11
567.25
21
-96.95
72
4
94
3
73
0
74
0
95
8
96
4
40
0.0
40
0.0
40
0.0
40
0.0
40
1.0
40
1.0
40
1.0
40
1.0
10
567.25
20
-96.95
10
567.2157242033
20
-97.2242063739
10
566.9713442722
20
-97.43
10
566.68
20
-97.43
72
1
10
566.68
20
-97.43
11
522.05
21
-97.8
72
4
94
3
73
0
74
0
95
8
96
4
40
0.0
40
0.0
40
0.0
40
0.0
40
1.0
40
1.0
40
1.0
40
1.0
10
522.05
20
-97.8
10
521.9297584723
20
-97.8024048306
10
521.8172425183
20
-97.8597483652
10
521.7449732892
20
-97.9554562633
72
4
94
3
73
0
74
0
95
8
96
4
40
0.0
40
0.0
40
0.0
40
0.0
40
1.0
40
1.0
40
1.0
40
1.0
10
521.7449732892
20
-97.9554562633
10
521.67270406
20
-98.0511641614
10
521.6487372028
20
-98.1745681334
10
521.68
20
-98.29
97
0
75
0
76
1
98
0
0
HATCH
5
2b9
100
AcDbEntity
8
Layer 4
6
ByLayer
370
-1
62
256
100
AcDbHatch
10
0
20
0
30
0
210
0
220
0
230
1
2
FILL_697
70
1
71
0
91
1
92
0
93
27
72
4
94
2
73
0
74
0
95
6
96
3
40
0.0
40
0.0
40
0.0
40
1.0
40
1.0
40
1.0
10
367.06
20
-115.89
10
361.02
20
-121.1
10
354.25
20
-121.5
72
4
94
2
73
0
74
0
95
6
96
3
40
0.0
40
0.0
40
0.0
40
1.0
40
1.0
40
1.0
10
354.25
20
-121.5
10
336.38
20
-122.57
10
331.2
20
-109.23
72
4
94
2
73
0
74
0
95
6
96
3
40
0.0
40
0.0
40
0.0
40
1.0
40
1.0
40
1.0
10
331.2
20
-109.23
10
329.27
20
-104.23
10
329.07
20
-90.53
72
4
94
2
73
0
74
0
95
6
96
3
40
0.0
40
0.0
40
0.0
40
1.0
40
1.0
40
1.0
10
329.07
20
-90.53
10
328.87
20
-77.33
10
329.01
20
-63.67
72
1
10
329.01
20
-63.67
11
329.01
21
-63.67
72
4
94
3
73
0
74
0
95
8
96
4
40
0.0
40
0.0
40
0.0
40
0.0
40
1.0
40
1.0
40
1.0
40
1.0
10
329.01
20
-63.67
10
329.0155403413
20
-63.1602886025
10
329.4258289438
20
-62.75
10
329.93
20
-62.75
72
1
10
329.93
20
-62.75
11
344.44
21
-62.75
72
4
94
3
73
0
74
0
95
8
96
4
40
0.0
40
0.0
40
0.0
40
0.0
40
1.0
40
1.0
40
1.0
40
1.0
10
344.44
20
-62.75
10
344.7492794599
20
-62.75
10
345.0
20
-63.0007205401
10
345.0
20
-63.31
72
4
94
2
73
0
74
0
95
6
96
3
40
0.0
40
0.0
40
0.0
40
1.0
40
1.0
40
1.0
10
345.0
20
-63.31
10
345.0
20
-80.63
10
345.06
20
-97.75
72
4
94
2
73
0
74
0
95
6
96
3
40
0.0
40
0.0
40
0.0
40
1.0
40
1.0
40
1.0
10
345.06
20
-97.75
10
345.08
20
-103.16
10
348.61
20
-106.02
72
4
94
2
73
0
74
0
95
6
96
3
40
0.0
40
0.0
40
0.0
40
1.0
40
1.0
40
1.0
10
348.61
20
-106.02
10
351.59
20
-108.44
10
356.41
20
-108.22
72
4
94
2
73
0
74
0
95
6
96
3
40
0.0
40
0.0
40
0.0
40
1.0
40
1.0
40
1.0
10
356.41
20
-108.22
10
364.19
20
-107.87
10
366.53
20
-101.01
72
4
94
2
73
0
74
0
95
6
96
3
40
0.0
40
0.0
40
0.0
40
1.0
40
1.0
40
1.0
10
366.53
20
-101.01
10
367.5
20
-98.17
10
367.5
20
-89.87
72
4
94
2
73
0
74
0
95
6
96
3
40
0.0
40
0.0
40
0.0
40
1.0
40
1.0
40
1.0
10
367.5
20
-89.87
10
367.5
20
-76.67
10
367.5
20
-63.42
72
1
10
367.5
20
-63.42
11
367.5
21
-63.42
72
4
94
3
73
0
74
0
95
8
96
4
40
0.0
40
0.0
40
0.0
40
0.0
40
1.0
40
1.0
40
1.0
40
1.0
10
367.5
20
-63.42
10
367.5
20
-63.0499692176
10
367.7999692176
20
-62.75
10
368.17
20
-62.75
72
1
10
368.17
20
-62.75
11
382.74
21
-62.75
72
4
94
3
73
0
74
0
95
8
96
4
40
0.0
40
0.0
40
0.0
40
0.0
40
1.0
40
1.0
40
1.0
40
1.0
10
382.74
20
-62.75
10
383.0216652224
20
-62.75
10
383.25
20
-62.9828119301
10
383.25
20
-63.27
72
1
10
383.25
20
-63.27
11
383.31
21
-119.98
72
1
10
383.31
20
-119.98
11
383.31
21
-119.98
72
4
94
3
73
0
74
0
95
8
96
4
40
0.0
40
0.0
40
0.0
40
0.0
40
1.0
40
1.0
40
1.0
40
1.0
10
383.31
20
-119.98
10
383.3126343486
20
-120.1169861269
10
383.2600706866
20
-120.2492749674
10
383.1641429455
20
-120.3470836446
72
4
94
3
73
0
74
0
95
8
96
4
40
0.0
40
0.0
40
0.0
40
0.0
40
1.0
40
1.0
40
1.0
40
1.0
10
383.1641429455
20
-120.3470836446
10
383.0682152044
20
-120.4448923218
10
382.9369861269
20
-120.5
10
382.8
20
-120.5
72
1
10
382.8
20
-120.5
11
368.2
21
-120.5
72
1
10
368.2
20
-120.5
11
368.2
21
-120.5
72
4
94
3
73
0
74
0
95
8
96
4
40
0.0
40
0.0
40
0.0
40
0.0
40
1.0
40
1.0
40
1.0
40
1.0
10
368.2
20
-120.5
10
367.8118386768
20
-120.5
10
367.4955451618
20
-120.1792516467
10
367.49
20
-119.78
72
1
10
367.49
20
-119.78
11
367.46
21
-116.06
72
4
94
2
73
0
74
0
95
6
96
3
40
0.0
40
0.0
40
0.0
40
1.0
40
1.0
40
1.0
10
367.46
20
-116.06
10
367.46
20
-115.55
10
367.06
20
-115.89
97
0
75
0
76
1
98
0
0
HATCH
5
2be
100
AcDbEntity
8
Layer 4
6
ByLayer
370
-1
62
256
100
AcDbHatch
10
0
20
0
30
0
210
0
220
0
230
1
2
FILL_702
70
1
71
0
91
1
92
0
93
4
72
4
94
3
73
0
74
0
95
8
96
4
40
0.0
40
0.0
40
0.0
40
0.0
40
1.0
40
1.0
40
1.0
40
1.0
10
760.788943974
20
-113.0344546362
10
760.7177229481
20
-117.5681530522
10
756.8280171564
20
-121.1832443978
10
752.1010429249
20
-121.1089871527
72
4
94
3
73
0
74
0
95
8
96
4
40
0.0
40
0.0
40
0.0
40
0.0
40
1.0
40
1.0
40
1.0
40
1.0
10
752.1010429249
20
-121.1089871527
10
747.3740686933
20
-121.0347299076
10
743.599835
20
-117.2992437798
10
743.671056026
20
-112.7655453638
72
4
94
3
73
0
74
0
95
8
96
4
40
0.0
40
0.0
40
0.0
40
0.0
40
1.0
40
1.0
40
1.0
40
1.0
10
743.671056026
20
-112.7655453638
10
743.7422770519
20
-108.2318469478
10
747.6319828436
20
-104.6167556022
10
752.3589570751
20
-104.6910128473
72
4
94
3
73
0
74
0
95
8
96
4
40
0.0
40
0.0
40
0.0
40
0.0
40
1.0
40
1.0
40
1.0
40
1.0
10
752.3589570751
20
-104.6910128473
10
757.0859313067
20
-104.7652700924
10
760.860165
20
-108.5007562202
10
760.788943974
20
-113.0344546362
97
0
75
0
76
1
98
0
0
HATCH
5
2c9
100
AcDbEntity
8
Layer 5
6
ByLayer
370
-1
62
256
100
AcDbHatch
10
0
20
0
30
0
210
0
220
0
230
1
2
FILL_713
70
1
71
0
91
1
92
0
93
8
72
4
94
2
73
0
74
0
95
6
96
3
40
0.0
40
0.0
40
0.0
40
1.0
40
1.0
40
1.0
10
179.81
20
-95.8
10
189.66
20
-86.65
10
199.15
20
-77.94
72
4
94
2
73
0
74
0
95
6
96
3
40
0.0
40
0.0
40
0.0
40
1.0
40
1.0
40
1.0
10
199.15
20
-77.94
10
200.61
20
-76.6
10
200.0
20
-78.48
72
1
10
200.0
20
-78.48
11
176.57
21
-151.04
72
4
94
2
73
0
74
0
95
6
96
3
40
0.0
40
0.0
40
0.0
40
1.0
40
1.0
40
1.0
10
176.57
20
-151.04
10
176.22
20
-152.11
10
175.78
20
-151.07
72
1
10
175.78
20
-151.07
11
160.45
21
-114.96
72
1
10
160.45
20
-114.96
11
160.45
21
-114.96
72
4
94
3
73
0
74
0
95
8
96
4
40
0.0
40
0.0
40
0.0
40
0.0
40
1.0
40
1.0
40
1.0
40
1.0
10
160.45
20
-114.96
10
160.3296434044
20
-114.6831798301
10
160.3933581279
20
-114.3606240423
10
160.61
20
-114.15
72
4
94
2
73
0
74
0
95
6
96
3
40
0.0
40
0.0
40
0.0
40
1.0
40
1.0
40
1.0
10
160.61
20
-114.15
10
170.08
20
-104.83
10
179.81
20
-95.8
97
0
75
0
76
1
98
0
0
HATCH
5
2d5
100
AcDbEntity
8
Layer 5
6
ByLayer
370
-1
62
256
100
AcDbHatch
10
0
20
0
30
0
210
0
220
0
230
1
2
FILL_725
70
1
71
0
91
1
92
0
93
11
72
4
94
2
73
0
74
0
95
6
96
3
40
0.0
40
0.0
40
0.0
40
1.0
40
1.0
40
1.0
10
113.53
20
-84.71
10
112.64
20
-83.76
10
111.86
20
-82.72
72
4
94
2
73
0
74
0
95
6
96
3
40
0.0
40
0.0
40
0.0
40
1.0
40
1.0
40
1.0
10
111.86
20
-82.72
10
111.55
20
-82.31
10
112.03
20
-82.49
72
1
10
112.03
20
-82.49
11
150.7
21
-97.07
72
1
10
150.7
20
-97.07
11
150.7
21
-97.07
72
4
94
3
73
0
74
0
95
8
96
4
40
0.0
40
0.0
40
0.0
40
0.0
40
1.0
40
1.0
40
1.0
40
1.0
10
150.7
20
-97.07
10
150.8375909497
20
-97.1215966061
10
150.9385585001
20
-97.240789429
10
150.9670428435
20
-97.3852457421
72
4
94
3
73
0
74
0
95
8
96
4
40
0.0
40
0.0
40
0.0
40
0.0
40
1.0
40
1.0
40
1.0
40
1.0
10
150.9670428435
20
-97.3852457421
10
150.9955271869
20
-97.5297020552
10
150.9474929295
20
-97.6789566463
10
150.84
20
-97.78
72
1
10
150.84
20
-97.78
11
137.87
21
-110.15
72
1
10
137.87
20
-110.15
11
137.87
21
-110.15
72
4
94
3
73
0
74
0
95
8
96
4
40
0.0
40
0.0
40
0.0
40
0.0
40
1.0
40
1.0
40
1.0
40
1.0
10
137.87
20
-110.15
10
137.7723645743
20
-110.2423578351
10
137.6422609597
20
-110.2922403956
10
137.5088132789
20
-110.288481306
72
4
94
3
73
0
74
0
95
8
96
4
40
0.0
40
0.0
40
0.0
40
0.0
40
1.0
40
1.0
40
1.0
40
1.0
10
137.5088132789
20
-110.288481306
10
137.3753655981
20
-110.2847222164
10
137.2497190399
20
-110.2276354257
10
137.16
20
-110.13
72
4
94
2
73
0
74
0
95
6
96
3
40
0.0
40
0.0
40
0.0
40
1.0
40
1.0
40
1.0
10
137.16
20
-110.13
10
125.46
20
-97.31
10
113.53
20
-84.71
97
0
75
0
76
1
98
0
0
HATCH
5
2e1
100
AcDbEntity
8
Layer 5
6
ByLayer
370
-1
62
256
100
AcDbHatch
10
0
20
0
30
0
210
0
220
0
230
1
2
FILL_737
70
1
71
0
91
1
92
0
93
11
72
1
10
122.6
20
-123.45
11
103.9
21
-103.53
72
1
10
103.9
20
-103.53
11
103.9
21
-103.53
72
4
94
3
73
0
74
0
95
8
96
4
40
0.0
40
0.0
40
0.0
40
0.0
40
1.0
40
1.0
40
1.0
40
1.0
10
103.9
20
-103.53
10
103.6954214226
20
-103.3130227209
10
103.6232090884
20
-102.9937681907
10
103.71
20
-102.69
72
1
10
103.71
20
-102.69
11
109.39
21
-83.36
72
4
94
2
73
0
74
0
95
6
96
3
40
0.0
40
0.0
40
0.0
40
1.0
40
1.0
40
1.0
10
109.39
20
-83.36
10
109.68
20
-82.4
10
110.08
20
-83.31
72
4
94
2
73
0
74
0
95
6
96
3
40
0.0
40
0.0
40
0.0
40
1.0
40
1.0
40
1.0
10
110.08
20
-83.31
10
118.26
20
-101.69
10
126.18
20
-119.1
72
4
94
2
73
0
74
0
95
6
96
3
40
0.0
40
0.0
40
0.0
40
1.0
40
1.0
40
1.0
10
126.18
20
-119.1
10
126.67
20
-120.16
10
126.49
20
-120.85
72
4
94
2
73
0
74
0
95
6
96
3
40
0.0
40
0.0
40
0.0
40
1.0
40
1.0
40
1.0
10
126.49
20
-120.85
10
126.24
20
-121.8
10
125.26
20
-122.35
72
4
94
2
73
0
74
0
95
6
96
3
40
0.0
40
0.0
40
0.0
40
1.0
40
1.0
40
1.0
10
125.26
20
-122.35
10
124.86
20
-122.57
10
124.54
20
-122.99
72
4
94
2
73
0
74
0
95
6
96
3
40
0.0
40
0.0
40
0.0
40
1.0
40
1.0
40
1.0
10
124.54
20
-122.99
10
124.09
20
-123.56
10
123.44
20
-123.74
72
4
94
3
73
0
74
0
95
8
96
4
40
0.0
40
0.0
40
0.0
40
0.0
40
1.0
40
1.0
40
1.0
40
1.0
10
123.44
20
-123.74
10
123.1570739875
20
-123.8138067859
10
122.8337214886
20
-123.7021731851
10
122.6
20
-123.45
97
0
75
0
76
1
98
0
0
HATCH
5
2f2
100
AcDbEntity
8
Layer 5
6
ByLayer
370
-1
62
256
100
AcDbHatch
10
0
20
0
30
0
210
0
220
0
230
1
2
FILL_754
70
1
71
0
91
1
92
0
93
16
72
4
94
2
73
0
74
0
95
6
96
3
40
0.0
40
0.0
40
0.0
40
1.0
40
1.0
40
1.0
10
85.2
20
-104.2
10
71.76
20
-117.27
10
58.8
20
-129.6
72
1
10
58.8
20
-129.6
11
58.8
21
-129.6
72
4
94
3
73
0
74
0
95
8
96
4
40
0.0
40
0.0
40
0.0
40
0.0
40
1.0
40
1.0
40
1.0
40
1.0
10
58.8
20
-129.6
10
58.5549655111
20
-129.8344953711
10
58.2187694245
20
-129.9528312956
10
57.8670595858
20
-129.928380879
72
4
94
3
73
0
74
0
95
8
96
4
40
0.0
40
0.0
40
0.0
40
0.0
40
1.0
40
1.0
40
1.0
40
1.0
10
57.8670595858
20
-129.928380879
10
57.515349747
20
-129.9039304624
10
57.1776692683
20
-129.7387475039
10
56.93
20
-129.47
72
1
10
56.93
20
-129.47
11
50.63
21
-122.59
72
1
10
50.63
20
-122.59
11
50.63
21
-122.59
72
4
94
3
73
0
74
0
95
8
96
4
40
0.0
40
0.0
40
0.0
40
0.0
40
1.0
40
1.0
40
1.0
40
1.0
10
50.63
20
-122.59
10
50.400762886
20
-122.342176093
10
50.3056528279
20
-122.0302151024
10
50.38
20
-121.77
72
1
10
50.38
20
-121.77
11
61.16
21
-86.04
72
1
10
61.16
20
-86.04
11
61.16
21
-86.04
72
4
94
3
73
0
74
0
95
8
96
4
40
0.0
40
0.0
40
0.0
40
0.0
40
1.0
40
1.0
40
1.0
40
1.0
10
61.16
20
-86.04
10
61.2442884699
20
-85.7510109602
10
61.4989697502
20
-85.54408242
10
61.8
20
-85.52
72
1
10
61.8
20
-85.52
11
83.25
21
-83.79
72
4
94
3
73
0
74
0
95
8
96
4
40
0.0
40
0.0
40
0.0
40
0.0
40
1.0
40
1.0
40
1.0
40
1.0
10
83.25
20
-83.79
10
83.5730345326
20
-83.7646639582
10
83.8846436449
20
-83.8783096345
10
84.1
20
-84.1
72
1
10
84.1
20
-84.1
11
93.92
21
-94.63
72
1
10
93.92
20
-94.63
11
93.92
21
-94.63
72
4
94
3
73
0
74
0
95
8
96
4
40
0.0
40
0.0
40
0.0
40
0.0
40
1.0
40
1.0
40
1.0
40
1.0
10
93.92
20
-94.63
10
94.110752684
20
-94.8319734301
10
94.1019734301
20
-95.1568058238
10
93.9
20
-95.37
72
4
94
2
73
0
74
0
95
6
96
3
40
0.0
40
0.0
40
0.0
40
1.0
40
1.0
40
1.0
10
93.9
20
-95.37
10
89.65
20
-99.88
10
85.2
20
-104.2
97
0
75
0
76
1
98
0
0
HATCH
5
300
100
AcDbEntity
8
Layer 5
6
ByLayer
370
-1
62
256
100
AcDbHatch
10
0
20
0
30
0
210
0
220
0
230
1
2
FILL_768
70
1
71
0
91
1
92
0
93
13
72
4
94
2
73
0
74
0
95
6
96
3
40
0.0
40
0.0
40
0.0
40
1.0
40
1.0
40
1.0
10
135.67
20
-110.05
10
136.06
20
-110.35
10
136.3
20
-110.79
72
1
10
136.3
20
-110.79
11
136.3
21
-110.79
72
4
94
3
73
0
74
0
95
8
96
4
40
0.0
40
0.0
40
0.0
40
0.0
40
1.0
40
1.0
40
1.0
40
1.0
10
136.3
20
-110.79
10
136.4415689441
20
-111.0436443581
10
136.3800495341
20
-111.3758491719
10
136.15
20
-111.6
72
1
10
136.15
20
-111.6
11
128.15
21
-119.48
72
1
10
128.15
20
-119.48
11
128.15
21
-119.48
72
4
94
3
73
0
74
0
95
8
96
4
40
0.0
40
0.0
40
0.0
40
0.0
40
1.0
40
1.0
40
1.0
40
1.0
10
128.15
20
-119.48
10
128.0282372358
20
-119.6017627642
10
127.8536359423
20
-119.6542589896
10
127.6835553131
20
-119.6202428637
72
4
94
3
73
0
74
0
95
8
96
4
40
0.0
40
0.0
40
0.0
40
0.0
40
1.0
40
1.0
40
1.0
40
1.0
10
127.6835553131
20
-119.6202428637
10
127.5134746839
20
-119.5862267379
10
127.3699008461
20
-119.4700954862
10
127.3
20
-119.31
72
4
94
2
73
0
74
0
95
6
96
3
40
0.0
40
0.0
40
0.0
40
1.0
40
1.0
40
1.0
10
127.3
20
-119.31
10
119.96
20
-102.59
10
112.56
20
-86.19
72
4
94
2
73
0
74
0
95
6
96
3
40
0.0
40
0.0
40
0.0
40
1.0
40
1.0
40
1.0
10
112.56
20
-86.19
10
112.3
20
-85.6
10
112.48
20
-85.4
72
4
94
3
73
0
74
0
95
8
96
4
40
0.0
40
0.0
40
0.0
40
0.0
40
1.0
40
1.0
40
1.0
40
1.0
10
112.48
20
-85.4
10
112.5500668441
20
-85.3247430193
10
112.673528964
20
-85.3099820334
10
112.8212018038
20
-85.3592063133
72
4
94
3
73
0
74
0
95
8
96
4
40
0.0
40
0.0
40
0.0
40
0.0
40
1.0
40
1.0
40
1.0
40
1.0
10
112.8212018038
20
-85.3592063133
10
112.9688746436
20
-85.4084305932
10
113.1276515168
20
-85.5172712436
10
113.26
20
-85.66
72
4
94
2
73
0
74
0
95
6
96
3
40
0.0
40
0.0
40
0.0
40
1.0
40
1.0
40
1.0
10
113.26
20
-85.66
10
123.98
20
-97.36
10
134.59
20
-109.16
72
4
94
2
73
0
74
0
95
6
96
3
40
0.0
40
0.0
40
0.0
40
1.0
40
1.0
40
1.0
10
134.59
20
-109.16
10
134.69
20
-109.27
10
135.67
20
-110.05
97
0
75
0
76
1
98
0
0
HATCH
5
30c
100
AcDbEntity
8
Layer 5
6
ByLayer
370
-1
62
256
100
AcDbHatch
10
0
20
0
30
0
210
0
220
0
230
1
2
FILL_780
70
1
71
0
91
1
92
0
93
11
72
1
10
49.29
20
-120.38
11
49.29
21
-120.38
72
4
94
3
73
0
74
0
95
8
96
4
40
0.0
40
0.0
40
0.0
40
0.0
40
1.0
40
1.0
40
1.0
40
1.0
10
49.29
20
-120.38
10
49.2435144993
20
-120.5152305476
10
49.1300166436
20
-120.6166738508
10
48.9908574983
20
-120.6473707211
72
4
94
3
73
0
74
0
95
8
96
4
40
0.0
40
0.0
40
0.0
40
0.0
40
1.0
40
1.0
40
1.0
40
1.0
10
48.9908574983
20
-120.6473707211
10
48.851698353
20
-120.6780675914
10
48.7071969561
20
-120.633535888
10
48.61
20
-120.53
72
1
10
48.61
20
-120.53
11
19.26
21
-89.73
72
4
94
2
73
0
74
0
95
6
96
3
40
0.0
40
0.0
40
0.0
40
1.0
40
1.0
40
1.0
10
19.26
20
-89.73
10
18.65
20
-89.1
10
19.52
20
-89.03
72
1
10
19.52
20
-89.03
11
59.19
21
-85.85
72
1
10
59.19
20
-85.85
11
59.19
21
-85.85
72
4
94
3
73
0
74
0
95
8
96
4
40
0.0
40
0.0
40
0.0
40
0.0
40
1.0
40
1.0
40
1.0
40
1.0
10
59.19
20
-85.85
10
59.3045102598
20
-85.8408391792
10
59.4164489264
20
-85.8874790341
10
59.4900666089
20
-85.9750243863
72
4
94
3
73
0
74
0
95
8
96
4
40
0.0
40
0.0
40
0.0
40
0.0
40
1.0
40
1.0
40
1.0
40
1.0
10
59.4900666089
20
-85.9750243863
10
59.5636842914
20
-86.0625697385
10
59.5897726675
20
-86.1800701506
10
59.56
20
-86.29
72
4
94
2
73
0
74
0
95
6
96
3
40
0.0
40
0.0
40
0.0
40
1.0
40
1.0
40
1.0
10
59.56
20
-86.29
10
55.09
20
-103.1
10
49.29
20
-120.38
72
1
10
49.29
20
-120.38
11
49.29
21
-120.38
97
0
75
0
76
1
98
0
0
HATCH
5
315
100
AcDbEntity
8
Layer 5
6
ByLayer
370
-1
62
256
100
AcDbHatch
10
0
20
0
30
0
210
0
220
0
230
1
2
FILL_789
70
1
71
0
91
1
92
0
93
8
72
1
10
48.83
20
-123.01
11
42.41
21
-143.47
72
4
94
2
73
0
74
0
95
6
96
3
40
0.0
40
0.0
40
0.0
40
1.0
40
1.0
40
1.0
10
42.41
20
-143.47
10
41.92
20
-145.04
10
41.28
20
-143.53
72
1
10
41.28
20
-143.53
11
19.52
21
-92.06
72
4
94
2
73
0
74
0
95
6
96
3
40
0.0
40
0.0
40
0.0
40
1.0
40
1.0
40
1.0
10
19.52
20
-92.06
10
19.0
20
-90.82
10
19.93
20
-91.8
72
1
10
19.93
20
-91.8
11
48.63
21
-122.15
72
1
10
48.63
20
-122.15
11
48.63
21
-122.15
72
4
94
3
73
0
74
0
95
8
96
4
40
0.0
40
0.0
40
0.0
40
0.0
40
1.0
40
1.0
40
1.0
40
1.0
10
48.63
20
-122.15
10
48.8463282313
20
-122.3786898445
10
48.9227120991
20
-122.7071404762
10
48.83
20
-123.01
72
1
10
48.83
20
-123.01
11
48.83
21
-123.01
97
0
75
0
76
1
98
0
0
HATCH
5
323
100
AcDbEntity
8
Layer 5
6
ByLayer
370
-1
62
256
100
AcDbHatch
10
0
20
0
30
0
210
0
220
0
230
1
2
FILL_803
70
1
71
0
91
1
92
0
93
13
72
4
94
2
73
0
74
0
95
6
96
3
40
0.0
40
0.0
40
0.0
40
1.0
40
1.0
40
1.0
10
144.85
20
-104.85
10
148.03
20
-101.77
10
151.85
20
-98.59
72
4
94
3
73
0
74
0
95
8
96
4
40
0.0
40
0.0
40
0.0
40
0.0
40
1.0
40
1.0
40
1.0
40
1.0
10
151.85
20
-98.59
10
151.9490662259
20
-98.5098035314
10
152.0792133594
20
-98.4788102395
10
152.2012204281
20
-98.5063602227
72
4
94
3
73
0
74
0
95
8
96
4
40
0.0
40
0.0
40
0.0
40
0.0
40
1.0
40
1.0
40
1.0
40
1.0
10
152.2012204281
20
-98.5063602227
10
152.3232274967
20
-98.533910206
10
152.4228256067
20
-98.6167814561
10
152.47
20
-98.73
72
1
10
152.47
20
-98.73
11
158.59
21
-113.78
72
4
94
3
73
0
74
0
95
8
96
4
40
0.0
40
0.0
40
0.0
40
0.0
40
1.0
40
1.0
40
1.0
40
1.0
10
158.59
20
-113.78
10
158.7041595752
20
-114.0563863399
10
158.624327549
20
-114.3836976471
10
158.39
20
-114.6
72
1
10
158.39
20
-114.6
11
149.63
21
-122.66
72
1
10
149.63
20
-122.66
11
149.63
21
-122.66
72
4
94
3
73
0
74
0
95
8
96
4
40
0.0
40
0.0
40
0.0
40
0.0
40
1.0
40
1.0
40
1.0
40
1.0
10
149.63
20
-122.66
10
149.5270976834
20
-122.7576252747
10
149.3908444304
20
-122.8115340595
10
149.2517517638
20
-122.8096544288
72
4
94
3
73
0
74
0
95
8
96
4
40
0.0
40
0.0
40
0.0
40
0.0
40
1.0
40
1.0
40
1.0
40
1.0
10
149.2517517638
20
-122.8096544288
10
149.1126590972
20
-122.8077747982
10
148.9823482328
20
-122.7502637956
10
148.89
20
-122.65
72
1
10
148.89
20
-122.65
11
138.78
21
-111.62
72
1
10
138.78
20
-111.62
11
138.78
21
-111.62
72
4
94
3
73
0
74
0
95
8
96
4
40
0.0
40
0.0
40
0.0
40
0.0
40
1.0
40
1.0
40
1.0
40
1.0
10
138.78
20
-111.62
10
138.5733694102
20
-111.3966155786
10
138.5910309681
20
-111.0389690319
10
138.82
20
-110.81
72
4
94
2
73
0
74
0
95
6
96
3
40
0.0
40
0.0
40
0.0
40
1.0
40
1.0
40
1.0
10
138.82
20
-110.81
10
142.06
20
-107.56
10
144.85
20
-104.85
97
0
75
0
76
1
98
0
0
HATCH
5
332
100
AcDbEntity
8
Layer 5
6
ByLayer
370
-1
62
256
100
AcDbHatch
10
0
20
0
30
0
210
0
220
0
230
1
2
FILL_818
70
1
71
0
91
1
92
0
93
14
72
4
94
2
73
0
74
0
95
6
96
3
40
0.0
40
0.0
40
0.0
40
1.0
40
1.0
40
1.0
10
146.58
20
-122.09
10
147.23
20
-122.72
10
147.89
20
-123.66
72
4
94
3
73
0
74
0
95
8
96
4
40
0.0
40
0.0
40
0.0
40
0.0
40
1.0
40
1.0
40
1.0
40
1.0
10
147.89
20
-123.66
10
148.0619456125
20
-123.9007238575
10
148.0320662554
20
-124.2293967854
10
147.82
20
-124.43
72
1
10
147.82
20
-124.43
11
135.47
21
-136.14
72
4
94
3
73
0
74
0
95
8
96
4
40
0.0
40
0.0
40
0.0
40
0.0
40
1.0
40
1.0
40
1.0
40
1.0
10
135.47
20
-136.14
10
135.3826936276
20
-136.2227113002
10
135.2611165192
20
-136.2588771789
10
135.1438640792
20
-136.2370165545
72
4
94
3
73
0
74
0
95
8
96
4
40
0.0
40
0.0
40
0.0
40
0.0
40
1.0
40
1.0
40
1.0
40
1.0
10
135.1438640792
20
-136.2370165545
10
135.0266116392
20
-136.2151559301
10
134.9282482584
20
-136.1379841974
10
134.88
20
-136.03
72
1
10
134.88
20
-136.03
11
128.41
21
-121.69
72
1
10
128.41
20
-121.69
11
128.41
21
-121.69
72
4
94
3
73
0
74
0
95
8
96
4
40
0.0
40
0.0
40
0.0
40
0.0
40
1.0
40
1.0
40
1.0
40
1.0
10
128.41
20
-121.69
10
128.2181894304
20
-121.2584262183
10
128.3223433425
20
-120.7496744166
10
128.67
20
-120.42
72
1
10
128.67
20
-120.42
11
137.15
21
-112.35
72
1
10
137.15
20
-112.35
11
137.15
21
-112.35
72
4
94
3
73
0
74
0
95
8
96
4
40
0.0
40
0.0
40
0.0
40
0.0
40
1.0
40
1.0
40
1.0
40
1.0
10
137.15
20
-112.35
10
137.2409468806
20
-112.2590531194
10
137.3654034305
20
-112.2096577077
10
137.4940710542
20
-112.2134420496
72
4
94
3
73
0
74
0
95
8
96
4
40
0.0
40
0.0
40
0.0
40
0.0
40
1.0
40
1.0
40
1.0
40
1.0
10
137.4940710542
20
-112.2134420496
10
137.6227386778
20
-112.2172263915
10
137.744250084
20
-112.2738561548
10
137.83
20
-112.37
72
4
94
2
73
0
74
0
95
6
96
3
40
0.0
40
0.0
40
0.0
40
1.0
40
1.0
40
1.0
10
137.83
20
-112.37
10
141.56
20
-116.47
10
145.16
20
-120.67
72
4
94
2
73
0
74
0
95
6
96
3
40
0.0
40
0.0
40
0.0
40
1.0
40
1.0
40
1.0
10
145.16
20
-120.67
10
145.28
20
-120.81
10
146.58
20
-122.09
97
0
75
0
76
1
98
0
0
HATCH
5
33d
100
AcDbEntity
8
Layer 5
6
ByLayer
370
-1
62
256
100
AcDbHatch
10
0
20
0
30
0
210
0
220
0
230
1
2
FILL_829
70
1
71
0
91
1
92
0
93
10
72
1
10
124.69
20
-125.46
11
124.69
21
-125.46
72
4
94
3
73
0
74
0
95
8
96
4
40
0.0
40
0.0
40
0.0
40
0.0
40
1.0
40
1.0
40
1.0
40
1.0
10
124.69
20
-125.46
10
124.4313157313
20
-125.1788214471
10
124.4181864445
20
-124.7630606977
10
124.66
20
-124.51
72
1
10
124.66
20
-124.51
11
126.81
21
-122.24
72
1
10
126.81
20
-122.24
11
126.81
21
-122.24
72
4
94
3
73
0
74
0
95
8
96
4
40
0.0
40
0.0
40
0.0
40
0.0
40
1.0
40
1.0
40
1.0
40
1.0
10
126.81
20
-122.24
10
126.8937434214
20
-122.1517299072
10
127.0213846667
20
-122.1240619562
10
127.1512704495
20
-122.1660250553
72
4
94
3
73
0
74
0
95
8
96
4
40
0.0
40
0.0
40
0.0
40
0.0
40
1.0
40
1.0
40
1.0
40
1.0
10
127.1512704495
20
-122.1660250553
10
127.2811562323
20
-122.2079881543
10
127.3966266
20
-122.3141998572
10
127.46
20
-122.45
72
1
10
127.46
20
-122.45
11
132.51
21
-133.21
72
4
94
2
73
0
74
0
95
6
96
3
40
0.0
40
0.0
40
0.0
40
1.0
40
1.0
40
1.0
10
132.51
20
-133.21
10
133.32
20
-134.96
10
132.04
20
-133.54
72
1
10
132.04
20
-133.54
11
124.69
21
-125.46
72
1
10
124.69
20
-125.46
11
124.69
21
-125.46
97
0
75
0
76
1
98
0
0
HATCH
5
34a
100
AcDbEntity
8
Layer 6
6
ByLayer
370
-1
62
256
100
AcDbHatch
10
0
20
0
30
0
210
0
220
0
230
1
2
FILL_842
70
1
71
0
91
1
92
0
93
10
72
1
10
131.5
20
-2.54
11
131.0
21
-3.21
72
1
10
131.0
20
-3.21
11
111.59
21
-21.5
72
4
94
3
73
0
74
0
95
8
96
4
40
0.0
40
0.0
40
0.0
40
0.0
40
1.0
40
1.0
40
1.0
40
1.0
10
111.59
20
-21.5
10
111.175638644
20
-21.8884637713
10
110.6432724683
20
-22.1246792267
10
110.08
20
-22.17
72
4
94
2
73
0
74
0
95
6
96
3
40
0.0
40
0.0
40
0.0
40
1.0
40
1.0
40
1.0
10
110.08
20
-22.17
10
99.99
20
-22.94
10
90.74
20
-23.58
72
4
94
2
73
0
74
0
95
6
96
3
40
0.0
40
0.0
40
0.0
40
1.0
40
1.0
40
1.0
10
90.74
20
-23.58
10
85.88
20
-23.91
10
85.75
20
-23.91
72
4
94
2
73
0
74
0
95
6
96
3
40
0.0
40
0.0
40
0.0
40
1.0
40
1.0
40
1.0
10
85.75
20
-23.91
10
83.57
20
-23.75
10
80.81
20
-22.69
72
4
94
2
73
0
74
0
95
6
96
3
40
0.0
40
0.0
40
0.0
40
1.0
40
1.0
40
1.0
10
80.81
20
-22.69
10
63.75
20
-16.12
10
46.69
20
-9.56
72
4
94
2
73
0
74
0
95
6
96
3
40
0.0
40
0.0
40
0.0
40
1.0
40
1.0
40
1.0
10
46.69
20
-9.56
10
45.09
20
-8.95
10
46.8
20
-8.81
72
4
94
2
73
0
74
0
95
6
96
3
40
0.0
40
0.0
40
0.0
40
1.0
40
1.0
40
1.0
10
46.8
20
-8.81
10
87.66
20
-5.66
10
128.5
20
-2.5
72
4
94
2
73
0
74
0
95
6
96
3
40
0.0
40
0.0
40
0.0
40
1.0
40
1.0
40
1.0
10
128.5
20
-2.5
10
130.83
20
-2.32
10
131.5
20
-2.54
97
0
75
0
76
1
98
0
0
HATCH
5
355
100
AcDbEntity
8
Layer 6
6
ByLayer
370
-1
62
256
100
AcDbHatch
10
0
20
0
30
0
210
0
220
0
230
1
2
FILL_853
70
1
71
0
91
1
92
0
93
10
72
4
94
2
73
0
74
0
95
6
96
3
40
0.0
40
0.0
40
0.0
40
1.0
40
1.0
40
1.0
10
148.19
20
-18.4
10
148.95
20
-19.22
10
147.83
20
-19.3
72
1
10
147.83
20
-19.3
11
129.31
21
-20.65
72
1
10
129.31
20
-20.65
11
129.31
21
-20.65
72
4
94
3
73
0
74
0
95
8
96
4
40
0.0
40
0.0
40
0.0
40
0.0
40
1.0
40
1.0
40
1.0
40
1.0
10
129.31
20
-20.65
10
129.192682649
20
-20.6593853881
10
129.0781248102
20
-20.6114210894
10
129.0012250501
20
-20.5207188081
72
4
94
3
73
0
74
0
95
8
96
4
40
0.0
40
0.0
40
0.0
40
0.0
40
1.0
40
1.0
40
1.0
40
1.0
10
129.0012250501
20
-20.5207188081
10
128.9243252899
20
-20.4300165269
10
128.8941901828
20
-20.307317351
10
128.92
20
-20.19
72
4
94
2
73
0
74
0
95
6
96
3
40
0.0
40
0.0
40
0.0
40
1.0
40
1.0
40
1.0
10
128.92
20
-20.19
10
130.68
20
-12.26
10
133.84
20
-3.58
72
1
10
133.84
20
-3.58
11
133.84
21
-3.58
72
4
94
3
73
0
74
0
95
8
96
4
40
0.0
40
0.0
40
0.0
40
0.0
40
1.0
40
1.0
40
1.0
40
1.0
10
133.84
20
-3.58
10
133.8783038267
20
-3.4757284717
10
133.9676725381
20
-3.398425611
10
134.0758787495
20
-3.3759677181
72
4
94
3
73
0
74
0
95
8
96
4
40
0.0
40
0.0
40
0.0
40
0.0
40
1.0
40
1.0
40
1.0
40
1.0
10
134.0758787495
20
-3.3759677181
10
134.184084961
20
-3.3535098252
10
134.2955203369
20
-3.3891363658
10
134.37
20
-3.47
72
1
10
134.37
20
-3.47
11
148.19
21
-18.4
97
0
75
0
76
1
98
0
0
HATCH
5
35d
100
AcDbEntity
8
Layer 6
6
ByLayer
370
-1
62
256
100
AcDbHatch
10
0
20
0
30
0
210
0
220
0
230
1
2
FILL_861
70
1
71
0
91
1
92
0
93
7
72
4
94
2
73
0
74
0
95
6
96
3
40
0.0
40
0.0
40
0.0
40
1.0
40
1.0
40
1.0
10
172.45
20
-16.74
10
174.07
20
-17.35
10
172.34
20
-17.47
72
1
10
172.34
20
-17.47
11
151.43
21
-19.02
72
1
10
151.43
20
-19.02
11
151.43
21
-19.02
72
4
94
3
73
0
74
0
95
8
96
4
40
0.0
40
0.0
40
0.0
40
0.0
40
1.0
40
1.0
40
1.0
40
1.0
10
151.43
20
-19.02
10
150.9244106077
20
-19.0579192044
10
150.4349529724
20
-18.870232442
10
150.1
20
-18.51
72
1
10
150.1
20
-18.51
11
136.3
21
-3.68
72
4
94
2
73
0
74
0
95
6
96
3
40
0.0
40
0.0
40
0.0
40
1.0
40
1.0
40
1.0
10
136.3
20
-3.68
10
135.59
20
-2.91
10
136.58
20
-3.28
72
1
10
136.58
20
-3.28
11
172.45
21
-16.74
97
0
75
0
76
1
98
0
0
HATCH
5
365
100
AcDbEntity
8
Layer 6
6
ByLayer
370
-1
62
256
100
AcDbHatch
10
0
20
0
30
0
210
0
220
0
230
1
2
FILL_869
70
1
71
0
91
1
92
0
93
7
72
4
94
2
73
0
74
0
95
6
96
3
40
0.0
40
0.0
40
0.0
40
1.0
40
1.0
40
1.0
10
131.79
20
-3.75
10
132.29
20
-3.6
10
132.54
20
-4.0
72
1
10
132.54
20
-4.0
11
127.58
21
-20.1
72
1
10
127.58
20
-20.1
11
127.58
21
-20.1
72
4
94
3
73
0
74
0
95
8
96
4
40
0.0
40
0.0
40
0.0
40
0.0
40
1.0
40
1.0
40
1.0
40
1.0
10
127.58
20
-20.1
10
127.434840661
20
-20.5536229344
10
127.0396712402
20
-20.8737101652
10
126.58
20
-20.91
72
1
10
126.58
20
-20.91
11
114.3
21
-21.83
72
4
94
2
73
0
74
0
95
6
96
3
40
0.0
40
0.0
40
0.0
40
1.0
40
1.0
40
1.0
10
114.3
20
-21.83
10
112.61
20
-21.96
10
113.85
20
-20.78
72
1
10
113.85
20
-20.78
11
131.79
21
-3.75
97
0
75
0
76
1
98
0
0
HATCH
5
370
100
AcDbEntity
8
Layer 6
6
ByLayer
370
-1
62
256
100
AcDbHatch
10
0
20
0
30
0
210
0
220
0
230
1
2
FILL_880
70
1
71
0
91
1
92
0
93
10
72
4
94
2
73
0
74
0
95
6
96
3
40
0.0
40
0.0
40
0.0
40
1.0
40
1.0
40
1.0
10
58.06
20
-24.43
10
51.56
20
-17.38
10
45.69
20
-10.99
72
4
94
2
73
0
74
0
95
6
96
3
40
0.0
40
0.0
40
0.0
40
1.0
40
1.0
40
1.0
10
45.69
20
-10.99
10
44.63
20
-9.85
10
46.09
20
-10.41
72
1
10
46.09
20
-10.41
11
82.68
21
-24.46
72
4
94
3
73
0
74
0
95
8
96
4
40
0.0
40
0.0
40
0.0
40
0.0
40
1.0
40
1.0
40
1.0
40
1.0
10
82.68
20
-24.46
10
82.8584115665
20
-24.5296240259
10
82.9885394185
20
-24.685902608
10
83.0250124944
20
-24.8743468333
72
4
94
3
73
0
74
0
95
8
96
4
40
0.0
40
0.0
40
0.0
40
0.0
40
1.0
40
1.0
40
1.0
40
1.0
10
83.0250124944
20
-24.8743468333
10
83.0614855703
20
-25.0627910586
10
82.9992480519
20
-25.2572792006
10
82.86
20
-25.39
72
1
10
82.86
20
-25.39
11
70.83
21
-37.04
72
1
10
70.83
20
-37.04
11
70.83
21
-37.04
72
4
94
3
73
0
74
0
95
8
96
4
40
0.0
40
0.0
40
0.0
40
0.0
40
1.0
40
1.0
40
1.0
40
1.0
10
70.83
20
-37.04
10
70.7000638828
20
-37.1646326022
10
70.5269592614
20
-37.2336014011
10
70.3487876028
20
-37.23172591
72
4
94
3
73
0
74
0
95
8
96
4
40
0.0
40
0.0
40
0.0
40
0.0
40
1.0
40
1.0
40
1.0
40
1.0
10
70.3487876028
20
-37.23172591
10
70.1706159442
20
-37.2298504188
10
70.0019808447
20
-37.1572843597
10
69.88
20
-37.03
72
4
94
2
73
0
74
0
95
6
96
3
40
0.0
40
0.0
40
0.0
40
1.0
40
1.0
40
1.0
10
69.88
20
-37.03
10
63.7
20
-30.53
10
58.06
20
-24.43
97
0
75
0
76
1
98
0
0
HATCH
5
379
100
AcDbEntity
8
Layer 6
6
ByLayer
370
-1
62
256
100
AcDbHatch
10
0
20
0
30
0
210
0
220
0
230
1
2
FILL_889
70
1
71
0
91
1
92
0
93
8
72
4
94
2
73
0
74
0
95
6
96
3
40
0.0
40
0.0
40
0.0
40
1.0
40
1.0
40
1.0
10
40.32
20
-18.4
10
41.43
20
-14.89
10
42.72
20
-11.36
72
4
94
2
73
0
74
0
95
6
96
3
40
0.0
40
0.0
40
0.0
40
1.0
40
1.0
40
1.0
10
42.72
20
-11.36
10
43.17
20
-10.12
10
43.68
20
-11.34
72
1
10
43.68
20
-11.34
11
58.96
21
-47.4
72
1
10
58.96
20
-47.4
11
58.96
21
-47.4
72
4
94
3
73
0
74
0
95
8
96
4
40
0.0
40
0.0
40
0.0
40
0.0
40
1.0
40
1.0
40
1.0
40
1.0
10
58.96
20
-47.4
10
59.1467212191
20
-47.8396983548
10
59.0433261126
20
-48.3487204177
10
58.7
20
-48.68
72
1
10
58.7
20
-48.68
11
20.32
21
-85.45
72
4
94
2
73
0
74
0
95
6
96
3
40
0.0
40
0.0
40
0.0
40
1.0
40
1.0
40
1.0
10
20.32
20
-85.45
10
18.6
20
-87.11
10
19.32
20
-84.83
72
4
94
2
73
0
74
0
95
6
96
3
40
0.0
40
0.0
40
0.0
40
1.0
40
1.0
40
1.0
10
19.32
20
-84.83
10
29.92
20
-51.33
10
40.32
20
-18.4
97
0
75
0
76
1
98
0
0
HATCH
5
383
100
AcDbEntity
8
Layer 6
6
ByLayer
370
-1
62
256
100
AcDbHatch
10
0
20
0
30
0
210
0
220
0
230
1
2
FILL_899
70
1
71
0
91
1
92
0
93
9
72
4
94
2
73
0
74
0
95
6
96
3
40
0.0
40
0.0
40
0.0
40
1.0
40
1.0
40
1.0
10
48.62
20
-15.64
10
58.84
20
-26.81
10
69.16
20
-37.89
72
4
94
3
73
0
74
0
95
8
96
4
40
0.0
40
0.0
40
0.0
40
0.0
40
1.0
40
1.0
40
1.0
40
1.0
10
69.16
20
-37.89
10
69.3477768149
20
-38.0888225099
10
69.3388225099
20
-38.4022231851
10
69.14
20
-38.59
72
1
10
69.14
20
-38.59
11
60.68
21
-46.67
72
1
10
60.68
20
-46.67
11
60.68
21
-46.67
72
4
94
3
73
0
74
0
95
8
96
4
40
0.0
40
0.0
40
0.0
40
0.0
40
1.0
40
1.0
40
1.0
40
1.0
10
60.68
20
-46.67
10
60.5401695693
20
-46.8053197716
10
60.3428103555
20
-46.8635300629
10
60.152734311
20
-46.825514854
72
4
94
3
73
0
74
0
95
8
96
4
40
0.0
40
0.0
40
0.0
40
0.0
40
1.0
40
1.0
40
1.0
40
1.0
10
60.152734311
20
-46.825514854
10
59.9626582666
20
-46.7874996451
10
59.8044258744
20
-46.6581710326
10
59.73
20
-46.48
72
1
10
59.73
20
-46.48
11
45.73
21
-13.45
72
4
94
2
73
0
74
0
95
6
96
3
40
0.0
40
0.0
40
0.0
40
1.0
40
1.0
40
1.0
10
45.73
20
-13.45
10
44.96
20
-11.64
10
46.29
20
-13.09
72
4
94
2
73
0
74
0
95
6
96
3
40
0.0
40
0.0
40
0.0
40
1.0
40
1.0
40
1.0
10
46.29
20
-13.09
10
47.19
20
-14.07
10
48.62
20
-15.64
97
0
75
0
76
1
98
0
0
HATCH
5
38c
100
AcDbEntity
8
Layer 6
6
ByLayer
370
-1
62
256
100
AcDbHatch
10
0
20
0
30
0
210
0
220
0
230
1
2
FILL_908
70
1
71
0
91
1
92
0
93
8
72
4
94
2
73
0
74
0
95
6
96
3
40
0.0
40
0.0
40
0.0
40
1.0
40
1.0
40
1.0
10
171.23
20
-22.24
10
166.74
20
-26.54
10
161.89
20
-30.43
72
1
10
161.89
20
-30.43
11
161.89
21
-30.43
72
4
94
3
73
0
74
0
95
8
96
4
40
0.0
40
0.0
40
0.0
40
0.0
40
1.0
40
1.0
40
1.0
40
1.0
10
161.89
20
-30.43
10
161.6703498215
20
-30.6102257875
10
161.3514898992
20
-30.5927540109
10
161.16
20
-30.39
72
1
10
161.16
20
-30.39
11
152.05
21
-20.68
72
4
94
2
73
0
74
0
95
6
96
3
40
0.0
40
0.0
40
0.0
40
1.0
40
1.0
40
1.0
10
152.05
20
-20.68
10
151.47
20
-20.06
10
152.32
20
-20.0
72
1
10
152.32
20
-20.0
11
174.17
21
-18.45
72
4
94
2
73
0
74
0
95
6
96
3
40
0.0
40
0.0
40
0.0
40
1.0
40
1.0
40
1.0
10
174.17
20
-18.45
10
174.69
20
-18.41
10
174.36
20
-18.81
72
4
94
2
73
0
74
0
95
6
96
3
40
0.0
40
0.0
40
0.0
40
1.0
40
1.0
40
1.0
10
174.36
20
-18.81
10
172.7
20
-20.83
10
171.23
20
-22.24
97
0
75
0
76
1
98
0
0
HATCH
5
395
100
AcDbEntity
8
Layer 6
6
ByLayer
370
-1
62
256
100
AcDbHatch
10
0
20
0
30
0
210
0
220
0
230
1
2
FILL_917
70
1
71
0
91
1
92
0
93
8
72
4
94
2
73
0
74
0
95
6
96
3
40
0.0
40
0.0
40
0.0
40
1.0
40
1.0
40
1.0
10
189.03
20
-60.46
10
179.69
20
-50.52
10
170.59
20
-40.37
72
1
10
170.59
20
-40.37
11
170.59
21
-40.37
72
4
94
3
73
0
74
0
95
8
96
4
40
0.0
40
0.0
40
0.0
40
0.0
40
1.0
40
1.0
40
1.0
40
1.0
10
170.59
20
-40.37
10
170.3851308737
20
-40.1465064077
10
170.3130858252
20
-39.8279914564
10
170.4
20
-39.53
72
1
10
170.4
20
-39.53
11
175.99
21
-20.69
72
4
94
2
73
0
74
0
95
6
96
3
40
0.0
40
0.0
40
0.0
40
1.0
40
1.0
40
1.0
10
175.99
20
-20.69
10
176.5
20
-18.98
10
177.21
20
-20.6
72
1
10
177.21
20
-20.6
11
199.26
21
-70.27
72
4
94
2
73
0
74
0
95
6
96
3
40
0.0
40
0.0
40
0.0
40
1.0
40
1.0
40
1.0
10
199.26
20
-70.27
10
200.1
20
-72.17
10
198.67
20
-70.66
72
4
94
2
73
0
74
0
95
6
96
3
40
0.0
40
0.0
40
0.0
40
1.0
40
1.0
40
1.0
10
198.67
20
-70.66
10
193.87
20
-65.62
10
189.03
20
-60.46
97
0
75
0
76
1
98
0
0
HATCH
5
3a5
100
AcDbEntity
8
Layer 6
6
ByLayer
370
-1
62
256
100
AcDbHatch
10
0
20
0
30
0
210
0
220
0
230
1
2
FILL_933
70
1
71
0
91
1
92
0
93
15
72
1
10
124.06
20
-65.93
11
117.38
21
-58.82
72
1
10
117.38
20
-58.82
11
117.38
21
-58.82
72
4
94
3
73
0
74
0
95
8
96
4
40
0.0
40
0.0
40
0.0
40
0.0
40
1.0
40
1.0
40
1.0
40
1.0
10
117.38
20
-58.82
10
117.1757243655
20
-58.603344024
10
117.1071474388
20
-58.2756987079
10
117.2
20
-57.96
72
1
10
117.2
20
-57.96
11
128.04
21
-22.42
72
1
10
128.04
20
-22.42
11
128.04
21
-22.42
72
4
94
3
73
0
74
0
95
8
96
4
40
0.0
40
0.0
40
0.0
40
0.0
40
1.0
40
1.0
40
1.0
40
1.0
10
128.04
20
-22.42
10
128.1305325952
20
-22.124260189
10
128.3882246826
20
-21.9141420254
10
128.69
20
-21.89
72
1
10
128.69
20
-21.89
11
149.75
21
-20.28
72
1
10
149.75
20
-20.28
11
149.75
21
-20.28
72
4
94
3
73
0
74
0
95
8
96
4
40
0.0
40
0.0
40
0.0
40
0.0
40
1.0
40
1.0
40
1.0
40
1.0
10
149.75
20
-20.28
10
150.0468586139
20
-20.2547354371
10
150.352618934
20
-20.3799866526
10
150.58
20
-20.62
72
1
10
150.58
20
-20.62
11
160.37
21
-31.12
72
1
10
160.37
20
-31.12
11
160.37
21
-31.12
72
4
94
3
73
0
74
0
95
8
96
4
40
0.0
40
0.0
40
0.0
40
0.0
40
1.0
40
1.0
40
1.0
40
1.0
10
160.37
20
-31.12
10
160.6973740236
20
-31.4695688727
10
160.6884714482
20
-32.0126259764
10
160.35
20
-32.34
72
1
10
160.35
20
-32.34
11
124.93
21
-65.93
72
4
94
3
73
0
74
0
95
8
96
4
40
0.0
40
0.0
40
0.0
40
0.0
40
1.0
40
1.0
40
1.0
40
1.0
10
124.93
20
-65.93
10
124.6752176448
20
-66.1681661146
10
124.2870886209
20
-66.1681661146
10
124.06
20
-65.93
72
1
10
124.06
20
-65.93
11
124.06
21
-65.93
97
0
75
0
76
1
98
0
0
HATCH
5
3b0
100
AcDbEntity
8
Layer 6
6
ByLayer
370
-1
62
256
100
AcDbHatch
10
0
20
0
30
0
210
0
220
0
230
1
2
FILL_944
70
1
71
0
91
1
92
0
93
10
72
4
94
2
73
0
74
0
95
6
96
3
40
0.0
40
0.0
40
0.0
40
1.0
40
1.0
40
1.0
10
172.98
20
-27.87
10
171.33
20
-33.04
10
169.74
20
-38.27
72
1
10
169.74
20
-38.27
11
169.74
21
-38.27
72
4
94
3
73
0
74
0
95
8
96
4
40
0.0
40
0.0
40
0.0
40
0.0
40
1.0
40
1.0
40
1.0
40
1.0
10
169.74
20
-38.27
10
169.675780573
20
-38.4875174141
10
169.4981495801
20
-38.6517465273
10
169.2736319123
20
-38.7011816102
72
4
94
3
73
0
74
0
95
8
96
4
40
0.0
40
0.0
40
0.0
40
0.0
40
1.0
40
1.0
40
1.0
40
1.0
10
169.2736319123
20
-38.7011816102
10
169.0491142444
20
-38.750616693
10
168.8115843647
20
-38.677799148
10
168.65
20
-38.51
72
1
10
168.65
20
-38.51
11
162.74
21
-32.36
72
4
94
3
73
0
74
0
95
8
96
4
40
0.0
40
0.0
40
0.0
40
0.0
40
1.0
40
1.0
40
1.0
40
1.0
10
162.74
20
-32.36
10
162.6083089581
20
-32.2256751373
10
162.5362247071
20
-32.0439922212
10
162.5399869096
20
-31.8558820963
72
4
94
3
73
0
74
0
95
8
96
4
40
0.0
40
0.0
40
0.0
40
0.0
40
1.0
40
1.0
40
1.0
40
1.0
10
162.5399869096
20
-31.8558820963
10
162.5437491121
20
-31.6677719713
10
162.6230413164
20
-31.4890572211
10
162.76
20
-31.36
72
1
10
162.76
20
-31.36
11
173.92
21
-20.71
72
4
94
2
73
0
74
0
95
6
96
3
40
0.0
40
0.0
40
0.0
40
1.0
40
1.0
40
1.0
10
173.92
20
-20.71
10
175.2
20
-19.48
10
174.8
20
-21.2
72
4
94
2
73
0
74
0
95
6
96
3
40
0.0
40
0.0
40
0.0
40
1.0
40
1.0
40
1.0
10
174.8
20
-21.2
10
173.96
20
-24.82
10
172.98
20
-27.87
97
0
75
0
76
1
98
0
0
HATCH
5
3c0
100
AcDbEntity
8
Layer 6
6
ByLayer
370
-1
62
256
100
AcDbHatch
10
0
20
0
30
0
210
0
220
0
230
1
2
FILL_960
70
1
71
0
91
1
92
0
93
15
72
1
10
111.1
20
-23.92
11
111.1
21
-23.92
72
4
94
3
73
0
74
0
95
8
96
4
40
0.0
40
0.0
40
0.0
40
0.0
40
1.0
40
1.0
40
1.0
40
1.0
10
111.1
20
-23.92
10
111.67568499
20
-23.383125234
10
112.445580183
20
-23.0582153361
10
113.28
20
-23.0
72
1
10
113.28
20
-23.0
11
126.63
21
-22.01
72
1
10
126.63
20
-22.01
11
126.63
21
-22.01
72
4
94
3
73
0
74
0
95
8
96
4
40
0.0
40
0.0
40
0.0
40
0.0
40
1.0
40
1.0
40
1.0
40
1.0
10
126.63
20
-22.01
10
126.7495056665
20
-22.0009807044
10
126.8652964457
20
-22.0530466587
10
126.939332041
20
-22.1490928363
72
4
94
3
73
0
74
0
95
8
96
4
40
0.0
40
0.0
40
0.0
40
0.0
40
1.0
40
1.0
40
1.0
40
1.0
10
126.939332041
20
-22.1490928363
10
127.0133676362
20
-22.2451390139
10
127.0360771823
20
-22.3727491574
10
127.0
20
-22.49
72
1
10
127.0
20
-22.49
11
116.67
21
-56.39
72
1
10
116.67
20
-56.39
11
116.67
21
-56.39
72
4
94
3
73
0
74
0
95
8
96
4
40
0.0
40
0.0
40
0.0
40
0.0
40
1.0
40
1.0
40
1.0
40
1.0
10
116.67
20
-56.39
10
116.5831036423
20
-56.6693097211
10
116.3546108015
20
-56.8817918062
10
116.0702418143
20
-56.9477324409
72
4
94
3
73
0
74
0
95
8
96
4
40
0.0
40
0.0
40
0.0
40
0.0
40
1.0
40
1.0
40
1.0
40
1.0
10
116.0702418143
20
-56.9477324409
10
115.7858728272
20
-57.0136730756
10
115.4886202461
20
-56.9231029724
10
115.29
20
-56.71
72
1
10
115.29
20
-56.71
11
97.37
21
-37.76
72
1
10
97.37
20
-37.76
11
97.37
21
-37.76
72
4
94
3
73
0
74
0
95
8
96
4
40
0.0
40
0.0
40
0.0
40
0.0
40
1.0
40
1.0
40
1.0
40
1.0
10
97.37
20
-37.76
10
97.2374457975
20
-37.6194925453
10
97.1640184678
20
-37.4340940954
10
97.1658941694
20
-37.2446482262
72
4
94
3
73
0
74
0
95
8
96
4
40
0.0
40
0.0
40
0.0
40
0.0
40
1.0
40
1.0
40
1.0
40
1.0
10
97.1658941694
20
-37.2446482262
10
97.1677698711
20
-37.0552023571
10
97.2447947134
20
-36.8772520344
10
97.38
20
-36.75
72
1
10
97.38
20
-36.75
11
111.1
21
-23.92
97
0
75
0
76
1
98
0
0
HATCH
5
3ca
100
AcDbEntity
8
Layer 6
6
ByLayer
370
-1
62
256
100
AcDbHatch
10
0
20
0
30
0
210
0
220
0
230
1
2
FILL_970
70
1
71
0
91
1
92
0
93
9
72
1
10
95.97
20
-35.83
11
86.49
21
-25.74
72
4
94
2
73
0
74
0
95
6
96
3
40
0.0
40
0.0
40
0.0
40
1.0
40
1.0
40
1.0
10
86.49
20
-25.74
10
85.93
20
-25.14
10
86.76
20
-25.08
72
1
10
86.76
20
-25.08
11
108.6
21
-23.43
72
4
94
2
73
0
74
0
95
6
96
3
40
0.0
40
0.0
40
0.0
40
1.0
40
1.0
40
1.0
10
108.6
20
-23.43
10
109.91
20
-23.33
10
108.93
20
-24.25
72
1
10
108.93
20
-24.25
11
96.82
21
-35.81
72
1
10
96.82
20
-35.81
11
96.82
21
-35.81
72
4
94
3
73
0
74
0
95
8
96
4
40
0.0
40
0.0
40
0.0
40
0.0
40
1.0
40
1.0
40
1.0
40
1.0
10
96.82
20
-35.81
10
96.6986267126
20
-35.926096188
10
96.5403332915
20
-35.9935794714
10
96.3805654535
20
-35.9973387146
72
4
94
3
73
0
74
0
95
8
96
4
40
0.0
40
0.0
40
0.0
40
0.0
40
1.0
40
1.0
40
1.0
40
1.0
10
96.3805654535
20
-35.9973387146
10
96.2207976154
20
-36.0010979578
10
96.0729034393
20
-35.9408190885
10
95.97
20
-35.83
72
1
10
95.97
20
-35.83
11
95.97
21
-35.83
97
0
75
0
76
1
98
0
0
HATCH
5
3d7
100
AcDbEntity
8
Layer 6
6
ByLayer
370
-1
62
256
100
AcDbHatch
10
0
20
0
30
0
210
0
220
0
230
1
2
FILL_983
70
1
71
0
91
1
92
0
93
12
72
4
94
2
73
0
74
0
95
6
96
3
40
0.0
40
0.0
40
0.0
40
1.0
40
1.0
40
1.0
10
82.15
20
-27.75
10
82.74
20
-27.19
10
83.01
20
-26.71
72
4
94
2
73
0
74
0
95
6
96
3
40
0.0
40
0.0
40
0.0
40
1.0
40
1.0
40
1.0
10
83.01
20
-26.71
10
84.09
20
-24.77
10
85.1
20
-27.17
72
4
94
2
73
0
74
0
95
6
96
3
40
0.0
40
0.0
40
0.0
40
1.0
40
1.0
40
1.0
10
85.1
20
-27.17
10
87.66
20
-33.29
10
90.8
20
-40.1
72
1
10
90.8
20
-40.1
11
90.8
21
-40.1
72
4
94
3
73
0
74
0
95
8
96
4
40
0.0
40
0.0
40
0.0
40
0.0
40
1.0
40
1.0
40
1.0
40
1.0
10
90.8
20
-40.1
10
91.0389852577
20
-40.6197929354
10
90.926274938
20
-41.2276235877
10
90.52
20
-41.61
72
1
10
90.52
20
-41.61
11
82.11
21
-49.66
72
1
10
82.11
20
-49.66
11
82.11
21
-49.66
72
4
94
3
73
0
74
0
95
8
96
4
40
0.0
40
0.0
40
0.0
40
0.0
40
1.0
40
1.0
40
1.0
40
1.0
10
82.11
20
-49.66
10
82.0202290198
20
-49.7471306573
10
81.896718866
20
-49.791943755
10
81.7670632498
20
-49.7844274874
72
4
94
3
73
0
74
0
95
8
96
4
40
0.0
40
0.0
40
0.0
40
0.0
40
1.0
40
1.0
40
1.0
40
1.0
10
81.7670632498
20
-49.7844274874
10
81.6374076336
20
-49.7769112198
10
81.5124113032
20
-49.7176919491
10
81.42
20
-49.62
72
1
10
81.42
20
-49.62
11
71.35
21
-38.85
72
4
94
3
73
0
74
0
95
8
96
4
40
0.0
40
0.0
40
0.0
40
0.0
40
1.0
40
1.0
40
1.0
40
1.0
10
71.35
20
-38.85
10
71.1504538371
20
-38.6393679392
10
71.1459967861
20
-38.3184602649
10
71.34
20
-38.13
72
1
10
71.34
20
-38.13
11
82.15
21
-27.75
97
0
75
0
76
1
98
0
0
HATCH
5
3e1
100
AcDbEntity
8
Layer 6
6
ByLayer
370
-1
62
256
100
AcDbHatch
10
0
20
0
30
0
210
0
220
0
230
1
2
FILL_993
70
1
71
0
91
1
92
0
93
9
72
4
94
2
73
0
74
0
95
6
96
3
40
0.0
40
0.0
40
0.0
40
1.0
40
1.0
40
1.0
10
93.34
20
-39.01
10
92.27
20
-40.97
10
91.31
20
-38.69
72
4
94
2
73
0
74
0
95
6
96
3
40
0.0
40
0.0
40
0.0
40
1.0
40
1.0
40
1.0
10
91.31
20
-38.69
10
89.1
20
-33.39
10
86.53
20
-28.25
72
4
94
2
73
0
74
0
95
6
96
3
40
0.0
40
0.0
40
0.0
40
1.0
40
1.0
40
1.0
10
86.53
20
-28.25
10
86.16
20
-27.52
10
86.78
20
-27.73
72
4
94
2
73
0
74
0
95
6
96
3
40
0.0
40
0.0
40
0.0
40
1.0
40
1.0
40
1.0
10
86.78
20
-27.73
10
87.04
20
-27.81
10
87.31
20
-28.19
72
4
94
2
73
0
74
0
95
6
96
3
40
0.0
40
0.0
40
0.0
40
1.0
40
1.0
40
1.0
10
87.31
20
-28.19
10
90.21
20
-32.12
10
94.89
20
-36.42
72
1
10
94.89
20
-36.42
11
94.89
21
-36.42
72
4
94
3
73
0
74
0
95
8
96
4
40
0.0
40
0.0
40
0.0
40
0.0
40
1.0
40
1.0
40
1.0
40
1.0
10
94.89
20
-36.42
10
95.119111159
20
-36.6314872237
10
95.1851168374
20
-36.9532649057
10
95.05
20
-37.2
72
4
94
2
73
0
74
0
95
6
96
3
40
0.0
40
0.0
40
0.0
40
1.0
40
1.0
40
1.0
10
95.05
20
-37.2
10
94.68
20
-37.9
10
94.01
20
-38.33
72
4
94
2
73
0
74
0
95
6
96
3
40
0.0
40
0.0
40
0.0
40
1.0
40
1.0
40
1.0
10
94.01
20
-38.33
10
93.56
20
-38.61
10
93.34
20
-39.01
97
0
75
0
76
1
98
0
0
HATCH
5
3f3
100
AcDbEntity
8
Layer 6
6
ByLayer
370
-1
62
256
100
AcDbHatch
10
0
20
0
30
0
210
0
220
0
230
1
2
FILL_1011
70
1
71
0
91
1
92
0
93
17
72
4
94
2
73
0
74
0
95
6
96
3
40
0.0
40
0.0
40
0.0
40
1.0
40
1.0
40
1.0
10
136.64
20
-56.3
10
148.53
20
-44.74
10
161.16
20
-33.01
72
1
10
161.16
20
-33.01
11
161.16
21
-33.01
72
4
94
3
73
0
74
0
95
8
96
4
40
0.0
40
0.0
40
0.0
40
0.0
40
1.0
40
1.0
40
1.0
40
1.0
10
161.16
20
-33.01
10
161.3761562837
20
-32.8104711228
10
161.7060135916
20
-32.814928654
10
161.9
20
-33.02
72
1
10
161.9
20
-33.02
11
168.66
21
-40.12
72
1
10
168.66
20
-40.12
11
168.66
21
-40.12
72
4
94
3
73
0
74
0
95
8
96
4
40
0.0
40
0.0
40
0.0
40
0.0
40
1.0
40
1.0
40
1.0
40
1.0
10
168.66
20
-40.12
10
168.8707851394
20
-40.3493838281
10
168.9429934438
20
-40.6800218539
10
168.85
20
-40.99
72
1
10
168.85
20
-40.99
11
158.05
21
-76.63
72
1
10
158.05
20
-76.63
11
158.05
21
-76.63
72
4
94
3
73
0
74
0
95
8
96
4
40
0.0
40
0.0
40
0.0
40
0.0
40
1.0
40
1.0
40
1.0
40
1.0
10
158.05
20
-76.63
10
157.9540599876
20
-76.9537975419
10
157.6697937927
20
-77.1820112477
10
157.34
20
-77.2
72
1
10
157.34
20
-77.2
11
136.24
21
-78.48
72
1
10
136.24
20
-78.48
11
136.24
21
-78.48
72
4
94
3
73
0
74
0
95
8
96
4
40
0.0
40
0.0
40
0.0
40
0.0
40
1.0
40
1.0
40
1.0
40
1.0
10
136.24
20
-78.48
10
135.9173402718
20
-78.498979984
10
135.6087798241
20
-78.3777598081
10
135.4
20
-78.15
72
1
10
135.4
20
-78.15
11
125.63
21
-67.45
72
1
10
125.63
20
-67.45
11
125.63
21
-67.45
72
4
94
3
73
0
74
0
95
8
96
4
40
0.0
40
0.0
40
0.0
40
0.0
40
1.0
40
1.0
40
1.0
40
1.0
10
125.63
20
-67.45
10
125.4428008229
20
-67.2401100136
10
125.4557827159
20
-66.9112353911
10
125.66
20
-66.69
72
4
94
2
73
0
74
0
95
6
96
3
40
0.0
40
0.0
40
0.0
40
1.0
40
1.0
40
1.0
10
125.66
20
-66.69
10
128.29
20
-63.96
10
131.09
20
-61.42
72
4
94
2
73
0
74
0
95
6
96
3
40
0.0
40
0.0
40
0.0
40
1.0
40
1.0
40
1.0
10
131.09
20
-61.42
10
135.15
20
-57.75
10
136.64
20
-56.3
97
0
75
0
76
1
98
0
0
HATCH
5
3ff
100
AcDbEntity
8
Layer 6
6
ByLayer
370
-1
62
256
100
AcDbHatch
10
0
20
0
30
0
210
0
220
0
230
1
2
FILL_1023
70
1
71
0
91
1
92
0
93
11
72
1
10
115.27
20
-58.46
11
115.27
21
-58.46
72
4
94
3
73
0
74
0
95
8
96
4
40
0.0
40
0.0
40
0.0
40
0.0
40
1.0
40
1.0
40
1.0
40
1.0
10
115.27
20
-58.46
10
115.5863520728
20
-58.8073669819
10
115.6964656
20
-59.2971823271
10
115.56
20
-59.75
72
1
10
115.56
20
-59.75
11
109.86
21
-78.37
72
4
94
2
73
0
74
0
95
6
96
3
40
0.0
40
0.0
40
0.0
40
1.0
40
1.0
40
1.0
10
109.86
20
-78.37
10
109.51
20
-79.5
10
109.04
20
-78.42
72
4
94
2
73
0
74
0
95
6
96
3
40
0.0
40
0.0
40
0.0
40
1.0
40
1.0
40
1.0
10
109.04
20
-78.42
10
101.14
20
-60.31
10
93.13
20
-43.02
72
4
94
2
73
0
74
0
95
6
96
3
40
0.0
40
0.0
40
0.0
40
1.0
40
1.0
40
1.0
10
93.13
20
-43.02
10
92.56
20
-41.79
10
92.81
20
-41.03
72
4
94
2
73
0
74
0
95
6
96
3
40
0.0
40
0.0
40
0.0
40
1.0
40
1.0
40
1.0
10
92.81
20
-41.03
10
93.09
20
-40.16
10
93.99
20
-39.65
72
4
94
2
73
0
74
0
95
6
96
3
40
0.0
40
0.0
40
0.0
40
1.0
40
1.0
40
1.0
10
93.99
20
-39.65
10
94.44
20
-39.4
10
94.71
20
-39.02
72
4
94
2
73
0
74
0
95
6
96
3
40
0.0
40
0.0
40
0.0
40
1.0
40
1.0
40
1.0
10
94.71
20
-39.02
10
95.95
20
-37.31
10
97.16
20
-38.83
72
4
94
2
73
0
74
0
95
6
96
3
40
0.0
40
0.0
40
0.0
40
1.0
40
1.0
40
1.0
10
97.16
20
-38.83
10
98.0
20
-39.9
10
98.07
20
-39.97
72
4
94
2
73
0
74
0
95
6
96
3
40
0.0
40
0.0
40
0.0
40
1.0
40
1.0
40
1.0
10
98.07
20
-39.97
10
106.43
20
-48.76
10
115.27
20
-58.46
97
0
75
0
76
1
98
0
0
HATCH
5
40e
100
AcDbEntity
8
Layer 6
6
ByLayer
370
-1
62
256
100
AcDbHatch
10
0
20
0
30
0
210
0
220
0
230
1
2
FILL_1038
70
1
71
0
91
1
92
0
93
14
72
4
94
2
73
0
74
0
95
6
96
3
40
0.0
40
0.0
40
0.0
40
1.0
40
1.0
40
1.0
10
73.91
20
-43.11
10
77.18
20
-46.82
10
80.29
20
-49.91
72
1
10
80.29
20
-49.91
11
80.29
21
-49.91
72
4
94
3
73
0
74
0
95
8
96
4
40
0.0
40
0.0
40
0.0
40
0.0
40
1.0
40
1.0
40
1.0
40
1.0
10
80.29
20
-49.91
10
80.4858084772
20
-50.1058084772
10
80.5938104363
20
-50.3732193748
10
80.5900558916
20
-50.6529329607
72
4
94
3
73
0
74
0
95
8
96
4
40
0.0
40
0.0
40
0.0
40
0.0
40
1.0
40
1.0
40
1.0
40
1.0
10
80.5900558916
20
-50.6529329607
10
80.5863013468
20
-50.9326465467
10
80.4711005982
20
-51.2015454623
10
80.27
20
-51.4
72
1
10
80.27
20
-51.4
11
67.89
21
-63.48
72
4
94
3
73
0
74
0
95
8
96
4
40
0.0
40
0.0
40
0.0
40
0.0
40
1.0
40
1.0
40
1.0
40
1.0
10
67.89
20
-63.48
10
67.7245263852
20
-63.6432374849
10
67.4891724719
20
-63.7146881819
10
67.2623884299
20
-63.6705355366
72
4
94
3
73
0
74
0
95
8
96
4
40
0.0
40
0.0
40
0.0
40
0.0
40
1.0
40
1.0
40
1.0
40
1.0
10
67.2623884299
20
-63.6705355366
10
67.0356043878
20
-63.6263828912
10
66.8472090673
20
-63.4724323434
10
66.76
20
-63.26
72
1
10
66.76
20
-63.26
11
60.75
21
-48.78
72
1
10
60.75
20
-48.78
11
60.75
21
-48.78
72
4
94
3
73
0
74
0
95
8
96
4
40
0.0
40
0.0
40
0.0
40
0.0
40
1.0
40
1.0
40
1.0
40
1.0
10
60.75
20
-48.78
10
60.6241961629
20
-48.4864577134
10
60.6883456203
20
-48.153682403
10
60.91
20
-47.95
72
1
10
60.91
20
-47.95
11
69.87
21
-39.57
72
1
10
69.87
20
-39.57
11
69.87
21
-39.57
72
4
94
3
73
0
74
0
95
8
96
4
40
0.0
40
0.0
40
0.0
40
0.0
40
1.0
40
1.0
40
1.0
40
1.0
10
69.87
20
-39.57
10
70.0704618394
20
-39.3806749294
10
70.3939697762
20
-39.3939697762
10
70.6
20
-39.6
72
4
94
2
73
0
74
0
95
6
96
3
40
0.0
40
0.0
40
0.0
40
1.0
40
1.0
40
1.0
10
70.6
20
-39.6
10
72.31
20
-41.3
10
73.91
20
-43.11
97
0
75
0
76
1
98
0
0
HATCH
5
41c
100
AcDbEntity
8
Layer 6
6
ByLayer
370
-1
62
256
100
AcDbHatch
10
0
20
0
30
0
210
0
220
0
230
1
2
FILL_1052
70
1
71
0
91
1
92
0
93
13
72
4
94
2
73
0
74
0
95
6
96
3
40
0.0
40
0.0
40
0.0
40
1.0
40
1.0
40
1.0
10
176.24
20
-48.03
10
186.96
20
-59.59
10
197.64
20
-71.2
72
4
94
2
73
0
74
0
95
6
96
3
40
0.0
40
0.0
40
0.0
40
1.0
40
1.0
40
1.0
10
197.64
20
-71.2
10
198.04
20
-71.64
10
199.1
20
-72.56
72
4
94
2
73
0
74
0
95
6
96
3
40
0.0
40
0.0
40
0.0
40
1.0
40
1.0
40
1.0
10
199.1
20
-72.56
10
201.53
20
-74.67
10
197.77
20
-74.56
72
4
94
2
73
0
74
0
95
6
96
3
40
0.0
40
0.0
40
0.0
40
1.0
40
1.0
40
1.0
10
197.77
20
-74.56
10
196.45
20
-74.52
10
195.74
20
-74.57
72
4
94
2
73
0
74
0
95
6
96
3
40
0.0
40
0.0
40
0.0
40
1.0
40
1.0
40
1.0
10
195.74
20
-74.57
10
178.1
20
-75.85
10
159.68
20
-77.05
72
1
10
159.68
20
-77.05
11
159.68
21
-77.05
72
4
94
3
73
0
74
0
95
8
96
4
40
0.0
40
0.0
40
0.0
40
0.0
40
1.0
40
1.0
40
1.0
40
1.0
10
159.68
20
-77.05
10
159.5288647504
20
-77.06127875
10
159.3822088125
20
-76.9962189861
10
159.2881775049
20
-76.876179019
72
4
94
3
73
0
74
0
95
8
96
4
40
0.0
40
0.0
40
0.0
40
0.0
40
1.0
40
1.0
40
1.0
40
1.0
10
159.2881775049
20
-76.876179019
10
159.1941461974
20
-76.7561390519
10
159.1648850001
20
-76.5966237496
10
159.21
20
-76.45
72
1
10
159.21
20
-76.45
11
169.54
21
-42.36
72
1
10
169.54
20
-42.36
11
169.54
21
-42.36
72
4
94
3
73
0
74
0
95
8
96
4
40
0.0
40
0.0
40
0.0
40
0.0
40
1.0
40
1.0
40
1.0
40
1.0
10
169.54
20
-42.36
10
169.6050474384
20
-42.1459729445
10
169.7781266406
20
-41.9821551763
10
169.9955520997
20
-41.9288244033
72
4
94
3
73
0
74
0
95
8
96
4
40
0.0
40
0.0
40
0.0
40
0.0
40
1.0
40
1.0
40
1.0
40
1.0
10
169.9955520997
20
-41.9288244033
10
170.2129775588
20
-41.8754936303
10
170.4426271651
20
-41.9405288606
10
170.6
20
-42.1
72
4
94
2
73
0
74
0
95
6
96
3
40
0.0
40
0.0
40
0.0
40
1.0
40
1.0
40
1.0
10
170.6
20
-42.1
10
173.41
20
-44.98
10
176.24
20
-48.03
97
0
75
0
76
1
98
0
0
HATCH
5
426
100
AcDbEntity
8
Layer 6
6
ByLayer
370
-1
62
256
100
AcDbHatch
10
0
20
0
30
0
210
0
220
0
230
1
2
FILL_1062
70
1
71
0
91
1
92
0
93
9
72
1
10
106.89
20
-77.06
11
82.83
21
-51.11
72
1
10
82.83
20
-51.11
11
82.83
21
-51.11
72
4
94
3
73
0
74
0
95
8
96
4
40
0.0
40
0.0
40
0.0
40
0.0
40
1.0
40
1.0
40
1.0
40
1.0
10
82.83
20
-51.11
10
82.7402558851
20
-51.0149768195
10
82.6929083897
20
-50.8874265303
10
82.6985463319
20
-50.7558745446
72
4
94
3
73
0
74
0
95
8
96
4
40
0.0
40
0.0
40
0.0
40
0.0
40
1.0
40
1.0
40
1.0
40
1.0
10
82.6985463319
20
-50.7558745446
10
82.7041842742
20
-50.6243225588
10
82.7623372868
20
-50.4997441149
10
82.86
20
-50.41
72
1
10
82.86
20
-50.41
11
91.12
21
-42.55
72
4
94
3
73
0
74
0
95
8
96
4
40
0.0
40
0.0
40
0.0
40
0.0
40
1.0
40
1.0
40
1.0
40
1.0
10
91.12
20
-42.55
10
91.2367131556
20
-42.4378638309
10
91.4009388752
20
-42.3900758906
10
91.5601559245
20
-42.4219193005
72
4
94
3
73
0
74
0
95
8
96
4
40
0.0
40
0.0
40
0.0
40
0.0
40
1.0
40
1.0
40
1.0
40
1.0
10
91.5601559245
20
-42.4219193005
10
91.7193729738
20
-42.4537627103
10
91.8536336958
20
-42.561247939
10
91.92
20
-42.71
72
1
10
91.92
20
-42.71
11
107.28
21
-76.79
72
4
94
2
73
0
74
0
95
6
96
3
40
0.0
40
0.0
40
0.0
40
1.0
40
1.0
40
1.0
10
107.28
20
-76.79
10
107.88
20
-78.13
10
106.89
20
-77.06
97
0
75
0
76
1
98
0
0
HATCH
5
437
100
AcDbEntity
8
Layer 6
6
ByLayer
370
-1
62
256
100
AcDbHatch
10
0
20
0
30
0
210
0
220
0
230
1
2
FILL_1079
70
1
71
0
91
1
92
0
93
16
72
4
94
2
73
0
74
0
95
6
96
3
40
0.0
40
0.0
40
0.0
40
1.0
40
1.0
40
1.0
10
37.88
20
-70.0
10
48.39
20
-59.6
10
59.32
20
-49.65
72
1
10
59.32
20
-49.65
11
59.32
21
-49.65
72
4
94
3
73
0
74
0
95
8
96
4
40
0.0
40
0.0
40
0.0
40
0.0
40
1.0
40
1.0
40
1.0
40
1.0
10
59.32
20
-49.65
10
59.4047725542
20
-49.5721008962
10
59.5214834619
20
-49.5387754481
10
59.6328879433
20
-49.5606584712
72
4
94
3
73
0
74
0
95
8
96
4
40
0.0
40
0.0
40
0.0
40
0.0
40
1.0
40
1.0
40
1.0
40
1.0
10
59.6328879433
20
-49.5606584712
10
59.7442924247
20
-49.5825414943
10
59.8364681479
20
-49.6568982449
10
59.88
20
-49.76
72
1
10
59.88
20
-49.76
11
66.05
21
-64.28
72
1
10
66.05
20
-64.28
11
66.05
21
-64.28
72
4
94
3
73
0
74
0
95
8
96
4
40
0.0
40
0.0
40
0.0
40
0.0
40
1.0
40
1.0
40
1.0
40
1.0
10
66.05
20
-64.28
10
66.1855387621
20
-64.5962571115
10
66.2103591747
20
-64.9331055688
10
66.12
20
-65.23
72
1
10
66.12
20
-65.23
11
60.52
21
-83.95
72
1
10
60.52
20
-83.95
11
60.52
21
-83.95
72
4
94
3
73
0
74
0
95
8
96
4
40
0.0
40
0.0
40
0.0
40
0.0
40
1.0
40
1.0
40
1.0
40
1.0
10
60.52
20
-83.95
10
60.4053626147
20
-84.3361469819
10
60.0563147149
20
-84.6137987204
10
59.64
20
-84.65
72
4
94
2
73
0
74
0
95
6
96
3
40
0.0
40
0.0
40
0.0
40
1.0
40
1.0
40
1.0
10
59.64
20
-84.65
10
42.68
20
-86.17
10
26.75
20
-87.39
72
4
94
2
73
0
74
0
95
6
96
3
40
0.0
40
0.0
40
0.0
40
1.0
40
1.0
40
1.0
10
26.75
20
-87.39
10
26.71
20
-87.39
10
23.76
20
-87.74
72
4
94
2
73
0
74
0
95
6
96
3
40
0.0
40
0.0
40
0.0
40
1.0
40
1.0
40
1.0
10
23.76
20
-87.74
10
21.79
20
-87.97
10
19.87
20
-87.76
72
4
94
2
73
0
74
0
95
6
96
3
40
0.0
40
0.0
40
0.0
40
1.0
40
1.0
40
1.0
10
19.87
20
-87.76
10
19.41
20
-87.71
10
19.74
20
-87.39
72
4
94
2
73
0
74
0
95
6
96
3
40
0.0
40
0.0
40
0.0
40
1.0
40
1.0
40
1.0
10
19.74
20
-87.39
10
24.27
20
-82.84
10
28.78
20
-78.66
72
4
94
2
73
0
74
0
95
6
96
3
40
0.0
40
0.0
40
0.0
40
1.0
40
1.0
40
1.0
10
28.78
20
-78.66
10
34.3
20
-73.55
10
37.88
20
-70.0
97
0
75
0
76
1
98
0
0
HATCH
5
440
100
AcDbEntity
8
Layer 6
6
ByLayer
370
-1
62
256
100
AcDbHatch
10
0
20
0
30
0
210
0
220
0
230
1
2
FILL_1088
70
1
71
0
91
1
92
0
93
8
72
4
94
2
73
0
74
0
95
6
96
3
40
0.0
40
0.0
40
0.0
40
1.0
40
1.0
40
1.0
10
106.27
20
-78.16
10
107.71
20
-79.71
10
105.73
20
-78.96
72
1
10
105.73
20
-78.96
11
68.53
21
-64.87
72
4
94
3
73
0
74
0
95
8
96
4
40
0.0
40
0.0
40
0.0
40
0.0
40
1.0
40
1.0
40
1.0
40
1.0
10
68.53
20
-64.87
10
68.4237445264
20
-64.828798898
10
68.3445699672
20
-64.7374100761
10
68.3202265775
20
-64.6278648228
72
4
94
3
73
0
74
0
95
8
96
4
40
0.0
40
0.0
40
0.0
40
0.0
40
1.0
40
1.0
40
1.0
40
1.0
10
68.3202265775
20
-64.6278648228
10
68.2958831879
20
-64.5183195694
10
68.3297662751
20
-64.4058967668
10
68.41
20
-64.33
72
1
10
68.41
20
-64.33
11
81.37
21
-52.08
72
4
94
3
73
0
74
0
95
8
96
4
40
0.0
40
0.0
40
0.0
40
0.0
40
1.0
40
1.0
40
1.0
40
1.0
10
81.37
20
-52.08
10
81.4677130891
20
-51.9875686995
10
81.5999047905
20
-51.9397760265
10
81.7370636273
20
-51.9472915792
72
4
94
3
73
0
74
0
95
8
96
4
40
0.0
40
0.0
40
0.0
40
0.0
40
1.0
40
1.0
40
1.0
40
1.0
10
81.7370636273
20
-51.9472915792
10
81.8742224642
20
-51.9548071319
10
82.0049278052
20
-52.0170051223
10
82.1
20
-52.12
72
1
10
82.1
20
-52.12
11
106.27
21
-78.16
97
0
75
0
76
1
98
0
0
HATCH
5
44c
100
AcDbEntity
8
Layer 6
6
ByLayer
370
-1
62
256
100
AcDbHatch
10
0
20
0
30
0
210
0
220
0
230
1
2
FILL_1100
70
1
71
0
91
1
92
0
93
11
72
4
94
2
73
0
74
0
95
6
96
3
40
0.0
40
0.0
40
0.0
40
1.0
40
1.0
40
1.0
10
117.06
20
-73.06
10
114.74
20
-75.09
10
112.03
20
-78.41
72
4
94
3
73
0
74
0
95
8
96
4
40
0.0
40
0.0
40
0.0
40
0.0
40
1.0
40
1.0
40
1.0
40
1.0
10
112.03
20
-78.41
10
111.9192610308
20
-78.5444687483
10
111.7827638502
20
-78.6487953936
10
111.6511485589
20
-78.6995612917
72
4
94
3
73
0
74
0
95
8
96
4
40
0.0
40
0.0
40
0.0
40
0.0
40
1.0
40
1.0
40
1.0
40
1.0
10
111.6511485589
20
-78.6995612917
10
111.5195332675
20
-78.7503271898
10
111.4038259794
20
-78.743279411
10
111.33
20
-78.68
72
4
94
2
73
0
74
0
95
6
96
3
40
0.0
40
0.0
40
0.0
40
1.0
40
1.0
40
1.0
10
111.33
20
-78.68
10
111.14
20
-78.51
10
111.27
20
-78.0
72
4
94
2
73
0
74
0
95
6
96
3
40
0.0
40
0.0
40
0.0
40
1.0
40
1.0
40
1.0
10
111.27
20
-78.0
10
113.51
20
-69.11
10
116.58
20
-60.47
72
1
10
116.58
20
-60.47
11
116.58
21
-60.47
72
4
94
3
73
0
74
0
95
8
96
4
40
0.0
40
0.0
40
0.0
40
0.0
40
1.0
40
1.0
40
1.0
40
1.0
10
116.58
20
-60.47
10
116.6183038267
20
-60.3657284717
10
116.7076725381
20
-60.288425611
10
116.8158787495
20
-60.2659677181
72
4
94
3
73
0
74
0
95
8
96
4
40
0.0
40
0.0
40
0.0
40
0.0
40
1.0
40
1.0
40
1.0
40
1.0
10
116.8158787495
20
-60.2659677181
10
116.924084961
20
-60.2435098252
10
117.0355203369
20
-60.2791363658
10
117.11
20
-60.36
72
1
10
117.11
20
-60.36
11
123.11
21
-66.69
72
4
94
3
73
0
74
0
95
8
96
4
40
0.0
40
0.0
40
0.0
40
0.0
40
1.0
40
1.0
40
1.0
40
1.0
10
123.11
20
-66.69
10
123.3007951827
20
-66.8920184288
10
123.2964068057
20
-67.2123699482
10
123.1
20
-67.42
72
4
94
2
73
0
74
0
95
6
96
3
40
0.0
40
0.0
40
0.0
40
1.0
40
1.0
40
1.0
10
123.1
20
-67.42
10
120.91
20
-69.71
10
117.06
20
-73.06
97
0
75
0
76
1
98
0
0
HATCH
5
45b
100
AcDbEntity
8
Layer 6
6
ByLayer
370
-1
62
256
100
AcDbHatch
10
0
20
0
30
0
210
0
220
0
230
1
2
FILL_1115
70
1
71
0
91
1
92
0
93
14
72
4
94
2
73
0
74
0
95
6
96
3
40
0.0
40
0.0
40
0.0
40
1.0
40
1.0
40
1.0
10
79.07
20
-78.46
10
80.81
20
-80.2
10
82.17
20
-82.27
72
1
10
82.17
20
-82.27
11
82.17
21
-82.27
72
4
94
3
73
0
74
0
95
8
96
4
40
0.0
40
0.0
40
0.0
40
0.0
40
1.0
40
1.0
40
1.0
40
1.0
10
82.17
20
-82.27
10
82.2289430164
20
-82.3584145246
10
82.2349215169
20
-82.471479763
10
82.1857457075
20
-82.5677823897
72
4
94
3
73
0
74
0
95
8
96
4
40
0.0
40
0.0
40
0.0
40
0.0
40
1.0
40
1.0
40
1.0
40
1.0
10
82.1857457075
20
-82.5677823897
10
82.1365698981
20
-82.6640850165
10
82.0394656019
20
-82.7294744614
10
81.93
20
-82.74
72
1
10
81.93
20
-82.74
11
61.86
21
-84.49
72
1
10
61.86
20
-84.49
11
61.86
21
-84.49
72
4
94
3
73
0
74
0
95
8
96
4
40
0.0
40
0.0
40
0.0
40
0.0
40
1.0
40
1.0
40
1.0
40
1.0
10
61.86
20
-84.49
10
61.7424676375
20
-84.5010879587
10
61.6281456126
20
-84.4496239297
10
61.5556822605
20
-84.353006127
72
4
94
3
73
0
74
0
95
8
96
4
40
0.0
40
0.0
40
0.0
40
0.0
40
1.0
40
1.0
40
1.0
40
1.0
10
61.5556822605
20
-84.353006127
10
61.4832189085
20
-84.2563883243
10
61.4623009403
20
-84.1275323625
10
61.5
20
-84.01
72
1
10
61.5
20
-84.01
11
66.68
21
-67.11
72
1
10
66.68
20
-67.11
11
66.68
21
-67.11
72
4
94
3
73
0
74
0
95
8
96
4
40
0.0
40
0.0
40
0.0
40
0.0
40
1.0
40
1.0
40
1.0
40
1.0
10
66.68
20
-67.11
10
66.7630631946
20
-66.8400446175
10
66.9811378694
20
-66.6323395415
10
67.2528185353
20
-66.5644193751
72
4
94
3
73
0
74
0
95
8
96
4
40
0.0
40
0.0
40
0.0
40
0.0
40
1.0
40
1.0
40
1.0
40
1.0
10
67.2528185353
20
-66.5644193751
10
67.5244992011
20
-66.4964992086
10
67.8089546524
20
-66.578571753
10
68.0
20
-66.78
72
4
94
2
73
0
74
0
95
6
96
3
40
0.0
40
0.0
40
0.0
40
1.0
40
1.0
40
1.0
10
68.0
20
-66.78
10
71.54
20
-70.5
10
75.28
20
-74.68
72
4
94
2
73
0
74
0
95
6
96
3
40
0.0
40
0.0
40
0.0
40
1.0
40
1.0
40
1.0
10
75.28
20
-74.68
10
75.47
20
-74.9
10
79.07
20
-78.46
97
0
75
0
76
1
98
0
0
HATCH
5
467
100
AcDbEntity
8
Layer 6
6
ByLayer
370
-1
62
256
100
AcDbHatch
10
0
20
0
30
0
210
0
220
0
230
1
2
FILL_1127
70
1
71
0
91
1
92
0
93
11
72
4
94
2
73
0
74
0
95
6
96
3
40
0.0
40
0.0
40
0.0
40
1.0
40
1.0
40
1.0
10
71.24
20
-68.77
10
70.31
20
-67.94
10
69.49
20
-66.99
72
4
94
2
73
0
74
0
95
6
96
3
40
0.0
40
0.0
40
0.0
40
1.0
40
1.0
40
1.0
10
69.49
20
-66.99
10
68.73
20
-66.11
10
69.81
20
-66.52
72
4
94
2
73
0
74
0
95
6
96
3
40
0.0
40
0.0
40
0.0
40
1.0
40
1.0
40
1.0
10
69.81
20
-66.52
10
83.99
20
-71.91
10
98.21
20
-77.32
72
4
94
2
73
0
74
0
95
6
96
3
40
0.0
40
0.0
40
0.0
40
1.0
40
1.0
40
1.0
10
98.21
20
-77.32
10
98.25
20
-77.34
10
101.84
20
-78.54
72
4
94
2
73
0
74
0
95
6
96
3
40
0.0
40
0.0
40
0.0
40
1.0
40
1.0
40
1.0
10
101.84
20
-78.54
10
103.94
20
-79.24
10
105.88
20
-80.32
72
4
94
2
73
0
74
0
95
6
96
3
40
0.0
40
0.0
40
0.0
40
1.0
40
1.0
40
1.0
10
105.88
20
-80.32
10
106.35
20
-80.58
10
105.81
20
-80.62
72
1
10
105.81
20
-80.62
11
84.75
21
-82.47
72
1
10
84.75
20
-82.47
11
84.75
21
-82.47
72
4
94
3
73
0
74
0
95
8
96
4
40
0.0
40
0.0
40
0.0
40
0.0
40
1.0
40
1.0
40
1.0
40
1.0
10
84.75
20
-82.47
10
84.4397272993
20
-82.4953283837
10
84.1279554536
20
-82.3742875495
10
83.9
20
-82.14
72
4
94
2
73
0
74
0
95
6
96
3
40
0.0
40
0.0
40
0.0
40
1.0
40
1.0
40
1.0
10
83.9
20
-82.14
10
78.36
20
-76.4
10
73.02
20
-70.49
72
4
94
2
73
0
74
0
95
6
96
3
40
0.0
40
0.0
40
0.0
40
1.0
40
1.0
40
1.0
10
73.02
20
-70.49
10
72.43
20
-69.83
10
71.24
20
-68.77
97
0
75
0
76
1
98
0
0
HATCH
5
471
100
AcDbEntity
8
Layer 6
6
ByLayer
370
-1
62
256
100
AcDbHatch
10
0
20
0
30
0
210
0
220
0
230
1
2
FILL_1137
70
1
71
0
91
1
92
0
93
9
72
4
94
2
73
0
74
0
95
6
96
3
40
0.0
40
0.0
40
0.0
40
1.0
40
1.0
40
1.0
10
115.65
20
-76.14
10
119.6
20
-71.93
10
124.11
20
-68.31
72
1
10
124.11
20
-68.31
11
124.11
21
-68.31
72
4
94
3
73
0
74
0
95
8
96
4
40
0.0
40
0.0
40
0.0
40
0.0
40
1.0
40
1.0
40
1.0
40
1.0
10
124.11
20
-68.31
10
124.3250937661
20
-68.140189132
10
124.637547683
20
-68.1662269584
10
124.83
20
-68.37
72
1
10
124.83
20
-68.37
11
133.63
21
-77.76
72
4
94
2
73
0
74
0
95
6
96
3
40
0.0
40
0.0
40
0.0
40
1.0
40
1.0
40
1.0
10
133.63
20
-77.76
10
134.52
20
-78.7
10
133.25
20
-78.79
72
1
10
133.25
20
-78.79
11
111.6
21
-80.29
72
4
94
2
73
0
74
0
95
6
96
3
40
0.0
40
0.0
40
0.0
40
1.0
40
1.0
40
1.0
10
111.6
20
-80.29
10
111.19
20
-80.32
10
111.47
20
-80.02
72
4
94
2
73
0
74
0
95
6
96
3
40
0.0
40
0.0
40
0.0
40
1.0
40
1.0
40
1.0
10
111.47
20
-80.02
10
112.4
20
-79.03
10
113.56
20
-78.07
72
4
94
2
73
0
74
0
95
6
96
3
40
0.0
40
0.0
40
0.0
40
1.0
40
1.0
40
1.0
10
113.56
20
-78.07
10
114.81
20
-77.04
10
115.65
20
-76.14
97
0
75
0
76
1
98
0
0
HATCH
5
47c
100
AcDbEntity
8
Layer 6
6
ByLayer
370
-1
62
256
100
AcDbHatch
10
0
20
0
30
0
210
0
220
0
230
1
2
FILL_1148
70
1
71
0
91
1
92
0
93
10
72
4
94
2
73
0
74
0
95
6
96
3
40
0.0
40
0.0
40
0.0
40
1.0
40
1.0
40
1.0
10
697.58
20
-74.9
10
697.78
20
-74.49
10
697.98
20
-74.9
72
1
10
697.98
20
-74.9
11
707.45
21
-93.9
72
1
10
707.45
20
-93.9
11
707.45
21
-93.9
72
4
94
3
73
0
74
0
95
8
96
4
40
0.0
40
0.0
40
0.0
40
0.0
40
1.0
40
1.0
40
1.0
40
1.0
10
707.45
20
-93.9
10
707.5142608163
20
-94.0285216327
10
707.5062569151
20
-94.181148716
10
707.4288466273
20
-94.3033754861
72
4
94
3
73
0
74
0
95
8
96
4
40
0.0
40
0.0
40
0.0
40
0.0
40
1.0
40
1.0
40
1.0
40
1.0
10
707.4288466273
20
-94.3033754861
10
707.3514363396
20
-94.4256022562
10
707.2156578504
20
-94.5
10
707.07
20
-94.5
72
1
10
707.07
20
-94.5
11
688.66
21
-94.5
72
1
10
688.66
20
-94.5
11
688.66
21
-94.5
72
4
94
3
73
0
74
0
95
8
96
4
40
0.0
40
0.0
40
0.0
40
0.0
40
1.0
40
1.0
40
1.0
40
1.0
10
688.66
20
-94.5
10
688.5196069423
20
-94.5
10
688.3887581271
20
-94.4284793267
10
688.3135973441
20
-94.3106597209
72
4
94
3
73
0
74
0
95
8
96
4
40
0.0
40
0.0
40
0.0
40
0.0
40
1.0
40
1.0
40
1.0
40
1.0
10
688.3135973441
20
-94.3106597209
10
688.2384365611
20
-94.1928401151
10
688.2295229905
20
-94.0452738053
10
688.29
20
-93.92
72
1
10
688.29
20
-93.92
11
697.58
21
-74.9
97
0
75
0
76
1
98
0
0
HATCH
5
488
100
AcDbEntity
8
Layer 6
6
ByLayer
370
-1
62
256
100
AcDbHatch
10
0
20
0
30
0
210
0
220
0
230
1
2
FILL_1160
70
1
71
0
91
1
92
0
93
11
72
4
94
2
73
0
74
0
95
6
96
3
40
0.0
40
0.0
40
0.0
40
1.0
40
1.0
40
1.0
10
169.62
20
-104.12
10
164.95
20
-108.47
10
160.35
20
-112.91
72
4
94
3
73
0
74
0
95
8
96
4
40
0.0
40
0.0
40
0.0
40
0.0
40
1.0
40
1.0
40
1.0
40
1.0
10
160.35
20
-112.91
10
160.2679272247
20
-112.989792976
10
160.1524992878
20
-113.0254697304
10
160.0408920275
20
-113.0055398625
72
4
94
3
73
0
74
0
95
8
96
4
40
0.0
40
0.0
40
0.0
40
0.0
40
1.0
40
1.0
40
1.0
40
1.0
10
160.0408920275
20
-113.0055398625
10
159.9292847672
20
-112.9856099946
10
159.8355959863
20
-112.9125909692
10
159.79
20
-112.81
72
1
10
159.79
20
-112.81
11
153.18
21
-97.21
72
1
10
153.18
20
-97.21
11
153.18
21
-97.21
72
4
94
3
73
0
74
0
95
8
96
4
40
0.0
40
0.0
40
0.0
40
0.0
40
1.0
40
1.0
40
1.0
40
1.0
10
153.18
20
-97.21
10
153.057378114
20
-96.9260335272
10
153.0431932479
20
-96.5962353901
10
153.14
20
-96.28
72
1
10
153.14
20
-96.28
11
158.66
21
-78.79
72
4
94
3
73
0
74
0
95
8
96
4
40
0.0
40
0.0
40
0.0
40
0.0
40
1.0
40
1.0
40
1.0
40
1.0
10
158.66
20
-78.79
10
158.7506047455
20
-78.5000648144
10
159.0119438653
20
-78.2941612655
10
159.32
20
-78.27
72
1
10
159.32
20
-78.27
11
198.23
21
-75.61
72
4
94
2
73
0
74
0
95
6
96
3
40
0.0
40
0.0
40
0.0
40
1.0
40
1.0
40
1.0
10
198.23
20
-75.61
10
200.03
20
-75.49
10
198.72
20
-76.73
72
4
94
2
73
0
74
0
95
6
96
3
40
0.0
40
0.0
40
0.0
40
1.0
40
1.0
40
1.0
10
198.72
20
-76.73
10
184.73
20
-90.05
10
169.62
20
-104.12
97
0
75
0
76
1
98
0
0
HATCH
5
493
100
AcDbEntity
8
Layer 6
6
ByLayer
370
-1
62
256
100
AcDbHatch
10
0
20
0
30
0
210
0
220
0
230
1
2
FILL_1171
70
1
71
0
91
1
92
0
93
10
72
4
94
2
73
0
74
0
95
6
96
3
40
0.0
40
0.0
40
0.0
40
1.0
40
1.0
40
1.0
10
524.44
20
-80.94
10
526.9
20
-77.82
10
530.17
20
-76.63
72
4
94
2
73
0
74
0
95
6
96
3
40
0.0
40
0.0
40
0.0
40
1.0
40
1.0
40
1.0
10
530.17
20
-76.63
10
539.25
20
-73.34
10
546.24
20
-78.82
72
4
94
2
73
0
74
0
95
6
96
3
40
0.0
40
0.0
40
0.0
40
1.0
40
1.0
40
1.0
10
546.24
20
-78.82
10
548.0
20
-80.2
10
549.01
20
-81.88
72
4
94
2
73
0
74
0
95
6
96
3
40
0.0
40
0.0
40
0.0
40
1.0
40
1.0
40
1.0
10
549.01
20
-81.88
10
550.06
20
-83.62
10
550.65
20
-85.75
72
4
94
3
73
0
74
0
95
8
96
4
40
0.0
40
0.0
40
0.0
40
0.0
40
1.0
40
1.0
40
1.0
40
1.0
10
550.65
20
-85.75
10
550.6832208911
20
-85.8686460395
10
550.65891064
20
-85.9960020733
10
550.5843035215
20
-86.0941693344
72
4
94
3
73
0
74
0
95
8
96
4
40
0.0
40
0.0
40
0.0
40
0.0
40
1.0
40
1.0
40
1.0
40
1.0
10
550.5843035215
20
-86.0941693344
10
550.509696403
20
-86.1923365956
10
550.3933918811
20
-86.25
10
550.27
20
-86.25
72
1
10
550.27
20
-86.25
11
522.3
21
-86.19
72
4
94
3
73
0
74
0
95
8
96
4
40
0.0
40
0.0
40
0.0
40
0.0
40
1.0
40
1.0
40
1.0
40
1.0
10
522.3
20
-86.19
10
522.1802997057
20
-86.19
10
522.0678347344
20
-86.1327227798
10
521.9954385228
20
-86.0348900613
72
4
94
3
73
0
74
0
95
8
96
4
40
0.0
40
0.0
40
0.0
40
0.0
40
1.0
40
1.0
40
1.0
40
1.0
10
521.9954385228
20
-86.0348900613
10
521.9230423111
20
-85.9370573428
10
521.8988779235
20
-85.8097002943
10
521.93
20
-85.69
72
4
94
2
73
0
74
0
95
6
96
3
40
0.0
40
0.0
40
0.0
40
1.0
40
1.0
40
1.0
10
521.93
20
-85.69
10
522.57
20
-83.31
10
524.44
20
-80.94
97
0
75
0
76
1
98
0
0
HATCH
5
49c
100
AcDbEntity
8
Layer 6
6
ByLayer
370
-1
62
256
100
AcDbHatch
10
0
20
0
30
0
210
0
220
0
230
1
2
FILL_1180
70
1
71
0
91
1
92
0
93
8
72
4
94
2
73
0
74
0
95
6
96
3
40
0.0
40
0.0
40
0.0
40
1.0
40
1.0
40
1.0
10
137.6
20
-80.44
10
136.85
20
-79.62
10
137.96
20
-79.54
72
1
10
137.96
20
-79.54
11
156.51
21
-78.32
72
1
10
156.51
20
-78.32
11
156.51
21
-78.32
72
4
94
3
73
0
74
0
95
8
96
4
40
0.0
40
0.0
40
0.0
40
0.0
40
1.0
40
1.0
40
1.0
40
1.0
10
156.51
20
-78.32
10
156.7648249581
20
-78.3017982173
10
157.0119591681
20
-78.4110799124
10
157.1715149578
20
-78.6125190968
72
4
94
3
73
0
74
0
95
8
96
4
40
0.0
40
0.0
40
0.0
40
0.0
40
1.0
40
1.0
40
1.0
40
1.0
10
157.1715149578
20
-78.6125190968
10
157.3310707474
20
-78.8139582812
10
157.3828071309
20
-79.0820007105
10
157.31
20
-79.33
72
1
10
157.31
20
-79.33
11
152.48
21
-95.32
72
4
94
2
73
0
74
0
95
6
96
3
40
0.0
40
0.0
40
0.0
40
1.0
40
1.0
40
1.0
10
152.48
20
-95.32
10
152.17
20
-96.34
10
151.46
20
-95.56
72
1
10
151.46
20
-95.56
11
137.6
21
-80.44
97
0
75
0
76
1
98
0
0
HATCH
5
4a7
100
AcDbEntity
8
Layer 6
6
ByLayer
370
-1
62
256
100
AcDbHatch
10
0
20
0
30
0
210
0
220
0
230
1
2
FILL_1191
70
1
71
0
91
1
92
0
93
10
72
4
94
2
73
0
74
0
95
6
96
3
40
0.0
40
0.0
40
0.0
40
1.0
40
1.0
40
1.0
10
138.22
20
-83.03
10
143.82
20
-88.68
10
149.26
20
-94.49
72
1
10
149.26
20
-94.49
11
149.26
21
-94.49
72
4
94
3
73
0
74
0
95
8
96
4
40
0.0
40
0.0
40
0.0
40
0.0
40
1.0
40
1.0
40
1.0
40
1.0
10
149.26
20
-94.49
10
149.452564439
20
-94.7011997073
10
149.5472705366
20
-94.9360708293
10
149.51
20
-95.11
72
4
94
2
73
0
74
0
95
6
96
3
40
0.0
40
0.0
40
0.0
40
1.0
40
1.0
40
1.0
10
149.51
20
-95.11
10
149.45
20
-95.42
10
149.0
20
-95.25
72
4
94
2
73
0
74
0
95
6
96
3
40
0.0
40
0.0
40
0.0
40
1.0
40
1.0
40
1.0
10
149.0
20
-95.25
10
131.15
20
-88.37
10
113.17
20
-81.8
72
4
94
2
73
0
74
0
95
6
96
3
40
0.0
40
0.0
40
0.0
40
1.0
40
1.0
40
1.0
10
113.17
20
-81.8
10
111.99
20
-81.38
10
113.24
20
-81.3
72
1
10
113.24
20
-81.3
11
134.93
21
-79.96
72
1
10
134.93
20
-79.96
11
134.93
21
-79.96
72
4
94
3
73
0
74
0
95
8
96
4
40
0.0
40
0.0
40
0.0
40
0.0
40
1.0
40
1.0
40
1.0
40
1.0
10
134.93
20
-79.96
10
135.4976493629
20
-79.9229793894
10
136.0491547079
20
-80.2102217566
10
136.37
20
-80.71
72
4
94
2
73
0
74
0
95
6
96
3
40
0.0
40
0.0
40
0.0
40
1.0
40
1.0
40
1.0
10
136.37
20
-80.71
10
137.21
20
-82.01
10
138.22
20
-83.03
97
0
75
0
76
1
98
0
0
HATCH
5
4b1
100
AcDbEntity
8
Layer 6
6
ByLayer
370
-1
62
256
100
AcDbHatch
10
0
20
0
30
0
210
0
220
0
230
1
2
FILL_1201
70
1
71
0
91
1
92
0
93
9
72
4
94
2
73
0
74
0
95
6
96
3
40
0.0
40
0.0
40
0.0
40
1.0
40
1.0
40
1.0
10
100.7
20
-89.22
10
98.71
20
-90.96
10
96.06
20
-93.55
72
1
10
96.06
20
-93.55
11
96.06
21
-93.55
72
4
94
3
73
0
74
0
95
8
96
4
40
0.0
40
0.0
40
0.0
40
0.0
40
1.0
40
1.0
40
1.0
40
1.0
10
96.06
20
-93.55
10
95.872215563
20
-93.7324947346
10
95.6219069227
20
-93.8351412352
10
95.3646687958
20
-93.8351412352
72
4
94
3
73
0
74
0
95
8
96
4
40
0.0
40
0.0
40
0.0
40
0.0
40
1.0
40
1.0
40
1.0
40
1.0
10
95.3646687958
20
-93.8351412352
10
95.107430669
20
-93.8351412352
10
94.8645601809
20
-93.7324947346
10
94.69
20
-93.55
72
1
10
94.69
20
-93.55
11
85.69
21
-84.03
72
4
94
2
73
0
74
0
95
6
96
3
40
0.0
40
0.0
40
0.0
40
1.0
40
1.0
40
1.0
10
85.69
20
-84.03
10
85.32
20
-83.63
10
85.87
20
-83.59
72
1
10
85.87
20
-83.59
11
106.93
21
-81.84
72
4
94
2
73
0
74
0
95
6
96
3
40
0.0
40
0.0
40
0.0
40
1.0
40
1.0
40
1.0
10
106.93
20
-81.84
10
107.45
20
-81.8
10
107.15
20
-82.21
72
4
94
2
73
0
74
0
95
6
96
3
40
0.0
40
0.0
40
0.0
40
1.0
40
1.0
40
1.0
10
107.15
20
-82.21
10
104.32
20
-86.07
10
100.7
20
-89.22
97
0
75
0
76
1
98
0
0
HATCH
5
4bc
100
AcDbEntity
8
Layer 6
6
ByLayer
370
-1
62
256
100
AcDbHatch
10
0
20
0
30
0
210
0
220
0
230
1
2
FILL_1212
70
1
71
0
91
1
92
0
93
10
72
4
94
2
73
0
74
0
95
6
96
3
40
0.0
40
0.0
40
0.0
40
1.0
40
1.0
40
1.0
10
102.34
20
-101.55
10
98.6
20
-98.34
10
96.54
20
-95.42
72
1
10
96.54
20
-95.42
11
96.54
21
-95.42
72
4
94
3
73
0
74
0
95
8
96
4
40
0.0
40
0.0
40
0.0
40
0.0
40
1.0
40
1.0
40
1.0
40
1.0
10
96.54
20
-95.42
10
96.3664369095
20
-95.1712262369
10
96.3875097277
20
-94.8424902723
10
96.59
20
-94.64
72
1
10
96.59
20
-94.64
11
107.29
21
-84.06
72
4
94
2
73
0
74
0
95
6
96
3
40
0.0
40
0.0
40
0.0
40
1.0
40
1.0
40
1.0
10
107.29
20
-84.06
10
108.59
20
-82.78
10
108.07
20
-84.55
72
1
10
108.07
20
-84.55
11
103.11
21
-101.31
72
1
10
103.11
20
-101.31
11
103.11
21
-101.31
72
4
94
3
73
0
74
0
95
8
96
4
40
0.0
40
0.0
40
0.0
40
0.0
40
1.0
40
1.0
40
1.0
40
1.0
10
103.11
20
-101.31
10
103.0639755666
20
-101.4677980575
10
102.9421546007
20
-101.5924285777
10
102.7865233017
20
-101.6409370345
72
4
94
3
73
0
74
0
95
8
96
4
40
0.0
40
0.0
40
0.0
40
0.0
40
1.0
40
1.0
40
1.0
40
1.0
10
102.7865233017
20
-101.6409370345
10
102.6308920027
20
-101.6894454914
10
102.4627318225
20
-101.655198705
10
102.34
20
-101.55
72
1
10
102.34
20
-101.55
11
102.34
21
-101.55
97
0
75
0
76
1
98
0
0
HATCH
5
4c3
100
AcDbEntity
8
Layer 7
6
ByLayer
370
-1
62
256
100
AcDbHatch
10
0
20
0
30
0
210
0
220
0
230
1
2
FILL_1219
70
1
71
0
91
1
92
0
93
4
72
4
94
2
73
0
74
0
95
6
96
3
40
0.0
40
0.0
40
0.0
40
1.0
40
1.0
40
1.0
10
131.5
20
-2.54
10
133.16
20
-2.51
10
132.54
20
-4.0
72
4
94
2
73
0
74
0
95
6
96
3
40
0.0
40
0.0
40
0.0
40
1.0
40
1.0
40
1.0
10
132.54
20
-4.0
10
132.29
20
-3.6
10
131.79
20
-3.75
72
4
94
2
73
0
74
0
95
6
96
3
40
0.0
40
0.0
40
0.0
40
1.0
40
1.0
40
1.0
10
131.79
20
-3.75
10
131.58
20
-3.24
10
131.0
20
-3.21
72
1
10
131.0
20
-3.21
11
131.5
21
-2.54
97
0
75
0
76
1
98
0
0
HATCH
5
4d5
100
AcDbEntity
8
Layer 8
6
ByLayer
370
-1
62
256
100
AcDbHatch
10
0
20
0
30
0
210
0
220
0
230
1
2
FILL_1237
70
1
71
0
91
1
92
0
93
15
72
4
94
2
73
0
74
0
95
6
96
3
40
0.0
40
0.0
40
0.0
40
1.0
40
1.0
40
1.0
10
100.93
20
-101.73
10
102.49
20
-103.03
10
101.69
20
-105.69
72
4
94
2
73
0
74
0
95
6
96
3
40
0.0
40
0.0
40
0.0
40
1.0
40
1.0
40
1.0
10
101.69
20
-105.69
10
96.51
20
-122.92
10
91.38
20
-140.37
72
1
10
91.38
20
-140.37
11
91.38
21
-140.37
72
4
94
3
73
0
74
0
95
8
96
4
40
0.0
40
0.0
40
0.0
40
0.0
40
1.0
40
1.0
40
1.0
40
1.0
10
91.38
20
-140.37
10
91.222622513
20
-140.9087152439
10
90.7568741847
20
-141.2994701973
10
90.2
20
-141.36
72
1
10
90.2
20
-141.36
11
71.25
21
-143.26
72
1
10
71.25
20
-143.26
11
71.25
21
-143.26
72
4
94
3
73
0
74
0
95
8
96
4
40
0.0
40
0.0
40
0.0
40
0.0
40
1.0
40
1.0
40
1.0
40
1.0
10
71.25
20
-143.26
10
70.725548234
20
-143.3105495678
10
70.2064843666
20
-143.1191217586
10
69.84
20
-142.74
72
1
10
69.84
20
-142.74
11
59.17
21
-131.78
72
4
94
3
73
0
74
0
95
8
96
4
40
0.0
40
0.0
40
0.0
40
0.0
40
1.0
40
1.0
40
1.0
40
1.0
10
59.17
20
-131.78
10
58.8709828412
20
-131.4699081316
10
58.8754454864
20
-130.9790171588
10
59.18
20
-130.68
72
1
10
59.18
20
-130.68
11
94.89
21
-96.1
72
1
10
94.89
20
-96.1
11
94.89
21
-96.1
72
4
94
3
73
0
74
0
95
8
96
4
40
0.0
40
0.0
40
0.0
40
0.0
40
1.0
40
1.0
40
1.0
40
1.0
10
94.89
20
-96.1
10
94.9840303399
20
-96.008581614
10
95.1108649713
20
-95.959022259
10
95.2411334102
20
-95.9627981557
72
4
94
3
73
0
74
0
95
8
96
4
40
0.0
40
0.0
40
0.0
40
0.0
40
1.0
40
1.0
40
1.0
40
1.0
10
95.2411334102
20
-95.9627981557
10
95.3714018491
20
-95.9665740525
10
95.4938055218
20
-96.0233577062
10
95.58
20
-96.12
72
4
94
2
73
0
74
0
95
6
96
3
40
0.0
40
0.0
40
0.0
40
1.0
40
1.0
40
1.0
10
95.58
20
-96.12
10
97.5
20
-98.26
10
99.39
20
-100.42
72
4
94
2
73
0
74
0
95
6
96
3
40
0.0
40
0.0
40
0.0
40
1.0
40
1.0
40
1.0
10
99.39
20
-100.42
10
99.46
20
-100.5
10
100.93
20
-101.73
97
0
75
0
76
1
98
0
0
HATCH
5
4e2
100
AcDbEntity
8
Layer 8
6
ByLayer
370
-1
62
256
100
AcDbHatch
10
0
20
0
30
0
210
0
220
0
230
1
2
FILL_1250
70
1
71
0
91
1
92
0
93
12
72
1
10
122.0
20
-124.68
11
122.0
21
-124.68
72
4
94
3
73
0
74
0
95
8
96
4
40
0.0
40
0.0
40
0.0
40
0.0
40
1.0
40
1.0
40
1.0
40
1.0
10
122.0
20
-124.68
10
122.1941110528
20
-124.8852031129
10
122.180749143
20
-125.2147968871
10
121.97
20
-125.42
72
1
10
121.97
20
-125.42
11
107.6
21
-139.15
72
1
10
107.6
20
-139.15
11
107.6
21
-139.15
72
4
94
3
73
0
74
0
95
8
96
4
40
0.0
40
0.0
40
0.0
40
0.0
40
1.0
40
1.0
40
1.0
40
1.0
10
107.6
20
-139.15
10
107.3482368055
20
-139.395307728
10
107.0504959936
20
-139.5441781339
10
106.76
20
-139.57
72
1
10
106.76
20
-139.57
11
92.89
21
-140.93
72
1
10
92.89
20
-140.93
11
92.89
21
-140.93
72
4
94
3
73
0
74
0
95
8
96
4
40
0.0
40
0.0
40
0.0
40
0.0
40
1.0
40
1.0
40
1.0
40
1.0
10
92.89
20
-140.93
10
92.7590245986
20
-140.9433195323
10
92.6306222808
20
-140.8883965904
10
92.5481251624
20
-140.7837660988
72
4
94
3
73
0
74
0
95
8
96
4
40
0.0
40
0.0
40
0.0
40
0.0
40
1.0
40
1.0
40
1.0
40
1.0
10
92.5481251624
20
-140.7837660988
10
92.465628044
20
-140.6791356072
10
92.440041403
20
-140.5387554793
10
92.48
20
-140.41
72
1
10
92.48
20
-140.41
11
102.98
21
-105.33
72
4
94
2
73
0
74
0
95
6
96
3
40
0.0
40
0.0
40
0.0
40
1.0
40
1.0
40
1.0
10
102.98
20
-105.33
10
103.22
20
-104.53
10
103.78
20
-105.14
72
1
10
103.78
20
-105.14
11
122.0
21
-124.68
97
0
75
0
76
1
98
0
0
HATCH
5
4ee
100
AcDbEntity
8
Layer 8
6
ByLayer
370
-1
62
256
100
AcDbHatch
10
0
20
0
30
0
210
0
220
0
230
1
2
FILL_1262
70
1
71
0
91
1
92
0
93
11
72
1
10
150.6
20
-124.54
11
150.6
21
-124.54
72
4
94
3
73
0
74
0
95
8
96
4
40
0.0
40
0.0
40
0.0
40
0.0
40
1.0
40
1.0
40
1.0
40
1.0
10
150.6
20
-124.54
10
150.2900569398
20
-124.1968487547
10
150.3079181498
20
-123.6744083627
10
150.64
20
-123.37
72
1
10
150.64
20
-123.37
11
159.13
21
-115.57
72
1
10
159.13
20
-115.57
11
159.13
21
-115.57
72
4
94
3
73
0
74
0
95
8
96
4
40
0.0
40
0.0
40
0.0
40
0.0
40
1.0
40
1.0
40
1.0
40
1.0
10
159.13
20
-115.57
10
159.2126627089
20
-115.4942258502
10
159.3279749145
20
-115.4657240412
10
159.4392894643
20
-115.4935526786
72
4
94
3
73
0
74
0
95
8
96
4
40
0.0
40
0.0
40
0.0
40
0.0
40
1.0
40
1.0
40
1.0
40
1.0
10
159.4392894643
20
-115.4935526786
10
159.5506040141
20
-115.5213813161
10
159.6440762728
20
-115.6020792412
10
159.69
20
-115.71
72
4
94
2
73
0
74
0
95
6
96
3
40
0.0
40
0.0
40
0.0
40
1.0
40
1.0
40
1.0
10
159.69
20
-115.71
10
166.66
20
-132.14
10
173.67
20
-148.55
72
4
94
2
73
0
74
0
95
6
96
3
40
0.0
40
0.0
40
0.0
40
1.0
40
1.0
40
1.0
10
173.67
20
-148.55
10
173.76
20
-148.77
10
173.77
20
-148.98
72
4
94
2
73
0
74
0
95
6
96
3
40
0.0
40
0.0
40
0.0
40
1.0
40
1.0
40
1.0
10
173.77
20
-148.98
10
173.83
20
-149.81
10
173.28
20
-149.22
72
4
94
2
73
0
74
0
95
6
96
3
40
0.0
40
0.0
40
0.0
40
1.0
40
1.0
40
1.0
10
173.28
20
-149.22
10
162.58
20
-137.91
10
150.6
20
-124.54
72
1
10
150.6
20
-124.54
11
150.6
21
-124.54
97
0
75
0
76
1
98
0
0
HATCH
5
4f8
100
AcDbEntity
8
Layer 8
6
ByLayer
370
-1
62
256
100
AcDbHatch
10
0
20
0
30
0
210
0
220
0
230
1
2
FILL_1272
70
1
71
0
91
1
92
0
93
9
72
1
10
50.07
20
-123.7
11
56.54
21
-130.5
72
1
10
56.54
20
-130.5
11
56.54
21
-130.5
72
4
94
3
73
0
74
0
95
8
96
4
40
0.0
40
0.0
40
0.0
40
0.0
40
1.0
40
1.0
40
1.0
40
1.0
10
56.54
20
-130.5
10
56.9171741355
20
-130.8938141709
10
56.8860008848
20
-131.5395457937
10
56.47
20
-131.95
72
1
10
56.47
20
-131.95
11
43.96
21
-144.28
72
4
94
2
73
0
74
0
95
6
96
3
40
0.0
40
0.0
40
0.0
40
1.0
40
1.0
40
1.0
10
43.96
20
-144.28
10
43.19
20
-145.04
10
43.49
20
-144.02
72
1
10
43.49
20
-144.02
11
49.55
21
-123.84
72
4
94
3
73
0
74
0
95
8
96
4
40
0.0
40
0.0
40
0.0
40
0.0
40
1.0
40
1.0
40
1.0
40
1.0
10
49.55
20
-123.84
10
49.583220241
20
-123.7320342168
10
49.6694421489
20
-123.6479451939
10
49.7764731458
20
-123.6191291562
72
4
94
3
73
0
74
0
95
8
96
4
40
0.0
40
0.0
40
0.0
40
0.0
40
1.0
40
1.0
40
1.0
40
1.0
10
49.7764731458
20
-123.6191291562
10
49.8835041428
20
-123.5903131186
10
49.9952544578
20
-123.6211019276
10
50.07
20
-123.7
72
1
10
50.07
20
-123.7
11
50.07
21
-123.7
97
0
75
0
76
1
98
0
0
HATCH
5
503
100
AcDbEntity
8
Layer 8
6
ByLayer
370
-1
62
256
100
AcDbHatch
10
0
20
0
30
0
210
0
220
0
230
1
2
FILL_1283
70
1
71
0
91
1
92
0
93
10
72
4
94
2
73
0
74
0
95
6
96
3
40
0.0
40
0.0
40
0.0
40
1.0
40
1.0
40
1.0
10
172.43
20
-150.08
10
173.93
20
-151.71
10
171.86
20
-150.92
72
1
10
171.86
20
-150.92
11
136.53
21
-137.37
72
1
10
136.53
20
-137.37
11
136.53
21
-137.37
72
4
94
3
73
0
74
0
95
8
96
4
40
0.0
40
0.0
40
0.0
40
0.0
40
1.0
40
1.0
40
1.0
40
1.0
10
136.53
20
-137.37
10
136.4248740699
20
-137.3313823114
10
136.3460545097
20
-137.242239543
10
136.3216222694
20
-137.1343304816
72
4
94
3
73
0
74
0
95
8
96
4
40
0.0
40
0.0
40
0.0
40
0.0
40
1.0
40
1.0
40
1.0
40
1.0
10
136.3216222694
20
-137.1343304816
10
136.2971900291
20
-137.0264214203
10
136.3306191956
20
-136.9150899501
10
136.41
20
-136.84
72
1
10
136.41
20
-136.84
11
148.76
21
-125.2
72
1
10
148.76
20
-125.2
11
148.76
21
-125.2
72
4
94
3
73
0
74
0
95
8
96
4
40
0.0
40
0.0
40
0.0
40
0.0
40
1.0
40
1.0
40
1.0
40
1.0
10
148.76
20
-125.2
10
148.8815855605
20
-125.0863439326
10
149.0450942219
20
-125.027682567
10
149.2141302537
20
-125.0370734576
72
4
94
3
73
0
74
0
95
8
96
4
40
0.0
40
0.0
40
0.0
40
0.0
40
1.0
40
1.0
40
1.0
40
1.0
10
149.2141302537
20
-125.0370734576
10
149.3831662855
20
-125.0464643483
10
149.5437007682
20
-125.1231281108
10
149.66
20
-125.25
72
1
10
149.66
20
-125.25
11
172.43
21
-150.08
97
0
75
0
76
1
98
0
0
HATCH
5
50d
100
AcDbEntity
8
Layer 8
6
ByLayer
370
-1
62
256
100
AcDbHatch
10
0
20
0
30
0
210
0
220
0
230
1
2
FILL_1293
70
1
71
0
91
1
92
0
93
9
72
4
94
2
73
0
74
0
95
6
96
3
40
0.0
40
0.0
40
0.0
40
1.0
40
1.0
40
1.0
10
130.15
20
-133.11
10
131.42
20
-134.47
10
133.3
20
-136.11
72
4
94
2
73
0
74
0
95
6
96
3
40
0.0
40
0.0
40
0.0
40
1.0
40
1.0
40
1.0
10
133.3
20
-136.11
10
134.15
20
-136.85
10
133.03
20
-136.97
72
1
10
133.03
20
-136.97
11
109.85
21
-139.38
72
4
94
2
73
0
74
0
95
6
96
3
40
0.0
40
0.0
40
0.0
40
1.0
40
1.0
40
1.0
10
109.85
20
-139.38
10
108.75
20
-139.49
10
109.55
20
-138.72
72
1
10
109.55
20
-138.72
11
122.46
21
-126.18
72
1
10
122.46
20
-126.18
11
122.46
21
-126.18
72
4
94
3
73
0
74
0
95
8
96
4
40
0.0
40
0.0
40
0.0
40
0.0
40
1.0
40
1.0
40
1.0
40
1.0
10
122.46
20
-126.18
10
122.6138255641
20
-126.0314787657
10
122.8203506642
20
-125.9501475419
10
123.0341421356
20
-125.9538982694
72
4
94
3
73
0
74
0
95
8
96
4
40
0.0
40
0.0
40
0.0
40
0.0
40
1.0
40
1.0
40
1.0
40
1.0
10
123.0341421356
20
-125.9538982694
10
123.2479336071
20
-125.957648997
10
123.4514787657
20
-126.0461744359
10
123.6
20
-126.2
72
4
94
2
73
0
74
0
95
6
96
3
40
0.0
40
0.0
40
0.0
40
1.0
40
1.0
40
1.0
10
123.6
20
-126.2
10
127.26
20
-130.0
10
130.15
20
-133.11
97
0
75
0
76
1
98
0
0
HATCH
5
516
100
AcDbEntity
8
Layer 8
6
ByLayer
370
-1
62
256
100
AcDbHatch
10
0
20
0
30
0
210
0
220
0
230
1
2
FILL_1302
70
1
71
0
91
1
92
0
93
8
72
4
94
2
73
0
74
0
95
6
96
3
40
0.0
40
0.0
40
0.0
40
1.0
40
1.0
40
1.0
10
68.09
20
-142.89
10
68.68
20
-143.52
10
67.81
20
-143.6
72
1
10
67.81
20
-143.6
11
44.78
21
-145.87
72
4
94
2
73
0
74
0
95
6
96
3
40
0.0
40
0.0
40
0.0
40
1.0
40
1.0
40
1.0
10
44.78
20
-145.87
10
43.78
20
-145.97
10
44.49
20
-145.26
72
1
10
44.49
20
-145.26
11
57.26
21
-132.61
72
1
10
57.26
20
-132.61
11
57.26
21
-132.61
72
4
94
3
73
0
74
0
95
8
96
4
40
0.0
40
0.0
40
0.0
40
0.0
40
1.0
40
1.0
40
1.0
40
1.0
10
57.26
20
-132.61
10
57.4225103908
20
-132.4474896092
10
57.6419935362
20
-132.3557310778
10
57.8682022233
20
-132.3557310778
72
4
94
3
73
0
74
0
95
8
96
4
40
0.0
40
0.0
40
0.0
40
0.0
40
1.0
40
1.0
40
1.0
40
1.0
10
57.8682022233
20
-132.3557310778
10
58.0944109104
20
-132.3557310778
10
58.3079741506
20
-132.4474896092
10
58.46
20
-132.61
72
1
10
58.46
20
-132.61
11
68.09
21
-142.89
97
0
75
0
76
1
98
0
0
HATCH
5
524
100
AcDbEntity
8
Layer 9
6
ByLayer
370
-1
62
256
100
AcDbHatch
10
0
20
0
30
0
210
0
220
0
230
1
2
FILL_1316
70
1
71
0
91
1
92
0
93
11
72
4
94
2
73
0
74
0
95
6
96
3
40
0.0
40
0.0
40
0.0
40
1.0
40
1.0
40
1.0
10
101.33
20
-146.32
10
104.16
20
-143.63
10
107.06
20
-141.02
72
1
10
107.06
20
-141.02
11
107.06
21
-141.02
72
4
94
3
73
0
74
0
95
8
96
4
40
0.0
40
0.0
40
0.0
40
0.0
40
1.0
40
1.0
40
1.0
40
1.0
10
107.06
20
-141.02
10
107.3076313274
20
-140.804951742
10
107.614169306
20
-140.6690996833
10
107.94
20
-140.63
72
4
94
2
73
0
74
0
95
6
96
3
40
0.0
40
0.0
40
0.0
40
1.0
40
1.0
40
1.0
10
107.94
20
-140.63
10
120.3
20
-139.28
10
132.69
20
-138.2
72
4
94
2
73
0
74
0
95
6
96
3
40
0.0
40
0.0
40
0.0
40
1.0
40
1.0
40
1.0
10
132.69
20
-138.2
10
134.99
20
-138.0
10
137.16
20
-138.83
72
4
94
2
73
0
74
0
95
6
96
3
40
0.0
40
0.0
40
0.0
40
1.0
40
1.0
40
1.0
10
137.16
20
-138.83
10
154.73
20
-145.6
10
172.9
20
-152.5
72
4
94
2
73
0
74
0
95
6
96
3
40
0.0
40
0.0
40
0.0
40
1.0
40
1.0
40
1.0
10
172.9
20
-152.5
10
173.44
20
-152.7
10
172.88
20
-152.87
72
4
94
2
73
0
74
0
95
6
96
3
40
0.0
40
0.0
40
0.0
40
1.0
40
1.0
40
1.0
10
172.88
20
-152.87
10
170.7
20
-153.5
10
168.26
20
-153.68
72
4
94
2
73
0
74
0
95
6
96
3
40
0.0
40
0.0
40
0.0
40
1.0
40
1.0
40
1.0
10
168.26
20
-153.68
10
128.25
20
-156.61
10
88.24
20
-159.75
72
4
94
2
73
0
74
0
95
6
96
3
40
0.0
40
0.0
40
0.0
40
1.0
40
1.0
40
1.0
10
88.24
20
-159.75
10
87.43
20
-159.81
10
88.0
20
-159.25
72
4
94
2
73
0
74
0
95
6
96
3
40
0.0
40
0.0
40
0.0
40
1.0
40
1.0
40
1.0
10
88.0
20
-159.25
10
94.59
20
-152.71
10
101.33
20
-146.32
97
0
75
0
76
1
98
0
0
HATCH
5
52d
100
AcDbEntity
8
Layer 9
6
ByLayer
370
-1
62
256
100
AcDbHatch
10
0
20
0
30
0
210
0
220
0
230
1
2
FILL_1325
70
1
71
0
91
1
92
0
93
8
72
1
10
92.02
20
-142.45
11
92.02
21
-142.45
72
4
94
3
73
0
74
0
95
8
96
4
40
0.0
40
0.0
40
0.0
40
0.0
40
1.0
40
1.0
40
1.0
40
1.0
10
92.02
20
-142.45
10
92.0862258069
20
-142.2272404677
10
92.289178884
20
-142.0680615837
10
92.53
20
-142.05
72
1
10
92.53
20
-142.05
11
104.7
21
-140.9
72
4
94
2
73
0
74
0
95
6
96
3
40
0.0
40
0.0
40
0.0
40
1.0
40
1.0
40
1.0
10
104.7
20
-140.9
10
105.6
20
-140.81
10
104.95
20
-141.44
72
1
10
104.95
20
-141.44
11
88.05
21
-157.82
72
4
94
2
73
0
74
0
95
6
96
3
40
0.0
40
0.0
40
0.0
40
1.0
40
1.0
40
1.0
10
88.05
20
-157.82
10
86.74
20
-159.09
10
87.29
20
-157.36
72
1
10
87.29
20
-157.36
11
92.02
21
-142.45
72
1
10
92.02
20
-142.45
11
92.02
21
-142.45
97
0
75
0
76
1
98
0
0
HATCH
5
536
100
AcDbEntity
8
Layer 9
6
ByLayer
370
-1
62
256
100
AcDbHatch
10
0
20
0
30
0
210
0
220
0
230
1
2
FILL_1334
70
1
71
0
91
1
92
0
93
8
72
4
94
2
73
0
74
0
95
6
96
3
40
0.0
40
0.0
40
0.0
40
1.0
40
1.0
40
1.0
10
85.97
20
-158.65
10
85.69
20
-159.59
10
85.02
20
-158.88
72
1
10
85.02
20
-158.88
11
72.05
21
-144.93
72
4
94
2
73
0
74
0
95
6
96
3
40
0.0
40
0.0
40
0.0
40
1.0
40
1.0
40
1.0
10
72.05
20
-144.93
10
71.33
20
-144.15
10
72.39
20
-144.06
72
1
10
72.39
20
-144.06
11
90.11
21
-142.44
72
1
10
90.11
20
-142.44
11
90.11
21
-142.44
72
4
94
3
73
0
74
0
95
8
96
4
40
0.0
40
0.0
40
0.0
40
0.0
40
1.0
40
1.0
40
1.0
40
1.0
10
90.11
20
-142.44
10
90.2568300481
20
-142.4264464571
10
90.4008116897
20
-142.4864911754
10
90.4947953384
20
-142.6004713452
72
4
94
3
73
0
74
0
95
8
96
4
40
0.0
40
0.0
40
0.0
40
0.0
40
1.0
40
1.0
40
1.0
40
1.0
10
90.4947953384
20
-142.6004713452
10
90.5887789871
20
-142.7144515149
10
90.6206606287
20
-142.8676877996
10
90.58
20
-143.01
72
1
10
90.58
20
-143.01
11
85.97
21
-158.65
97
0
75
0
76
1
98
0
0
HATCH
5
543
100
AcDbEntity
8
Layer 9
6
ByLayer
370
-1
62
256
100
AcDbHatch
10
0
20
0
30
0
210
0
220
0
230
1
2
FILL_1347
70
1
71
0
91
1
92
0
93
12
72
4
94
2
73
0
74
0
95
6
96
3
40
0.0
40
0.0
40
0.0
40
1.0
40
1.0
40
1.0
10
80.15
20
-155.11
10
81.42
20
-156.47
10
83.1
20
-157.94
72
4
94
2
73
0
74
0
95
6
96
3
40
0.0
40
0.0
40
0.0
40
1.0
40
1.0
40
1.0
10
83.1
20
-157.94
10
84.88
20
-159.48
10
82.63
20
-158.79
72
1
10
82.63
20
-158.79
11
46.38
21
-147.54
72
1
10
46.38
20
-147.54
11
46.38
21
-147.54
72
4
94
3
73
0
74
0
95
8
96
4
40
0.0
40
0.0
40
0.0
40
0.0
40
1.0
40
1.0
40
1.0
40
1.0
10
46.38
20
-147.54
10
46.2662172961
20
-147.5029544685
10
46.1673946919
20
-147.4356724573
10
46.1054452076
20
-147.3530731449
72
4
94
3
73
0
74
0
95
8
96
4
40
0.0
40
0.0
40
0.0
40
0.0
40
1.0
40
1.0
40
1.0
40
1.0
10
46.1054452076
20
-147.3530731449
10
46.0434957233
20
-147.2704738325
10
46.0235389061
20
-147.1793832818
10
46.05
20
-147.1
72
4
94
2
73
0
74
0
95
6
96
3
40
0.0
40
0.0
40
0.0
40
1.0
40
1.0
40
1.0
10
46.05
20
-147.1
10
46.09
20
-146.98
10
46.2
20
-146.89
72
4
94
2
73
0
74
0
95
6
96
3
40
0.0
40
0.0
40
0.0
40
1.0
40
1.0
40
1.0
10
46.2
20
-146.89
10
46.29
20
-146.82
10
46.45
20
-146.8
72
4
94
2
73
0
74
0
95
6
96
3
40
0.0
40
0.0
40
0.0
40
1.0
40
1.0
40
1.0
10
46.45
20
-146.8
10
57.83
20
-145.53
10
69.25
20
-144.54
72
1
10
69.25
20
-144.54
11
69.25
21
-144.54
72
4
94
3
73
0
74
0
95
8
96
4
40
0.0
40
0.0
40
0.0
40
0.0
40
1.0
40
1.0
40
1.0
40
1.0
10
69.25
20
-144.54
10
69.5683109283
20
-144.5145351257
10
69.8808161316
20
-144.6235485687
10
70.11
20
-144.84
72
4
94
2
73
0
74
0
95
6
96
3
40
0.0
40
0.0
40
0.0
40
1.0
40
1.0
40
1.0
10
70.11
20
-144.84
10
75.27
20
-149.83
10
80.15
20
-155.11
97
0
75
0
76
1
98
0
0
ENDSEC
0
SECTION
2
OBJECTS
0
DICTIONARY
5
17
330
0
100
AcDbDictionary
281
1
3
ACAD_GROUP
350
18
0
DICTIONARY
5
18
330
17
100
AcDbDictionary
281
1
0
ENDSEC
0
EOF
